<?xml version="1.0" encoding="UTF-8" standalone="no"?>
<!DOCTYPE svg PUBLIC "-//W3C//DTD SVG 1.1//EN"
 "http://www.w3.org/Graphics/SVG/1.1/DTD/svg11.dtd">
<!-- Generated by graphviz version 2.40.1 (20161225.0304)
 -->
<!-- Title: F Pages: 1 -->
<svg width="344pt" height="316pt"
 viewBox="0.00 0.00 344.00 316.00" xmlns="http://www.w3.org/2000/svg" xmlns:xlink="http://www.w3.org/1999/xlink">
<g id="graph0" class="graph" transform="scale(1 1) rotate(0) translate(4 312)">
<title>F</title>
<polygon fill="#ffffff" stroke="transparent" points="-4,4 -4,-312 340,-312 340,4 -4,4"/>
<!-- Bar -->
<g id="node1" class="node">
<title>Bar</title>
<polygon fill="none" stroke="#000000" points="0,-87.5 0,-231.5 54,-231.5 54,-87.5 0,-87.5"/>
<text text-anchor="middle" x="27" y="-155.8" font-family="Times,serif" font-size="14.00" fill="#000000">Bar</text>
</g>
<!-- Foo -->
<g id="node2" class="node">
<title>Foo</title>
<polygon fill="none" stroke="#000000" points="138,-15.5 138,-303.5 192,-303.5 192,-15.5 138,-15.5"/>
<text text-anchor="middle" x="165" y="-155.8" font-family="Times,serif" font-size="14.00" fill="#000000">Foo</text>
</g>
<!-- Bar&#45;&gt;Foo -->
<g id="edge1" class="edge">
<title>Bar&#45;&gt;Foo</title>
<path fill="none" stroke="#000000" d="M54.2644,-123.25C54.2644,-123.25 127.7923,-123.25 127.7923,-123.25"/>
<polygon fill="#000000" stroke="#000000" points="127.7923,-126.7501 137.7923,-123.25 127.7922,-119.7501 127.7923,-126.7501"/>
<text text-anchor="middle" x="96" y="-201.3" font-family="Times,serif" font-size="14.00" fill="#000000">Bar2Foo</text>
</g>
<!-- Bar&#45;&gt;Foo -->
<g id="edge2" class="edge">
<title>Bar&#45;&gt;Foo</title>
<path fill="none" stroke="#000000" d="M54.2644,-159.5C54.2644,-159.5 127.7923,-159.5 127.7923,-159.5"/>
<polygon fill="#000000" stroke="#000000" points="127.7923,-163.0001 137.7923,-159.5 127.7922,-156.0001 127.7923,-163.0001"/>
<text text-anchor="middle" x="96" y="-163.3" font-family="Times,serif" font-size="14.00" fill="#000000">Bar2Foo</text>
</g>
<!-- Bar&#45;&gt;Foo -->
<g id="edge3" class="edge">
<title>Bar&#45;&gt;Foo</title>
<path fill="none" stroke="#000000" d="M54.2644,-195.75C54.2644,-195.75 127.7923,-195.75 127.7923,-195.75"/>
<polygon fill="#000000" stroke="#000000" points="127.7923,-199.2501 137.7923,-195.75 127.7922,-192.2501 127.7923,-199.2501"/>
<text text-anchor="middle" x="96" y="-125.3" font-family="Times,serif" font-size="14.00" fill="#000000">Bar2Foo</text>
</g>
<!-- Bew -->
<g id="node3" class="node">
<title>Bew</title>
<polygon fill="none" stroke="#000000" points="282,-163.5 282,-307.5 336,-307.5 336,-163.5 282,-163.5"/>
<text text-anchor="middle" x="309" y="-231.8" font-family="Times,serif" font-size="14.00" fill="#000000">Bew</text>
</g>
<!-- Foo&#45;&gt;Bew -->
<g id="edge4" class="edge">
<title>Foo&#45;&gt;Bew</title>
<path fill="none" stroke="#000000" d="M192.0853,-198.25C192.0853,-198.25 271.5466,-198.25 271.5466,-198.25"/>
<polygon fill="#000000" stroke="#000000" points="271.5466,-201.7501 281.5466,-198.25 271.5465,-194.7501 271.5466,-201.7501"/>
<text text-anchor="middle" x="237" y="-239.3" font-family="Times,serif" font-size="14.00" fill="#000000">Foo2Bew</text>
</g>
<!-- Foo&#45;&gt;Bew -->
<g id="edge5" class="edge">
<title>Foo&#45;&gt;Bew</title>
<path fill="none" stroke="#000000" d="M192.0853,-233.5C192.0853,-233.5 271.5466,-233.5 271.5466,-233.5"/>
<polygon fill="#000000" stroke="#000000" points="271.5466,-237.0001 281.5466,-233.5 271.5465,-230.0001 271.5466,-237.0001"/>
<text text-anchor="middle" x="237" y="-201.3" font-family="Times,serif" font-size="14.00" fill="#000000">Foo2Bew</text>
</g>
<!-- Gate -->
<g id="node4" class="node">
<title>Gate</title>
<polygon fill="none" stroke="#000000" points="282,-.5 282,-144.5 336,-144.5 336,-.5 282,-.5"/>
<text text-anchor="middle" x="309" y="-68.8" font-family="Times,serif" font-size="14.00" fill="#000000">Gate</text>
</g>
<!-- Foo&#45;&gt;Gate -->
<g id="edge7" class="edge">
<title>Foo&#45;&gt;Gate</title>
<path fill="none" stroke="#000000" d="M192.0853,-58.3333C192.0853,-58.3333 271.5466,-58.3333 271.5466,-58.3333"/>
<polygon fill="#000000" stroke="#000000" points="271.5466,-61.8334 281.5466,-58.3333 271.5465,-54.8334 271.5466,-61.8334"/>
<text text-anchor="middle" x="237" y="-122.3" font-family="Times,serif" font-size="14.00" fill="#000000">Foo2Gate</text>
</g>
<!-- Foo&#45;&gt;Gate -->
<g id="edge8" class="edge">
<title>Foo&#45;&gt;Gate</title>
<path fill="none" stroke="#000000" d="M192.0853,-101.6667C192.0853,-101.6667 271.5466,-101.6667 271.5466,-101.6667"/>
<polygon fill="#000000" stroke="#000000" points="271.5466,-105.1668 281.5466,-101.6667 271.5465,-98.1668 271.5466,-105.1668"/>
<text text-anchor="middle" x="237" y="-79.3" font-family="Times,serif" font-size="14.00" fill="#000000">Foo2Gate</text>
</g>
<!-- Bew&#45;&gt;Foo -->
<g id="edge6" class="edge">
<title>Bew&#45;&gt;Foo</title>
<path fill="none" stroke="#000000" d="M281.9147,-268.75C281.9147,-268.75 202.4534,-268.75 202.4534,-268.75"/>
<polygon fill="#000000" stroke="#000000" points="202.4535,-265.2501 192.4534,-268.75 202.4534,-272.2501 202.4535,-265.2501"/>
<text text-anchor="middle" x="237" y="-163.3" font-family="Times,serif" font-size="14.00" fill="#000000">Bew2Foo</text>
</g>
</g>
</svg>
