<?xml version="1.0" encoding="UTF-8" standalone="no"?>
<!DOCTYPE svg PUBLIC "-//W3C//DTD SVG 1.1//EN"
 "http://www.w3.org/Graphics/SVG/1.1/DTD/svg11.dtd">
<!-- Generated by graphviz version 2.40.1 (20161225.0304)
 -->
<!-- Title: F Pages: 1 -->
<svg width="1612pt" height="858pt"
 viewBox="0.00 0.00 1612.00 858.38" xmlns="http://www.w3.org/2000/svg" xmlns:xlink="http://www.w3.org/1999/xlink">
<g id="graph0" class="graph" transform="scale(1 1) rotate(0) translate(36 822.3811)">
<title>F</title>
<polygon fill="#ffffff" stroke="transparent" points="-36,36 -36,-822.3811 1576,-822.3811 1576,36 -36,36"/>
<!-- ecpri_rx -->
<g id="node1" class="node">
<title>ecpri_rx</title>
<polygon fill="none" stroke="#000000" points="277,-423 277,-676 477,-676 477,-423 277,-423"/>
<text text-anchor="middle" x="309" y="-630.3" font-family="Times,serif" font-size="14.00" fill="#000000">inp_data</text>
<polyline fill="none" stroke="#000000" points="277,-592 341,-592 "/>
<text text-anchor="middle" x="309" y="-546.3" font-family="Times,serif" font-size="14.00" fill="#000000">recv_pkt</text>
<polyline fill="none" stroke="#000000" points="277,-508 341,-508 "/>
<text text-anchor="middle" x="309" y="-461.8" font-family="Times,serif" font-size="14.00" fill="#000000">oe</text>
<polyline fill="none" stroke="#000000" points="341,-423 341,-676 "/>
<text text-anchor="middle" x="372" y="-545.8" font-family="Times,serif" font-size="14.00" fill="#000000">ecpri_rx</text>
<polyline fill="none" stroke="#000000" points="403,-423 403,-676 "/>
<text text-anchor="middle" x="440" y="-660.8" font-family="Times,serif" font-size="14.00" fill="#000000">we_0</text>
<polyline fill="none" stroke="#000000" points="403,-653 477,-653 "/>
<text text-anchor="middle" x="440" y="-637.8" font-family="Times,serif" font-size="14.00" fill="#000000">addr_0</text>
<polyline fill="none" stroke="#000000" points="403,-630 477,-630 "/>
<text text-anchor="middle" x="440" y="-614.8" font-family="Times,serif" font-size="14.00" fill="#000000">data_0</text>
<polyline fill="none" stroke="#000000" points="403,-607 477,-607 "/>
<text text-anchor="middle" x="440" y="-591.8" font-family="Times,serif" font-size="14.00" fill="#000000">we_1</text>
<polyline fill="none" stroke="#000000" points="403,-584 477,-584 "/>
<text text-anchor="middle" x="440" y="-568.8" font-family="Times,serif" font-size="14.00" fill="#000000">addr_1</text>
<polyline fill="none" stroke="#000000" points="403,-561 477,-561 "/>
<text text-anchor="middle" x="440" y="-545.8" font-family="Times,serif" font-size="14.00" fill="#000000">data_1</text>
<polyline fill="none" stroke="#000000" points="403,-538 477,-538 "/>
<text text-anchor="middle" x="440" y="-522.8" font-family="Times,serif" font-size="14.00" fill="#000000">we_2</text>
<polyline fill="none" stroke="#000000" points="403,-515 477,-515 "/>
<text text-anchor="middle" x="440" y="-499.8" font-family="Times,serif" font-size="14.00" fill="#000000">addr_2</text>
<polyline fill="none" stroke="#000000" points="403,-492 477,-492 "/>
<text text-anchor="middle" x="440" y="-476.8" font-family="Times,serif" font-size="14.00" fill="#000000">data_2</text>
<polyline fill="none" stroke="#000000" points="403,-469 477,-469 "/>
<text text-anchor="middle" x="440" y="-453.8" font-family="Times,serif" font-size="14.00" fill="#000000">read_resp</text>
<polyline fill="none" stroke="#000000" points="403,-446 477,-446 "/>
<text text-anchor="middle" x="440" y="-430.8" font-family="Times,serif" font-size="14.00" fill="#000000">write_resp</text>
</g>
<!-- ecpri_tx -->
<g id="node2" class="node">
<title>ecpri_tx</title>
<polygon fill="none" stroke="#000000" points="632.5,-.5 632.5,-230.5 833.5,-230.5 833.5,-.5 632.5,-.5"/>
<text text-anchor="middle" x="669.5" y="-215.3" font-family="Times,serif" font-size="14.00" fill="#000000">read_resp</text>
<polyline fill="none" stroke="#000000" points="632.5,-207.5 706.5,-207.5 "/>
<text text-anchor="middle" x="669.5" y="-192.3" font-family="Times,serif" font-size="14.00" fill="#000000">write_resp</text>
<polyline fill="none" stroke="#000000" points="632.5,-184.5 706.5,-184.5 "/>
<text text-anchor="middle" x="669.5" y="-169.3" font-family="Times,serif" font-size="14.00" fill="#000000">we_0</text>
<polyline fill="none" stroke="#000000" points="632.5,-161.5 706.5,-161.5 "/>
<text text-anchor="middle" x="669.5" y="-146.3" font-family="Times,serif" font-size="14.00" fill="#000000">addr_0</text>
<polyline fill="none" stroke="#000000" points="632.5,-138.5 706.5,-138.5 "/>
<text text-anchor="middle" x="669.5" y="-123.3" font-family="Times,serif" font-size="14.00" fill="#000000">data_0</text>
<polyline fill="none" stroke="#000000" points="632.5,-115.5 706.5,-115.5 "/>
<text text-anchor="middle" x="669.5" y="-100.3" font-family="Times,serif" font-size="14.00" fill="#000000">oe_0</text>
<polyline fill="none" stroke="#000000" points="632.5,-92.5 706.5,-92.5 "/>
<text text-anchor="middle" x="669.5" y="-77.3" font-family="Times,serif" font-size="14.00" fill="#000000">we_1</text>
<polyline fill="none" stroke="#000000" points="632.5,-69.5 706.5,-69.5 "/>
<text text-anchor="middle" x="669.5" y="-54.3" font-family="Times,serif" font-size="14.00" fill="#000000">addr_1</text>
<polyline fill="none" stroke="#000000" points="632.5,-46.5 706.5,-46.5 "/>
<text text-anchor="middle" x="669.5" y="-31.3" font-family="Times,serif" font-size="14.00" fill="#000000">data_1</text>
<polyline fill="none" stroke="#000000" points="632.5,-23.5 706.5,-23.5 "/>
<text text-anchor="middle" x="669.5" y="-8.3" font-family="Times,serif" font-size="14.00" fill="#000000">oe_1</text>
<polyline fill="none" stroke="#000000" points="706.5,-.5 706.5,-230.5 "/>
<text text-anchor="middle" x="737" y="-111.8" font-family="Times,serif" font-size="14.00" fill="#000000">ecpri_tx</text>
<polyline fill="none" stroke="#000000" points="767.5,-.5 767.5,-230.5 "/>
<text text-anchor="middle" x="800.5" y="-203.8" font-family="Times,serif" font-size="14.00" fill="#000000">we_2</text>
<polyline fill="none" stroke="#000000" points="767.5,-184.5 833.5,-184.5 "/>
<text text-anchor="middle" x="800.5" y="-157.8" font-family="Times,serif" font-size="14.00" fill="#000000">addr_2</text>
<polyline fill="none" stroke="#000000" points="767.5,-138.5 833.5,-138.5 "/>
<text text-anchor="middle" x="800.5" y="-111.8" font-family="Times,serif" font-size="14.00" fill="#000000">data_2</text>
<polyline fill="none" stroke="#000000" points="767.5,-92.5 833.5,-92.5 "/>
<text text-anchor="middle" x="800.5" y="-65.8" font-family="Times,serif" font-size="14.00" fill="#000000">oe_2</text>
<polyline fill="none" stroke="#000000" points="767.5,-46.5 833.5,-46.5 "/>
<text text-anchor="middle" x="800.5" y="-19.8" font-family="Times,serif" font-size="14.00" fill="#000000">ip_create</text>
</g>
<!-- ecpri_rx&#45;&gt;ecpri_tx -->
<g id="edge6" class="edge">
<title>ecpri_rx:read_resp&#45;&gt;ecpri_tx:read_resp</title>
<path fill="none" stroke="#000000" d="M477,-457.5C599.6575,-457.5 511.1087,-232.7896 621.8033,-220.0618"/>
<polygon fill="#000000" stroke="#000000" points="622.2077,-223.545 632,-219.5 621.8226,-216.5556 622.2077,-223.545"/>
</g>
<!-- ecpri_rx&#45;&gt;ecpri_tx -->
<g id="edge7" class="edge">
<title>ecpri_rx:write_resp&#45;&gt;ecpri_tx:write_resp</title>
<path fill="none" stroke="#000000" d="M477,-434.5C599.6575,-434.5 511.1087,-209.7896 621.8033,-197.0618"/>
<polygon fill="#000000" stroke="#000000" points="622.2077,-200.545 632,-196.5 621.8226,-193.5556 622.2077,-200.545"/>
</g>
<!-- fifo -->
<g id="node5" class="node">
<title>fifo</title>
<polygon fill="#ffff00" stroke="#000000" points="652,-303.5 652,-349.5 814,-349.5 814,-303.5 652,-303.5"/>
<text text-anchor="middle" x="683.5" y="-334.3" font-family="Times,serif" font-size="14.00" fill="#000000">inp_data</text>
<polyline fill="none" stroke="#000000" points="652,-326.5 715,-326.5 "/>
<text text-anchor="middle" x="683.5" y="-311.3" font-family="Times,serif" font-size="14.00" fill="#000000">we</text>
<polyline fill="none" stroke="#000000" points="715,-303.5 715,-349.5 "/>
<text text-anchor="middle" x="733" y="-322.8" font-family="Times,serif" font-size="14.00" fill="#000000">fifo</text>
<polyline fill="none" stroke="#000000" points="751,-303.5 751,-349.5 "/>
<text text-anchor="middle" x="782.5" y="-334.3" font-family="Times,serif" font-size="14.00" fill="#000000">out_data</text>
<polyline fill="none" stroke="#000000" points="751,-326.5 814,-326.5 "/>
<text text-anchor="middle" x="782.5" y="-311.3" font-family="Times,serif" font-size="14.00" fill="#000000">oe</text>
</g>
<!-- ecpri_rx&#45;&gt;fifo -->
<g id="edge4" class="edge">
<title>ecpri_rx:oe&#45;&gt;fifo:oe</title>
<path fill="none" stroke="#000000" d="M309,-422.5C309,-344.071 402.8875,-394.1604 477,-368.5 555.4031,-341.3541 570.3387,-318.1759 652,-303.5 705.6107,-293.8653 773.5682,-251.2991 782.1057,-293.5265"/>
<polygon fill="#000000" stroke="#000000" points="778.6208,-293.8526 783,-303.5 785.5928,-293.2273 778.6208,-293.8526"/>
</g>
<!-- ram_eth_packet_hdr -->
<g id="node6" class="node">
<title>ram_eth_packet_hdr</title>
<polygon fill="#ff0000" stroke="#000000" points="989,-304.5 989,-396.5 1225,-396.5 1225,-304.5 989,-304.5"/>
<text text-anchor="middle" x="1016" y="-381.3" font-family="Times,serif" font-size="14.00" fill="#000000">addr_0</text>
<polyline fill="none" stroke="#000000" points="989,-373.5 1043,-373.5 "/>
<text text-anchor="middle" x="1016" y="-358.3" font-family="Times,serif" font-size="14.00" fill="#000000">data_0</text>
<polyline fill="none" stroke="#000000" points="989,-350.5 1043,-350.5 "/>
<text text-anchor="middle" x="1016" y="-335.3" font-family="Times,serif" font-size="14.00" fill="#000000">we_0</text>
<polyline fill="none" stroke="#000000" points="989,-327.5 1043,-327.5 "/>
<text text-anchor="middle" x="1016" y="-312.3" font-family="Times,serif" font-size="14.00" fill="#000000">oe_0</text>
<polyline fill="none" stroke="#000000" points="1043,-304.5 1043,-396.5 "/>
<text text-anchor="middle" x="1107" y="-346.8" font-family="Times,serif" font-size="14.00" fill="#000000">ram_eth_packet_hdr</text>
<polyline fill="none" stroke="#000000" points="1171,-304.5 1171,-396.5 "/>
<text text-anchor="middle" x="1198" y="-381.3" font-family="Times,serif" font-size="14.00" fill="#000000">addr_1</text>
<polyline fill="none" stroke="#000000" points="1171,-373.5 1225,-373.5 "/>
<text text-anchor="middle" x="1198" y="-358.3" font-family="Times,serif" font-size="14.00" fill="#000000">data_1</text>
<polyline fill="none" stroke="#000000" points="1171,-350.5 1225,-350.5 "/>
<text text-anchor="middle" x="1198" y="-335.3" font-family="Times,serif" font-size="14.00" fill="#000000">we_1</text>
<polyline fill="none" stroke="#000000" points="1171,-327.5 1225,-327.5 "/>
<text text-anchor="middle" x="1198" y="-312.3" font-family="Times,serif" font-size="14.00" fill="#000000">oe_1</text>
</g>
<!-- ecpri_rx&#45;&gt;ram_eth_packet_hdr -->
<g id="edge8" class="edge">
<title>ecpri_rx:we_0&#45;&gt;ram_eth_packet_hdr:we_0</title>
<path fill="none" stroke="#000000" d="M477,-664.5C640.6914,-664.5 708.5839,-769.9739 845,-679.5 979.1566,-590.5246 831.1219,-349.1718 978.8365,-338.8422"/>
<polygon fill="#000000" stroke="#000000" points="979.1235,-342.3346 989,-338.5 978.8878,-335.3386 979.1235,-342.3346"/>
</g>
<!-- ecpri_rx&#45;&gt;ram_eth_packet_hdr -->
<g id="edge9" class="edge">
<title>ecpri_rx:addr_0&#45;&gt;ram_eth_packet_hdr:addr_0</title>
<path fill="none" stroke="#000000" d="M477,-641.5C557.807,-641.5 544.51,-726.4412 621,-752.5 715.2368,-784.6049 762.7458,-808.5852 845,-752.5 986.7985,-655.8144 820.8656,-396.4328 978.6573,-385.8347"/>
<polygon fill="#000000" stroke="#000000" points="979.1185,-389.3217 989,-385.5 978.892,-382.3254 979.1185,-389.3217"/>
</g>
<!-- ecpri_rx&#45;&gt;ram_eth_packet_hdr -->
<g id="edge10" class="edge">
<title>ecpri_rx:data_0&#45;&gt;ram_eth_packet_hdr:data_0</title>
<path fill="none" stroke="#000000" d="M477,-618.5C643.2442,-618.5 703.2646,-638.3804 845,-551.5 932.0449,-498.1435 886.6698,-371.2992 978.9901,-362.9348"/>
<polygon fill="#000000" stroke="#000000" points="979.1613,-366.4307 989,-362.5 978.8575,-359.4373 979.1613,-366.4307"/>
</g>
<!-- ram_cpri_payload -->
<g id="node8" class="node">
<title>ram_cpri_payload</title>
<polygon fill="#ff0000" stroke="#000000" points="621,-422.5 621,-514.5 845,-514.5 845,-422.5 621,-422.5"/>
<text text-anchor="middle" x="648" y="-499.3" font-family="Times,serif" font-size="14.00" fill="#000000">addr_0</text>
<polyline fill="none" stroke="#000000" points="621,-491.5 675,-491.5 "/>
<text text-anchor="middle" x="648" y="-476.3" font-family="Times,serif" font-size="14.00" fill="#000000">data_0</text>
<polyline fill="none" stroke="#000000" points="621,-468.5 675,-468.5 "/>
<text text-anchor="middle" x="648" y="-453.3" font-family="Times,serif" font-size="14.00" fill="#000000">we_0</text>
<polyline fill="none" stroke="#000000" points="621,-445.5 675,-445.5 "/>
<text text-anchor="middle" x="648" y="-430.3" font-family="Times,serif" font-size="14.00" fill="#000000">oe_0</text>
<polyline fill="none" stroke="#000000" points="675,-422.5 675,-514.5 "/>
<text text-anchor="middle" x="733" y="-464.8" font-family="Times,serif" font-size="14.00" fill="#000000">ram_cpri_payload</text>
<polyline fill="none" stroke="#000000" points="791,-422.5 791,-514.5 "/>
<text text-anchor="middle" x="818" y="-499.3" font-family="Times,serif" font-size="14.00" fill="#000000">addr_1</text>
<polyline fill="none" stroke="#000000" points="791,-491.5 845,-491.5 "/>
<text text-anchor="middle" x="818" y="-476.3" font-family="Times,serif" font-size="14.00" fill="#000000">data_1</text>
<polyline fill="none" stroke="#000000" points="791,-468.5 845,-468.5 "/>
<text text-anchor="middle" x="818" y="-453.3" font-family="Times,serif" font-size="14.00" fill="#000000">we_1</text>
<polyline fill="none" stroke="#000000" points="791,-445.5 845,-445.5 "/>
<text text-anchor="middle" x="818" y="-430.3" font-family="Times,serif" font-size="14.00" fill="#000000">oe_1</text>
</g>
<!-- ecpri_rx&#45;&gt;ram_cpri_payload -->
<g id="edge11" class="edge">
<title>ecpri_rx:we_2&#45;&gt;ram_cpri_payload:we_0</title>
<path fill="none" stroke="#000000" d="M477,-526.5C544.5474,-526.5 549.4893,-463.4289 610.6784,-457.0232"/>
<polygon fill="#000000" stroke="#000000" points="611.19,-460.5019 621,-456.5 610.8356,-453.5108 611.19,-460.5019"/>
</g>
<!-- ecpri_rx&#45;&gt;ram_cpri_payload -->
<g id="edge12" class="edge">
<title>ecpri_rx:addr_2&#45;&gt;ram_cpri_payload:addr_0</title>
<path fill="none" stroke="#000000" d="M477,-503.5C537.5,-503.5 555.1064,-503.5 610.915,-503.5"/>
<polygon fill="#000000" stroke="#000000" points="611,-507.0001 621,-503.5 611,-500.0001 611,-507.0001"/>
</g>
<!-- ecpri_rx&#45;&gt;ram_cpri_payload -->
<g id="edge13" class="edge">
<title>ecpri_rx:data_2&#45;&gt;ram_cpri_payload:data_0</title>
<path fill="none" stroke="#000000" d="M477,-480.5C537.5,-480.5 555.1064,-480.5 610.915,-480.5"/>
<polygon fill="#000000" stroke="#000000" points="611,-484.0001 621,-480.5 611,-477.0001 611,-484.0001"/>
</g>
<!-- ip_pkt -->
<g id="node3" class="node">
<title>ip_pkt</title>
<polygon fill="none" stroke="#000000" points="1369,-212 1369,-419 1540,-419 1540,-212 1369,-212"/>
<text text-anchor="middle" x="1402" y="-403.8" font-family="Times,serif" font-size="14.00" fill="#000000">ip_create</text>
<polyline fill="none" stroke="#000000" points="1369,-396 1435,-396 "/>
<text text-anchor="middle" x="1402" y="-380.8" font-family="Times,serif" font-size="14.00" fill="#000000">we_1</text>
<polyline fill="none" stroke="#000000" points="1369,-373 1435,-373 "/>
<text text-anchor="middle" x="1402" y="-357.8" font-family="Times,serif" font-size="14.00" fill="#000000">addr_1</text>
<polyline fill="none" stroke="#000000" points="1369,-350 1435,-350 "/>
<text text-anchor="middle" x="1402" y="-334.8" font-family="Times,serif" font-size="14.00" fill="#000000">data_1</text>
<polyline fill="none" stroke="#000000" points="1369,-327 1435,-327 "/>
<text text-anchor="middle" x="1402" y="-311.8" font-family="Times,serif" font-size="14.00" fill="#000000">oe_1</text>
<polyline fill="none" stroke="#000000" points="1369,-304 1435,-304 "/>
<text text-anchor="middle" x="1402" y="-288.8" font-family="Times,serif" font-size="14.00" fill="#000000">we_2</text>
<polyline fill="none" stroke="#000000" points="1369,-281 1435,-281 "/>
<text text-anchor="middle" x="1402" y="-265.8" font-family="Times,serif" font-size="14.00" fill="#000000">addr_2</text>
<polyline fill="none" stroke="#000000" points="1369,-258 1435,-258 "/>
<text text-anchor="middle" x="1402" y="-242.8" font-family="Times,serif" font-size="14.00" fill="#000000">data_2</text>
<polyline fill="none" stroke="#000000" points="1369,-235 1435,-235 "/>
<text text-anchor="middle" x="1402" y="-219.8" font-family="Times,serif" font-size="14.00" fill="#000000">oe_2</text>
<polyline fill="none" stroke="#000000" points="1435,-212 1435,-419 "/>
<text text-anchor="middle" x="1460.5" y="-311.8" font-family="Times,serif" font-size="14.00" fill="#000000">ip_pkt</text>
<polyline fill="none" stroke="#000000" points="1486,-212 1486,-419 "/>
<text text-anchor="middle" x="1513" y="-389.8" font-family="Times,serif" font-size="14.00" fill="#000000">we_0</text>
<polyline fill="none" stroke="#000000" points="1486,-368 1540,-368 "/>
<text text-anchor="middle" x="1513" y="-338.3" font-family="Times,serif" font-size="14.00" fill="#000000">addr_0</text>
<polyline fill="none" stroke="#000000" points="1486,-316 1540,-316 "/>
<text text-anchor="middle" x="1513" y="-286.3" font-family="Times,serif" font-size="14.00" fill="#000000">data_0</text>
<polyline fill="none" stroke="#000000" points="1486,-264 1540,-264 "/>
<text text-anchor="middle" x="1513" y="-234.3" font-family="Times,serif" font-size="14.00" fill="#000000">oe_0</text>
</g>
<!-- ecpri_tx&#45;&gt;ip_pkt -->
<g id="edge23" class="edge">
<title>ecpri_tx:ip_create&#45;&gt;ip_pkt:ip_create</title>
<path fill="none" stroke="#000000" d="M834,-23.5C1028.8092,-23.5 828.7333,-322.7516 989,-433.5 1125.4112,-527.7637 1196.7572,-412.4218 1358.7071,-407.6513"/>
<polygon fill="#000000" stroke="#000000" points="1359.0526,-411.1467 1369,-407.5 1358.9496,-404.1474 1359.0526,-411.1467"/>
</g>
<!-- ram_cpri_packet -->
<g id="node7" class="node">
<title>ram_cpri_packet</title>
<polygon fill="#ff0000" stroke="#000000" points="999,-139.5 999,-231.5 1215,-231.5 1215,-139.5 999,-139.5"/>
<text text-anchor="middle" x="1026" y="-216.3" font-family="Times,serif" font-size="14.00" fill="#000000">addr_0</text>
<polyline fill="none" stroke="#000000" points="999,-208.5 1053,-208.5 "/>
<text text-anchor="middle" x="1026" y="-193.3" font-family="Times,serif" font-size="14.00" fill="#000000">data_0</text>
<polyline fill="none" stroke="#000000" points="999,-185.5 1053,-185.5 "/>
<text text-anchor="middle" x="1026" y="-170.3" font-family="Times,serif" font-size="14.00" fill="#000000">we_0</text>
<polyline fill="none" stroke="#000000" points="999,-162.5 1053,-162.5 "/>
<text text-anchor="middle" x="1026" y="-147.3" font-family="Times,serif" font-size="14.00" fill="#000000">oe_0</text>
<polyline fill="none" stroke="#000000" points="1053,-139.5 1053,-231.5 "/>
<text text-anchor="middle" x="1107" y="-181.8" font-family="Times,serif" font-size="14.00" fill="#000000">ram_cpri_packet</text>
<polyline fill="none" stroke="#000000" points="1161,-139.5 1161,-231.5 "/>
<text text-anchor="middle" x="1188" y="-216.3" font-family="Times,serif" font-size="14.00" fill="#000000">addr_1</text>
<polyline fill="none" stroke="#000000" points="1161,-208.5 1215,-208.5 "/>
<text text-anchor="middle" x="1188" y="-193.3" font-family="Times,serif" font-size="14.00" fill="#000000">data_1</text>
<polyline fill="none" stroke="#000000" points="1161,-185.5 1215,-185.5 "/>
<text text-anchor="middle" x="1188" y="-170.3" font-family="Times,serif" font-size="14.00" fill="#000000">we_1</text>
<polyline fill="none" stroke="#000000" points="1161,-162.5 1215,-162.5 "/>
<text text-anchor="middle" x="1188" y="-147.3" font-family="Times,serif" font-size="14.00" fill="#000000">oe_1</text>
</g>
<!-- ecpri_tx&#45;&gt;ram_cpri_packet -->
<g id="edge20" class="edge">
<title>ecpri_tx:we_0&#45;&gt;ram_cpri_packet:we_0</title>
<path fill="none" stroke="#000000" d="M632,-173.5C632,-173.5 833.5,-231 833.5,-231 906.8335,-218.6236 920.0237,-177.438 988.8997,-173.7628"/>
<polygon fill="#000000" stroke="#000000" points="989.0944,-177.259 999,-173.5 988.9123,-170.2613 989.0944,-177.259"/>
</g>
<!-- ecpri_tx&#45;&gt;ram_cpri_packet -->
<g id="edge21" class="edge">
<title>ecpri_tx:addr_0&#45;&gt;ram_cpri_packet:addr_0</title>
<path fill="none" stroke="#000000" d="M632,-150.5C596.2222,-150.5 606.7013,-205.7013 632,-231 687.4385,-286.4385 899.88,-225.6354 988.7887,-220.8006"/>
<polygon fill="#000000" stroke="#000000" points="989.1073,-224.2928 999,-220.5 988.9013,-217.2959 989.1073,-224.2928"/>
</g>
<!-- ecpri_tx&#45;&gt;ram_cpri_packet -->
<g id="edge22" class="edge">
<title>ecpri_tx:data_0&#45;&gt;ram_cpri_packet:data_0</title>
<path fill="none" stroke="#000000" d="M632,-127.5C586,-127.5 599.4731,-198.4731 632,-231 695.3253,-294.3253 744.3906,-239.9281 833.5,-231 904.6731,-223.869 922.344,-199.8985 988.825,-197.6669"/>
<polygon fill="#000000" stroke="#000000" points="989.0588,-201.1637 999,-197.5 988.9439,-194.1646 989.0588,-201.1637"/>
</g>
<!-- ecpri_tx&#45;&gt;ram_cpri_payload -->
<g id="edge17" class="edge">
<title>ecpri_tx:oe_1&#45;&gt;ram_cpri_payload:oe_1</title>
<path fill="none" stroke="#000000" d="M632,-11.5C476.8832,-11.5 467.4503,-218.5497 549,-350.5 567.8091,-380.9338 587.0639,-375.1711 621,-386.5 659.75,-399.4359 793.3627,-381.4573 815.0228,-412.8454"/>
<polygon fill="#000000" stroke="#000000" points="811.7086,-413.9754 818,-422.5 818.3978,-411.9126 811.7086,-413.9754"/>
</g>
<!-- ecpri_tx&#45;&gt;ram_cpri_payload -->
<g id="edge18" class="edge">
<title>ecpri_tx:addr_1&#45;&gt;ram_cpri_payload:addr_1</title>
<path fill="none" stroke="#000000" d="M632,-57.5C497.0813,-57.5 478.069,-234.7313 549,-349.5 567.8091,-379.9338 586.909,-374.6461 621,-385.5 668.9911,-400.7794 812.2092,-381.7722 845,-420 866.6135,-445.1972 879.2549,-492.1306 855.1172,-501.7503"/>
<polygon fill="#000000" stroke="#000000" points="854.2573,-498.347 845,-503.5 855.4502,-505.2446 854.2573,-498.347"/>
</g>
<!-- ip_pkt&#45;&gt;ram_eth_packet_hdr -->
<g id="edge14" class="edge">
<title>ip_pkt:oe_1&#45;&gt;ram_eth_packet_hdr:oe_1</title>
<path fill="none" stroke="#000000" d="M1369,-315.5C1308.5,-315.5 1290.8936,-315.5 1235.085,-315.5"/>
<polygon fill="#000000" stroke="#000000" points="1235,-312.0001 1225,-315.5 1235,-319.0001 1235,-312.0001"/>
</g>
<!-- ip_pkt&#45;&gt;ram_eth_packet_hdr -->
<g id="edge15" class="edge">
<title>ip_pkt:addr_1&#45;&gt;ram_eth_packet_hdr:addr_1</title>
<path fill="none" stroke="#000000" d="M1369,-361.5C1307.6655,-361.5 1291.5912,-382.9468 1235.207,-385.2925"/>
<polygon fill="#000000" stroke="#000000" points="1234.9268,-381.7974 1225,-385.5 1235.0691,-388.7959 1234.9268,-381.7974"/>
</g>
<!-- ip_pkt&#45;&gt;ram_cpri_packet -->
<g id="edge24" class="edge">
<title>ip_pkt:oe_2&#45;&gt;ram_cpri_packet:oe_1</title>
<path fill="none" stroke="#000000" d="M1369,-223.5C1296.8057,-223.5 1291.1411,-157.1833 1225.184,-150.9662"/>
<polygon fill="#000000" stroke="#000000" points="1225.1496,-147.461 1215,-150.5 1224.8295,-154.4537 1225.1496,-147.461"/>
</g>
<!-- ip_pkt&#45;&gt;ram_cpri_packet -->
<g id="edge25" class="edge">
<title>ip_pkt:addr_2&#45;&gt;ram_cpri_packet:addr_1</title>
<path fill="none" stroke="#000000" d="M1369,-269.5C1300.6815,-269.5 1287.9828,-225.1683 1225.0959,-220.8391"/>
<polygon fill="#000000" stroke="#000000" points="1225.1119,-217.3377 1215,-220.5 1224.8769,-224.3338 1225.1119,-217.3377"/>
</g>
<!-- ip_switch -->
<g id="node4" class="node">
<title>ip_switch</title>
<polygon fill="none" stroke="#000000" points="0,-302 0,-371 133,-371 133,-302 0,-302"/>
<text text-anchor="middle" x="34.5" y="-332.8" font-family="Times,serif" font-size="14.00" fill="#000000">ip_switch</text>
<polyline fill="none" stroke="#000000" points="69,-302 69,-371 "/>
<text text-anchor="middle" x="101" y="-355.8" font-family="Times,serif" font-size="14.00" fill="#000000">recv_pkt</text>
<polyline fill="none" stroke="#000000" points="69,-348 133,-348 "/>
<text text-anchor="middle" x="101" y="-332.8" font-family="Times,serif" font-size="14.00" fill="#000000">we</text>
<polyline fill="none" stroke="#000000" points="69,-325 133,-325 "/>
<text text-anchor="middle" x="101" y="-309.8" font-family="Times,serif" font-size="14.00" fill="#000000">out_data</text>
</g>
<!-- ip_switch&#45;&gt;ecpri_rx -->
<g id="edge5" class="edge">
<title>ip_switch:recv_pkt&#45;&gt;ecpri_rx:recv_pkt</title>
<path fill="none" stroke="#000000" d="M133,-359.5C235.7816,-359.5 175.0527,-538.027 266.9761,-549.8823"/>
<polygon fill="#000000" stroke="#000000" points="266.8036,-553.3782 277,-550.5 267.2342,-546.3915 266.8036,-553.3782"/>
</g>
<!-- ip_switch&#45;&gt;fifo -->
<g id="edge1" class="edge">
<title>ip_switch:out_data&#45;&gt;fifo:inp_data</title>
<path fill="none" stroke="#000000" d="M133,-313.5C360.5513,-313.5 419.3548,-337.7729 641.9623,-338.4841"/>
<polygon fill="#000000" stroke="#000000" points="641.9944,-341.984 652,-338.5 642.0056,-334.984 641.9944,-341.984"/>
</g>
<!-- ip_switch&#45;&gt;fifo -->
<g id="edge2" class="edge">
<title>ip_switch:we&#45;&gt;fifo:we</title>
<path fill="none" stroke="#000000" d="M133,-336.5C199.0789,-336.5 211.4429,-307.7877 277,-299.5 365.187,-288.3515 388.1923,-295.7009 477,-299.5 551.4881,-302.6865 572.1158,-313.4689 641.827,-314.4312"/>
<polygon fill="#000000" stroke="#000000" points="641.9765,-317.9322 652,-314.5 642.0239,-310.9324 641.9765,-317.9322"/>
</g>
<!-- fifo&#45;&gt;ecpri_rx -->
<g id="edge3" class="edge">
<title>fifo:out_data&#45;&gt;ecpri_rx:inp_data</title>
<path fill="none" stroke="#000000" d="M783,-349.5C783,-423.354 679.0153,-340.7984 621,-386.5 507.9576,-475.5492 599.3074,-600.6762 477,-676.5 416.6377,-713.9213 319.111,-747.7074 309.7308,-686.6631"/>
<polygon fill="#000000" stroke="#000000" points="313.2083,-686.2232 309,-676.5 306.2263,-686.7253 313.2083,-686.2232"/>
</g>
<!-- ram_eth_packet_hdr&#45;&gt;ip_pkt -->
<g id="edge16" class="edge">
<title>ram_eth_packet_hdr:data_1&#45;&gt;ip_pkt:data_1</title>
<path fill="none" stroke="#000000" d="M1225,-362.5C1286.3345,-362.5 1302.4088,-341.0532 1358.793,-338.7075"/>
<polygon fill="#000000" stroke="#000000" points="1359.0732,-342.2026 1369,-338.5 1358.9309,-335.2041 1359.0732,-342.2026"/>
</g>
<!-- ram_cpri_packet&#45;&gt;ip_pkt -->
<g id="edge26" class="edge">
<title>ram_cpri_packet:data_1&#45;&gt;ip_pkt:data_2</title>
<path fill="none" stroke="#000000" d="M1215,-197.5C1283.3185,-197.5 1296.0172,-241.8317 1358.9041,-246.1609"/>
<polygon fill="#000000" stroke="#000000" points="1358.8881,-249.6623 1369,-246.5 1359.1231,-242.6662 1358.8881,-249.6623"/>
</g>
<!-- ram_cpri_payload&#45;&gt;ecpri_tx -->
<g id="edge19" class="edge">
<title>ram_cpri_payload:data_1&#45;&gt;ecpri_tx:data_1</title>
<path fill="none" stroke="#000000" d="M845,-480.5C871.8889,-480.5 862.5065,-440.4092 845,-420 812.2092,-381.7722 668.9911,-400.7794 621,-385.5 586.909,-374.6461 567.8091,-379.9338 549,-349.5 474.7437,-229.3509 486.5755,-43.8264 621.6288,-34.8393"/>
<polygon fill="#000000" stroke="#000000" points="622.1198,-38.3252 632,-34.5 621.8909,-31.3289 622.1198,-38.3252"/>
</g>
</g>
</svg>
