<?xml version="1.0" encoding="UTF-8" standalone="no"?>
<!DOCTYPE svg PUBLIC "-//W3C//DTD SVG 1.1//EN"
 "http://www.w3.org/Graphics/SVG/1.1/DTD/svg11.dtd">
<!-- Generated by graphviz version 2.40.1 (20161225.0304)
 -->
<!-- Title: F Pages: 1 -->
<svg width="1624pt" height="1431pt"
 viewBox="0.00 0.00 1624.00 1430.53" xmlns="http://www.w3.org/2000/svg" xmlns:xlink="http://www.w3.org/1999/xlink">
<g id="graph0" class="graph" transform="scale(1 1) rotate(0) translate(36 1394.533)">
<title>F</title>
<polygon fill="#ffffff" stroke="transparent" points="-36,36 -36,-1394.533 1588,-1394.533 1588,36 -36,36"/>
<!-- ecpri_rx -->
<g id="node1" class="node">
<title>ecpri_rx</title>
<polygon fill="none" stroke="#000000" points="277,-484.4251 277,-806.4251 477,-806.4251 477,-484.4251 277,-484.4251"/>
<text text-anchor="middle" x="309" y="-749.2251" font-family="Times,serif" font-size="14.00" fill="#000000">inp_data</text>
<polyline fill="none" stroke="#000000" points="277,-699.4251 341,-699.4251 "/>
<text text-anchor="middle" x="309" y="-642.2251" font-family="Times,serif" font-size="14.00" fill="#000000">recv_pkt</text>
<polyline fill="none" stroke="#000000" points="277,-592.4251 341,-592.4251 "/>
<text text-anchor="middle" x="309" y="-534.7251" font-family="Times,serif" font-size="14.00" fill="#000000">oe</text>
<polyline fill="none" stroke="#000000" points="341,-484.4251 341,-806.4251 "/>
<text text-anchor="middle" x="372" y="-641.7251" font-family="Times,serif" font-size="14.00" fill="#000000">ecpri_rx</text>
<polyline fill="none" stroke="#000000" points="403,-484.4251 403,-806.4251 "/>
<text text-anchor="middle" x="440" y="-791.2251" font-family="Times,serif" font-size="14.00" fill="#000000">we_0</text>
<polyline fill="none" stroke="#000000" points="403,-783.4251 477,-783.4251 "/>
<text text-anchor="middle" x="440" y="-768.2251" font-family="Times,serif" font-size="14.00" fill="#000000">addr_0</text>
<polyline fill="none" stroke="#000000" points="403,-760.4251 477,-760.4251 "/>
<text text-anchor="middle" x="440" y="-745.2251" font-family="Times,serif" font-size="14.00" fill="#000000">data_0</text>
<polyline fill="none" stroke="#000000" points="403,-737.4251 477,-737.4251 "/>
<text text-anchor="middle" x="440" y="-722.2251" font-family="Times,serif" font-size="14.00" fill="#000000">oe_0</text>
<polyline fill="none" stroke="#000000" points="403,-714.4251 477,-714.4251 "/>
<text text-anchor="middle" x="440" y="-699.2251" font-family="Times,serif" font-size="14.00" fill="#000000">we_1</text>
<polyline fill="none" stroke="#000000" points="403,-691.4251 477,-691.4251 "/>
<text text-anchor="middle" x="440" y="-676.2251" font-family="Times,serif" font-size="14.00" fill="#000000">addr_1</text>
<polyline fill="none" stroke="#000000" points="403,-668.4251 477,-668.4251 "/>
<text text-anchor="middle" x="440" y="-653.2251" font-family="Times,serif" font-size="14.00" fill="#000000">data_1</text>
<polyline fill="none" stroke="#000000" points="403,-645.4251 477,-645.4251 "/>
<text text-anchor="middle" x="440" y="-630.2251" font-family="Times,serif" font-size="14.00" fill="#000000">oe_1</text>
<polyline fill="none" stroke="#000000" points="403,-622.4251 477,-622.4251 "/>
<text text-anchor="middle" x="440" y="-607.2251" font-family="Times,serif" font-size="14.00" fill="#000000">we_2</text>
<polyline fill="none" stroke="#000000" points="403,-599.4251 477,-599.4251 "/>
<text text-anchor="middle" x="440" y="-584.2251" font-family="Times,serif" font-size="14.00" fill="#000000">addr_2</text>
<polyline fill="none" stroke="#000000" points="403,-576.4251 477,-576.4251 "/>
<text text-anchor="middle" x="440" y="-561.2251" font-family="Times,serif" font-size="14.00" fill="#000000">data_2</text>
<polyline fill="none" stroke="#000000" points="403,-553.4251 477,-553.4251 "/>
<text text-anchor="middle" x="440" y="-538.2251" font-family="Times,serif" font-size="14.00" fill="#000000">oe_2</text>
<polyline fill="none" stroke="#000000" points="403,-530.4251 477,-530.4251 "/>
<text text-anchor="middle" x="440" y="-515.2251" font-family="Times,serif" font-size="14.00" fill="#000000">read_resp</text>
<polyline fill="none" stroke="#000000" points="403,-507.4251 477,-507.4251 "/>
<text text-anchor="middle" x="440" y="-492.2251" font-family="Times,serif" font-size="14.00" fill="#000000">write_resp</text>
</g>
<!-- ecpri_tx -->
<g id="node2" class="node">
<title>ecpri_tx</title>
<polygon fill="none" stroke="#000000" points="638.5,-774.4251 638.5,-1004.4251 839.5,-1004.4251 839.5,-774.4251 638.5,-774.4251"/>
<text text-anchor="middle" x="675.5" y="-989.2251" font-family="Times,serif" font-size="14.00" fill="#000000">read_resp</text>
<polyline fill="none" stroke="#000000" points="638.5,-981.4251 712.5,-981.4251 "/>
<text text-anchor="middle" x="675.5" y="-966.2251" font-family="Times,serif" font-size="14.00" fill="#000000">write_resp</text>
<polyline fill="none" stroke="#000000" points="638.5,-958.4251 712.5,-958.4251 "/>
<text text-anchor="middle" x="675.5" y="-943.2251" font-family="Times,serif" font-size="14.00" fill="#000000">we_0</text>
<polyline fill="none" stroke="#000000" points="638.5,-935.4251 712.5,-935.4251 "/>
<text text-anchor="middle" x="675.5" y="-920.2251" font-family="Times,serif" font-size="14.00" fill="#000000">addr_0</text>
<polyline fill="none" stroke="#000000" points="638.5,-912.4251 712.5,-912.4251 "/>
<text text-anchor="middle" x="675.5" y="-897.2251" font-family="Times,serif" font-size="14.00" fill="#000000">data_0</text>
<polyline fill="none" stroke="#000000" points="638.5,-889.4251 712.5,-889.4251 "/>
<text text-anchor="middle" x="675.5" y="-874.2251" font-family="Times,serif" font-size="14.00" fill="#000000">oe_0</text>
<polyline fill="none" stroke="#000000" points="638.5,-866.4251 712.5,-866.4251 "/>
<text text-anchor="middle" x="675.5" y="-851.2251" font-family="Times,serif" font-size="14.00" fill="#000000">we_1</text>
<polyline fill="none" stroke="#000000" points="638.5,-843.4251 712.5,-843.4251 "/>
<text text-anchor="middle" x="675.5" y="-828.2251" font-family="Times,serif" font-size="14.00" fill="#000000">addr_1</text>
<polyline fill="none" stroke="#000000" points="638.5,-820.4251 712.5,-820.4251 "/>
<text text-anchor="middle" x="675.5" y="-805.2251" font-family="Times,serif" font-size="14.00" fill="#000000">data_1</text>
<polyline fill="none" stroke="#000000" points="638.5,-797.4251 712.5,-797.4251 "/>
<text text-anchor="middle" x="675.5" y="-782.2251" font-family="Times,serif" font-size="14.00" fill="#000000">oe_1</text>
<polyline fill="none" stroke="#000000" points="712.5,-774.4251 712.5,-1004.4251 "/>
<text text-anchor="middle" x="743" y="-885.7251" font-family="Times,serif" font-size="14.00" fill="#000000">ecpri_tx</text>
<polyline fill="none" stroke="#000000" points="773.5,-774.4251 773.5,-1004.4251 "/>
<text text-anchor="middle" x="806.5" y="-977.7251" font-family="Times,serif" font-size="14.00" fill="#000000">we_2</text>
<polyline fill="none" stroke="#000000" points="773.5,-958.4251 839.5,-958.4251 "/>
<text text-anchor="middle" x="806.5" y="-931.7251" font-family="Times,serif" font-size="14.00" fill="#000000">addr_2</text>
<polyline fill="none" stroke="#000000" points="773.5,-912.4251 839.5,-912.4251 "/>
<text text-anchor="middle" x="806.5" y="-885.7251" font-family="Times,serif" font-size="14.00" fill="#000000">data_2</text>
<polyline fill="none" stroke="#000000" points="773.5,-866.4251 839.5,-866.4251 "/>
<text text-anchor="middle" x="806.5" y="-839.7251" font-family="Times,serif" font-size="14.00" fill="#000000">oe_2</text>
<polyline fill="none" stroke="#000000" points="773.5,-820.4251 839.5,-820.4251 "/>
<text text-anchor="middle" x="806.5" y="-793.7251" font-family="Times,serif" font-size="14.00" fill="#000000">ip_create</text>
</g>
<!-- ecpri_rx&#45;&gt;ecpri_tx -->
<g id="edge9" class="edge">
<title>ecpri_rx:read_resp&#45;&gt;ecpri_tx:read_resp</title>
<path fill="none" stroke="#ffa500" d="M477,-518.4251C696.4253,-518.4251 423.8683,-978.6973 627.9192,-993.0808"/>
<polygon fill="#ffa500" stroke="#ffa500" points="627.8863,-996.5816 638,-993.4251 628.1253,-989.5857 627.8863,-996.5816"/>
</g>
<!-- ecpri_rx&#45;&gt;ecpri_tx -->
<g id="edge10" class="edge">
<title>ecpri_rx:write_resp&#45;&gt;ecpri_tx:write_resp</title>
<path fill="none" stroke="#a52a2a" d="M477,-495.4251C696.4253,-495.4251 423.8683,-955.6973 627.9192,-970.0808"/>
<polygon fill="#a52a2a" stroke="#a52a2a" points="627.8863,-973.5816 638,-970.4251 628.1253,-966.5857 627.8863,-973.5816"/>
</g>
<!-- fifo -->
<g id="node5" class="node">
<title>fifo</title>
<polygon fill="#ffff00" stroke="#000000" points="658,-216.4251 658,-262.4251 820,-262.4251 820,-216.4251 658,-216.4251"/>
<text text-anchor="middle" x="689.5" y="-247.2251" font-family="Times,serif" font-size="14.00" fill="#000000">inp_data</text>
<polyline fill="none" stroke="#000000" points="658,-239.4251 721,-239.4251 "/>
<text text-anchor="middle" x="689.5" y="-224.2251" font-family="Times,serif" font-size="14.00" fill="#000000">we</text>
<polyline fill="none" stroke="#000000" points="721,-216.4251 721,-262.4251 "/>
<text text-anchor="middle" x="739" y="-235.7251" font-family="Times,serif" font-size="14.00" fill="#000000">fifo</text>
<polyline fill="none" stroke="#000000" points="757,-216.4251 757,-262.4251 "/>
<text text-anchor="middle" x="788.5" y="-247.2251" font-family="Times,serif" font-size="14.00" fill="#000000">out_data</text>
<polyline fill="none" stroke="#000000" points="757,-239.4251 820,-239.4251 "/>
<text text-anchor="middle" x="788.5" y="-224.2251" font-family="Times,serif" font-size="14.00" fill="#000000">oe</text>
</g>
<!-- ecpri_rx&#45;&gt;fifo -->
<g id="edge7" class="edge">
<title>ecpri_rx:oe&#45;&gt;fifo:oe</title>
<path fill="none" stroke="#000000" d="M309,-484.4251C309,-405.8589 411.7779,-473.2283 477,-429.4251 580.1301,-360.1627 545.2465,-268.5762 658,-216.4251 707.4377,-193.559 779.0303,-162.5186 788.0537,-206.2867"/>
<polygon fill="#000000" stroke="#000000" points="784.5857,-206.7937 789,-216.4251 791.5554,-206.143 784.5857,-206.7937"/>
</g>
<!-- ram_eth_packet_hdr -->
<g id="node6" class="node">
<title>ram_eth_packet_hdr</title>
<polygon fill="#ff0000" stroke="#000000" points="1001,-1056.4251 1001,-1148.4251 1237,-1148.4251 1237,-1056.4251 1001,-1056.4251"/>
<text text-anchor="middle" x="1028" y="-1133.2251" font-family="Times,serif" font-size="14.00" fill="#000000">addr_0</text>
<polyline fill="none" stroke="#000000" points="1001,-1125.4251 1055,-1125.4251 "/>
<text text-anchor="middle" x="1028" y="-1110.2251" font-family="Times,serif" font-size="14.00" fill="#000000">data_0</text>
<polyline fill="none" stroke="#000000" points="1001,-1102.4251 1055,-1102.4251 "/>
<text text-anchor="middle" x="1028" y="-1087.2251" font-family="Times,serif" font-size="14.00" fill="#000000">we_0</text>
<polyline fill="none" stroke="#000000" points="1001,-1079.4251 1055,-1079.4251 "/>
<text text-anchor="middle" x="1028" y="-1064.2251" font-family="Times,serif" font-size="14.00" fill="#000000">oe_0</text>
<polyline fill="none" stroke="#000000" points="1055,-1056.4251 1055,-1148.4251 "/>
<text text-anchor="middle" x="1119" y="-1098.7251" font-family="Times,serif" font-size="14.00" fill="#000000">ram_eth_packet_hdr</text>
<polyline fill="none" stroke="#000000" points="1183,-1056.4251 1183,-1148.4251 "/>
<text text-anchor="middle" x="1210" y="-1133.2251" font-family="Times,serif" font-size="14.00" fill="#000000">addr_1</text>
<polyline fill="none" stroke="#000000" points="1183,-1125.4251 1237,-1125.4251 "/>
<text text-anchor="middle" x="1210" y="-1110.2251" font-family="Times,serif" font-size="14.00" fill="#000000">data_1</text>
<polyline fill="none" stroke="#000000" points="1183,-1102.4251 1237,-1102.4251 "/>
<text text-anchor="middle" x="1210" y="-1087.2251" font-family="Times,serif" font-size="14.00" fill="#000000">we_1</text>
<polyline fill="none" stroke="#000000" points="1183,-1079.4251 1237,-1079.4251 "/>
<text text-anchor="middle" x="1210" y="-1064.2251" font-family="Times,serif" font-size="14.00" fill="#000000">oe_1</text>
</g>
<!-- ecpri_rx&#45;&gt;ram_eth_packet_hdr -->
<g id="edge11" class="edge">
<title>ecpri_rx:we_0&#45;&gt;ram_eth_packet_hdr:we_0</title>
<path fill="none" stroke="#000000" d="M477,-795.4251C716.809,-795.4251 430.1386,-1170.2345 621,-1315.4251 704.4799,-1378.9292 764.9887,-1365.7797 857,-1315.4251 957.9972,-1260.1528 886.8814,-1100.4953 990.75,-1090.8792"/>
<polygon fill="#000000" stroke="#000000" points="991.1648,-1094.3644 1001,-1090.4251 990.8548,-1087.3712 991.1648,-1094.3644"/>
</g>
<!-- ecpri_rx&#45;&gt;ram_eth_packet_hdr -->
<g id="edge12" class="edge">
<title>ecpri_rx:addr_0&#45;&gt;ram_eth_packet_hdr:addr_0</title>
<path fill="none" stroke="#000000" d="M477,-772.4251C664.6929,-772.4251 467.3104,-1061.6839 621,-1169.4251 706.8867,-1229.6343 752.7374,-1180.8702 857,-1169.4251 918.6058,-1162.6625 933.8323,-1140.0897 990.696,-1137.641"/>
<polygon fill="#000000" stroke="#000000" points="991.0756,-1141.1339 1001,-1137.4251 990.9288,-1134.1355 991.0756,-1141.1339"/>
</g>
<!-- ecpri_rx&#45;&gt;ram_eth_packet_hdr -->
<g id="edge13" class="edge">
<title>ecpri_rx:data_0&#45;&gt;ram_eth_packet_hdr:data_0</title>
<path fill="none" stroke="#000000" d="M477,-749.4251C621.7006,-749.4251 505.9129,-953.714 621,-1041.4251 754.9762,-1143.5321 826.0734,-1115.6496 990.545,-1114.463"/>
<polygon fill="#000000" stroke="#000000" points="991.0128,-1117.9615 1001,-1114.4251 990.9873,-1110.9615 991.0128,-1117.9615"/>
</g>
<!-- ram_cpri_payload -->
<g id="node8" class="node">
<title>ram_cpri_payload</title>
<polygon fill="#ff0000" stroke="#000000" points="1007,-678.4251 1007,-770.4251 1231,-770.4251 1231,-678.4251 1007,-678.4251"/>
<text text-anchor="middle" x="1034" y="-755.2251" font-family="Times,serif" font-size="14.00" fill="#000000">addr_0</text>
<polyline fill="none" stroke="#000000" points="1007,-747.4251 1061,-747.4251 "/>
<text text-anchor="middle" x="1034" y="-732.2251" font-family="Times,serif" font-size="14.00" fill="#000000">data_0</text>
<polyline fill="none" stroke="#000000" points="1007,-724.4251 1061,-724.4251 "/>
<text text-anchor="middle" x="1034" y="-709.2251" font-family="Times,serif" font-size="14.00" fill="#000000">we_0</text>
<polyline fill="none" stroke="#000000" points="1007,-701.4251 1061,-701.4251 "/>
<text text-anchor="middle" x="1034" y="-686.2251" font-family="Times,serif" font-size="14.00" fill="#000000">oe_0</text>
<polyline fill="none" stroke="#000000" points="1061,-678.4251 1061,-770.4251 "/>
<text text-anchor="middle" x="1119" y="-720.7251" font-family="Times,serif" font-size="14.00" fill="#000000">ram_cpri_payload</text>
<polyline fill="none" stroke="#000000" points="1177,-678.4251 1177,-770.4251 "/>
<text text-anchor="middle" x="1204" y="-755.2251" font-family="Times,serif" font-size="14.00" fill="#000000">addr_1</text>
<polyline fill="none" stroke="#000000" points="1177,-747.4251 1231,-747.4251 "/>
<text text-anchor="middle" x="1204" y="-732.2251" font-family="Times,serif" font-size="14.00" fill="#000000">data_1</text>
<polyline fill="none" stroke="#000000" points="1177,-724.4251 1231,-724.4251 "/>
<text text-anchor="middle" x="1204" y="-709.2251" font-family="Times,serif" font-size="14.00" fill="#000000">we_1</text>
<polyline fill="none" stroke="#000000" points="1177,-701.4251 1231,-701.4251 "/>
<text text-anchor="middle" x="1204" y="-686.2251" font-family="Times,serif" font-size="14.00" fill="#000000">oe_1</text>
</g>
<!-- ecpri_rx&#45;&gt;ram_cpri_payload -->
<g id="edge17" class="edge">
<title>ecpri_rx:we_2&#45;&gt;ram_cpri_payload:we_0</title>
<path fill="none" stroke="#00ff00" d="M477,-610.4251C713.4814,-610.4251 765.6609,-709.5568 996.9229,-712.3643"/>
<polygon fill="#00ff00" stroke="#00ff00" points="996.979,-715.8646 1007,-712.4251 997.0213,-708.8647 996.979,-715.8646"/>
</g>
<!-- ecpri_rx&#45;&gt;ram_cpri_payload -->
<g id="edge18" class="edge">
<title>ecpri_rx:addr_2&#45;&gt;ram_cpri_payload:addr_0</title>
<path fill="none" stroke="#00ff00" d="M477,-587.4251C646.0999,-587.4251 702.7786,-537.0672 857,-606.4251 940.6267,-644.0344 913.9886,-751.0716 996.9118,-758.964"/>
<polygon fill="#00ff00" stroke="#00ff00" points="996.8506,-762.4647 1007,-759.4251 997.1703,-755.472 996.8506,-762.4647"/>
</g>
<!-- ecpri_rx&#45;&gt;ram_cpri_payload -->
<g id="edge19" class="edge">
<title>ecpri_rx:data_2&#45;&gt;ram_cpri_payload:data_0</title>
<path fill="none" stroke="#00ff00" d="M477,-564.4251C645.9877,-564.4251 704.4517,-478.7213 857,-551.4251 949.3831,-595.4544 904.3985,-727.2677 996.965,-735.9724"/>
<polygon fill="#00ff00" stroke="#00ff00" points="996.8524,-739.4708 1007,-736.4251 997.1679,-732.4779 996.8524,-739.4708"/>
</g>
<!-- ram_recv_eth_packet -->
<g id="node9" class="node">
<title>ram_recv_eth_packet</title>
<polygon fill="#ff0000" stroke="#000000" points="621,-49.4251 621,-141.4251 857,-141.4251 857,-49.4251 621,-49.4251"/>
<text text-anchor="middle" x="648" y="-126.2251" font-family="Times,serif" font-size="14.00" fill="#000000">addr_0</text>
<polyline fill="none" stroke="#000000" points="621,-118.4251 675,-118.4251 "/>
<text text-anchor="middle" x="648" y="-103.2251" font-family="Times,serif" font-size="14.00" fill="#000000">data_0</text>
<polyline fill="none" stroke="#000000" points="621,-95.4251 675,-95.4251 "/>
<text text-anchor="middle" x="648" y="-80.2251" font-family="Times,serif" font-size="14.00" fill="#000000">we_0</text>
<polyline fill="none" stroke="#000000" points="621,-72.4251 675,-72.4251 "/>
<text text-anchor="middle" x="648" y="-57.2251" font-family="Times,serif" font-size="14.00" fill="#000000">oe_0</text>
<polyline fill="none" stroke="#000000" points="675,-49.4251 675,-141.4251 "/>
<text text-anchor="middle" x="739" y="-91.7251" font-family="Times,serif" font-size="14.00" fill="#000000">ram_eth_packet_hdr</text>
<polyline fill="none" stroke="#000000" points="803,-49.4251 803,-141.4251 "/>
<text text-anchor="middle" x="830" y="-126.2251" font-family="Times,serif" font-size="14.00" fill="#000000">addr_1</text>
<polyline fill="none" stroke="#000000" points="803,-118.4251 857,-118.4251 "/>
<text text-anchor="middle" x="830" y="-103.2251" font-family="Times,serif" font-size="14.00" fill="#000000">data_1</text>
<polyline fill="none" stroke="#000000" points="803,-95.4251 857,-95.4251 "/>
<text text-anchor="middle" x="830" y="-80.2251" font-family="Times,serif" font-size="14.00" fill="#000000">we_1</text>
<polyline fill="none" stroke="#000000" points="803,-72.4251 857,-72.4251 "/>
<text text-anchor="middle" x="830" y="-57.2251" font-family="Times,serif" font-size="14.00" fill="#000000">oe_1</text>
</g>
<!-- ecpri_rx&#45;&gt;ram_recv_eth_packet -->
<g id="edge14" class="edge">
<title>ecpri_rx:oe_1&#45;&gt;ram_recv_eth_packet:oe_0</title>
<path fill="none" stroke="#0000ff" d="M477,-633.4251C736.1236,-633.4251 368.3531,-75.4339 610.9473,-60.7212"/>
<polygon fill="#0000ff" stroke="#0000ff" points="611.1074,-64.2181 621,-60.4251 610.9012,-57.2211 611.1074,-64.2181"/>
</g>
<!-- ecpri_rx&#45;&gt;ram_recv_eth_packet -->
<g id="edge15" class="edge">
<title>ecpri_rx:addr_1&#45;&gt;ram_recv_eth_packet:addr_0</title>
<path fill="none" stroke="#0000ff" d="M477,-680.4251C726.2291,-680.4251 378.0826,-145.3613 610.9772,-130.7307"/>
<polygon fill="#0000ff" stroke="#0000ff" points="611.1113,-134.2283 621,-130.4251 610.8979,-127.2316 611.1113,-134.2283"/>
</g>
<!-- ip_pkt -->
<g id="node3" class="node">
<title>ip_pkt</title>
<polygon fill="none" stroke="#000000" points="1381,-963.9251 1381,-1170.9251 1552,-1170.9251 1552,-963.9251 1381,-963.9251"/>
<text text-anchor="middle" x="1414" y="-1155.7251" font-family="Times,serif" font-size="14.00" fill="#000000">ip_create</text>
<polyline fill="none" stroke="#000000" points="1381,-1147.9251 1447,-1147.9251 "/>
<text text-anchor="middle" x="1414" y="-1132.7251" font-family="Times,serif" font-size="14.00" fill="#000000">we_1</text>
<polyline fill="none" stroke="#000000" points="1381,-1124.9251 1447,-1124.9251 "/>
<text text-anchor="middle" x="1414" y="-1109.7251" font-family="Times,serif" font-size="14.00" fill="#000000">addr_1</text>
<polyline fill="none" stroke="#000000" points="1381,-1101.9251 1447,-1101.9251 "/>
<text text-anchor="middle" x="1414" y="-1086.7251" font-family="Times,serif" font-size="14.00" fill="#000000">data_1</text>
<polyline fill="none" stroke="#000000" points="1381,-1078.9251 1447,-1078.9251 "/>
<text text-anchor="middle" x="1414" y="-1063.7251" font-family="Times,serif" font-size="14.00" fill="#000000">oe_1</text>
<polyline fill="none" stroke="#000000" points="1381,-1055.9251 1447,-1055.9251 "/>
<text text-anchor="middle" x="1414" y="-1040.7251" font-family="Times,serif" font-size="14.00" fill="#000000">we_2</text>
<polyline fill="none" stroke="#000000" points="1381,-1032.9251 1447,-1032.9251 "/>
<text text-anchor="middle" x="1414" y="-1017.7251" font-family="Times,serif" font-size="14.00" fill="#000000">addr_2</text>
<polyline fill="none" stroke="#000000" points="1381,-1009.9251 1447,-1009.9251 "/>
<text text-anchor="middle" x="1414" y="-994.7251" font-family="Times,serif" font-size="14.00" fill="#000000">data_2</text>
<polyline fill="none" stroke="#000000" points="1381,-986.9251 1447,-986.9251 "/>
<text text-anchor="middle" x="1414" y="-971.7251" font-family="Times,serif" font-size="14.00" fill="#000000">oe_2</text>
<polyline fill="none" stroke="#000000" points="1447,-963.9251 1447,-1170.9251 "/>
<text text-anchor="middle" x="1472.5" y="-1063.7251" font-family="Times,serif" font-size="14.00" fill="#000000">ip_pkt</text>
<polyline fill="none" stroke="#000000" points="1498,-963.9251 1498,-1170.9251 "/>
<text text-anchor="middle" x="1525" y="-1141.7251" font-family="Times,serif" font-size="14.00" fill="#000000">we_0</text>
<polyline fill="none" stroke="#000000" points="1498,-1119.9251 1552,-1119.9251 "/>
<text text-anchor="middle" x="1525" y="-1090.2251" font-family="Times,serif" font-size="14.00" fill="#000000">addr_0</text>
<polyline fill="none" stroke="#000000" points="1498,-1067.9251 1552,-1067.9251 "/>
<text text-anchor="middle" x="1525" y="-1038.2251" font-family="Times,serif" font-size="14.00" fill="#000000">data_0</text>
<polyline fill="none" stroke="#000000" points="1498,-1015.9251 1552,-1015.9251 "/>
<text text-anchor="middle" x="1525" y="-986.2251" font-family="Times,serif" font-size="14.00" fill="#000000">oe_0</text>
</g>
<!-- ecpri_tx&#45;&gt;ip_pkt -->
<g id="edge29" class="edge">
<title>ecpri_tx:ip_create&#45;&gt;ip_pkt:ip_create</title>
<path fill="none" stroke="#000000" d="M840,-797.4251C1026.7011,-797.4251 845.7312,-1081.7482 1001,-1185.4251 1138.8966,-1277.5021 1208.8181,-1164.2571 1370.709,-1159.5736"/>
<polygon fill="#000000" stroke="#000000" points="1371.0516,-1163.0691 1381,-1159.4251 1370.9505,-1156.0698 1371.0516,-1163.0691"/>
</g>
<!-- ram_cpri_packet -->
<g id="node7" class="node">
<title>ram_cpri_packet</title>
<polygon fill="#ff0000" stroke="#000000" points="1011,-891.4251 1011,-983.4251 1227,-983.4251 1227,-891.4251 1011,-891.4251"/>
<text text-anchor="middle" x="1038" y="-968.2251" font-family="Times,serif" font-size="14.00" fill="#000000">addr_0</text>
<polyline fill="none" stroke="#000000" points="1011,-960.4251 1065,-960.4251 "/>
<text text-anchor="middle" x="1038" y="-945.2251" font-family="Times,serif" font-size="14.00" fill="#000000">data_0</text>
<polyline fill="none" stroke="#000000" points="1011,-937.4251 1065,-937.4251 "/>
<text text-anchor="middle" x="1038" y="-922.2251" font-family="Times,serif" font-size="14.00" fill="#000000">we_0</text>
<polyline fill="none" stroke="#000000" points="1011,-914.4251 1065,-914.4251 "/>
<text text-anchor="middle" x="1038" y="-899.2251" font-family="Times,serif" font-size="14.00" fill="#000000">oe_0</text>
<polyline fill="none" stroke="#000000" points="1065,-891.4251 1065,-983.4251 "/>
<text text-anchor="middle" x="1119" y="-933.7251" font-family="Times,serif" font-size="14.00" fill="#000000">ram_cpri_packet</text>
<polyline fill="none" stroke="#000000" points="1173,-891.4251 1173,-983.4251 "/>
<text text-anchor="middle" x="1200" y="-968.2251" font-family="Times,serif" font-size="14.00" fill="#000000">addr_1</text>
<polyline fill="none" stroke="#000000" points="1173,-960.4251 1227,-960.4251 "/>
<text text-anchor="middle" x="1200" y="-945.2251" font-family="Times,serif" font-size="14.00" fill="#000000">data_1</text>
<polyline fill="none" stroke="#000000" points="1173,-937.4251 1227,-937.4251 "/>
<text text-anchor="middle" x="1200" y="-922.2251" font-family="Times,serif" font-size="14.00" fill="#000000">we_1</text>
<polyline fill="none" stroke="#000000" points="1173,-914.4251 1227,-914.4251 "/>
<text text-anchor="middle" x="1200" y="-899.2251" font-family="Times,serif" font-size="14.00" fill="#000000">oe_1</text>
</g>
<!-- ecpri_tx&#45;&gt;ram_cpri_packet -->
<g id="edge26" class="edge">
<title>ecpri_tx:we_2&#45;&gt;ram_cpri_packet:we_0</title>
<path fill="none" stroke="#000000" d="M840,-981.4251C916.3791,-981.4251 929.8959,-930.3433 1000.6273,-925.7539"/>
<polygon fill="#000000" stroke="#000000" points="1001.116,-929.2403 1011,-925.4251 1000.8941,-922.2438 1001.116,-929.2403"/>
</g>
<!-- ecpri_tx&#45;&gt;ram_cpri_packet -->
<g id="edge27" class="edge">
<title>ecpri_tx:addr_2&#45;&gt;ram_cpri_packet:addr_0</title>
<path fill="none" stroke="#000000" d="M840,-935.4251C914.2657,-935.4251 931.7246,-969.1755 1000.8865,-972.2078"/>
<polygon fill="#000000" stroke="#000000" points="1000.9271,-975.7094 1011,-972.4251 1001.0775,-968.711 1000.9271,-975.7094"/>
</g>
<!-- ecpri_tx&#45;&gt;ram_cpri_packet -->
<g id="edge28" class="edge">
<title>ecpri_tx:data_2&#45;&gt;ram_cpri_packet:data_0</title>
<path fill="none" stroke="#000000" d="M840,-889.4251C917.0818,-889.4251 929.4749,-944.3796 1000.9976,-949.1022"/>
<polygon fill="#000000" stroke="#000000" points="1000.8923,-952.6006 1011,-949.4251 1001.1181,-945.6042 1000.8923,-952.6006"/>
</g>
<!-- ecpri_tx&#45;&gt;ram_cpri_payload -->
<g id="edge23" class="edge">
<title>ecpri_tx:oe_1&#45;&gt;ram_cpri_payload:oe_1</title>
<path fill="none" stroke="#000000" d="M675,-774.4251C675,-769.625 1002.2474,-679.0984 1007,-678.4251 1089.9649,-666.6709 1194.5638,-597.222 1203.3996,-668.0226"/>
<polygon fill="#000000" stroke="#000000" points="1199.9295,-668.6434 1204,-678.4251 1206.9179,-668.24 1199.9295,-668.6434"/>
</g>
<!-- ecpri_tx&#45;&gt;ram_cpri_payload -->
<g id="edge24" class="edge">
<title>ecpri_tx:addr_1&#45;&gt;ram_cpri_payload:addr_1</title>
<path fill="none" stroke="#000000" d="M638,-831.4251C612.4444,-831.4251 619.9855,-792.0513 638,-773.9251 812.8182,-598.0225 1193.0351,-1010.0284 1203.7679,-780.7072"/>
<polygon fill="#000000" stroke="#000000" points="1207.2733,-780.5015 1204,-770.4251 1200.2751,-780.3435 1207.2733,-780.5015"/>
</g>
<!-- ip_pkt&#45;&gt;ram_eth_packet_hdr -->
<g id="edge20" class="edge">
<title>ip_pkt:oe_1&#45;&gt;ram_eth_packet_hdr:oe_1</title>
<path fill="none" stroke="#000000" d="M1381,-1067.4251C1320.5,-1067.4251 1302.8936,-1067.4251 1247.085,-1067.4251"/>
<polygon fill="#000000" stroke="#000000" points="1247,-1063.9252 1237,-1067.4251 1247,-1070.9252 1247,-1063.9252"/>
</g>
<!-- ip_pkt&#45;&gt;ram_eth_packet_hdr -->
<g id="edge21" class="edge">
<title>ip_pkt:addr_1&#45;&gt;ram_eth_packet_hdr:addr_1</title>
<path fill="none" stroke="#000000" d="M1381,-1113.4251C1319.6655,-1113.4251 1303.5912,-1134.8718 1247.207,-1137.2176"/>
<polygon fill="#000000" stroke="#000000" points="1246.9268,-1133.7225 1237,-1137.4251 1247.0691,-1140.721 1246.9268,-1133.7225"/>
</g>
<!-- ip_pkt&#45;&gt;ram_cpri_packet -->
<g id="edge30" class="edge">
<title>ip_pkt:oe_2&#45;&gt;ram_cpri_packet:oe_1</title>
<path fill="none" stroke="#000000" d="M1381,-975.4251C1308.8057,-975.4251 1303.1411,-909.1084 1237.184,-902.8912"/>
<polygon fill="#000000" stroke="#000000" points="1237.1496,-899.3861 1227,-902.4251 1236.8295,-906.3788 1237.1496,-899.3861"/>
</g>
<!-- ip_pkt&#45;&gt;ram_cpri_packet -->
<g id="edge31" class="edge">
<title>ip_pkt:addr_2&#45;&gt;ram_cpri_packet:addr_1</title>
<path fill="none" stroke="#000000" d="M1381,-1021.4251C1312.6815,-1021.4251 1299.9828,-977.0934 1237.0959,-972.7641"/>
<polygon fill="#000000" stroke="#000000" points="1237.1119,-969.2628 1227,-972.4251 1236.8769,-976.2588 1237.1119,-969.2628"/>
</g>
<!-- ip_switch -->
<g id="node4" class="node">
<title>ip_switch</title>
<polygon fill="none" stroke="#000000" points="0,-51.9251 0,-212.9251 133,-212.9251 133,-51.9251 0,-51.9251"/>
<text text-anchor="middle" x="34.5" y="-128.7251" font-family="Times,serif" font-size="14.00" fill="#000000">ip_switch</text>
<polyline fill="none" stroke="#000000" points="69,-51.9251 69,-212.9251 "/>
<text text-anchor="middle" x="101" y="-197.7251" font-family="Times,serif" font-size="14.00" fill="#000000">recv_pkt</text>
<polyline fill="none" stroke="#000000" points="69,-189.9251 133,-189.9251 "/>
<text text-anchor="middle" x="101" y="-174.7251" font-family="Times,serif" font-size="14.00" fill="#000000">we</text>
<polyline fill="none" stroke="#000000" points="69,-166.9251 133,-166.9251 "/>
<text text-anchor="middle" x="101" y="-151.7251" font-family="Times,serif" font-size="14.00" fill="#000000">out_data</text>
<polyline fill="none" stroke="#000000" points="69,-143.9251 133,-143.9251 "/>
<text text-anchor="middle" x="101" y="-128.7251" font-family="Times,serif" font-size="14.00" fill="#000000">we_0</text>
<polyline fill="none" stroke="#000000" points="69,-120.9251 133,-120.9251 "/>
<text text-anchor="middle" x="101" y="-105.7251" font-family="Times,serif" font-size="14.00" fill="#000000">addr_0</text>
<polyline fill="none" stroke="#000000" points="69,-97.9251 133,-97.9251 "/>
<text text-anchor="middle" x="101" y="-82.7251" font-family="Times,serif" font-size="14.00" fill="#000000">data_0</text>
<polyline fill="none" stroke="#000000" points="69,-74.9251 133,-74.9251 "/>
<text text-anchor="middle" x="101" y="-59.7251" font-family="Times,serif" font-size="14.00" fill="#000000">oe_0</text>
</g>
<!-- ip_switch&#45;&gt;ecpri_rx -->
<g id="edge8" class="edge">
<title>ip_switch:recv_pkt&#45;&gt;ecpri_rx:recv_pkt</title>
<path fill="none" stroke="#000000" d="M133,-201.4251C337.3225,-201.4251 78.2732,-631.3451 266.7578,-646.0396"/>
<polygon fill="#000000" stroke="#000000" points="266.8754,-649.5464 277,-646.4251 267.1387,-642.5514 266.8754,-649.5464"/>
</g>
<!-- ip_switch&#45;&gt;fifo -->
<g id="edge1" class="edge">
<title>ip_switch:out_data&#45;&gt;fifo:inp_data</title>
<path fill="none" stroke="#000000" d="M133,-155.4251C218.6291,-155.4251 196.9606,-252.9941 277,-283.4251 432.5794,-342.5763 485.8832,-255.1502 647.6919,-251.5395"/>
<polygon fill="#000000" stroke="#000000" points="648.0395,-255.036 658,-251.4251 647.9617,-248.0364 648.0395,-255.036"/>
</g>
<!-- ip_switch&#45;&gt;fifo -->
<g id="edge2" class="edge">
<title>ip_switch:we&#45;&gt;fifo:we</title>
<path fill="none" stroke="#000000" d="M133,-178.4251C363.9146,-178.4251 421.9648,-226 647.815,-227.3938"/>
<polygon fill="#000000" stroke="#000000" points="647.9893,-230.8943 658,-227.4251 648.0108,-223.8943 647.9893,-230.8943"/>
</g>
<!-- ip_switch&#45;&gt;ram_recv_eth_packet -->
<g id="edge3" class="edge">
<title>ip_switch:we_0&#45;&gt;ram_recv_eth_packet:we_1</title>
<path fill="none" stroke="#ff0000" d="M133,-132.4251C353.041,-132.4251 401.7485,-67.5474 621,-48.9251 977.7657,-18.6228 920.1551,-75.7044 867.091,-82.7277"/>
<polygon fill="#ff0000" stroke="#ff0000" points="866.7349,-79.2439 857,-83.4251 867.2175,-86.2272 866.7349,-79.2439"/>
</g>
<!-- ip_switch&#45;&gt;ram_recv_eth_packet -->
<g id="edge4" class="edge">
<title>ip_switch:addr_0&#45;&gt;ram_recv_eth_packet:addr_1</title>
<path fill="none" stroke="#ff0000" d="M133,-109.4251C201.6692,-109.4251 209.5082,-66.0866 277,-53.4251 364.3648,-37.0353 391.4336,-29.3496 477,-53.4251 549.201,-73.7399 548.799,-121.1102 621,-141.4251 662.041,-152.9726 803.8506,-182.4568 826.8401,-151.2896"/>
<polygon fill="#ff0000" stroke="#ff0000" points="830.2825,-152.0161 830,-141.4251 823.6161,-149.8806 830.2825,-152.0161"/>
</g>
<!-- ip_switch&#45;&gt;ram_recv_eth_packet -->
<g id="edge5" class="edge">
<title>ip_switch:data_0&#45;&gt;ram_recv_eth_packet:data_1</title>
<path fill="none" stroke="#ff0000" d="M133,-86.4251C203.5884,-86.4251 208.0784,-34.674 277,-19.4251 363.79,-.2227 393.5751,11.2591 477,-19.4251 555.86,-48.4302 542.14,-112.9199 621,-141.9251 621,-141.9251 801.6875,-115.511 846.8594,-108.9075"/>
<polygon fill="#ff0000" stroke="#ff0000" points="847.6115,-112.3348 857,-107.4251 846.5989,-105.4084 847.6115,-112.3348"/>
</g>
<!-- fifo&#45;&gt;ecpri_rx -->
<g id="edge6" class="edge">
<title>fifo:out_data&#45;&gt;ecpri_rx:inp_data</title>
<path fill="none" stroke="#000000" d="M789,-262.4251C789,-340.9912 675.7073,-261.0358 621,-317.4251 463.0924,-480.1875 658.5764,-671.0706 477,-806.9251 477,-806.9251 327.2739,-766.8733 286.918,-756.0781"/>
<polygon fill="#000000" stroke="#000000" points="287.5648,-752.6282 277,-753.4251 285.7559,-759.3904 287.5648,-752.6282"/>
</g>
<!-- ram_eth_packet_hdr&#45;&gt;ip_pkt -->
<g id="edge22" class="edge">
<title>ram_eth_packet_hdr:data_1&#45;&gt;ip_pkt:data_1</title>
<path fill="none" stroke="#000000" d="M1237,-1114.4251C1298.3345,-1114.4251 1314.4088,-1092.9783 1370.793,-1090.6325"/>
<polygon fill="#000000" stroke="#000000" points="1371.0732,-1094.1277 1381,-1090.4251 1370.9309,-1087.1291 1371.0732,-1094.1277"/>
</g>
<!-- ram_cpri_packet&#45;&gt;ip_pkt -->
<g id="edge32" class="edge">
<title>ram_cpri_packet:data_1&#45;&gt;ip_pkt:data_2</title>
<path fill="none" stroke="#000000" d="M1227,-949.4251C1295.3185,-949.4251 1308.0172,-993.7567 1370.9041,-998.086"/>
<polygon fill="#000000" stroke="#000000" points="1370.8881,-1001.5873 1381,-998.4251 1371.1231,-994.5913 1370.8881,-1001.5873"/>
</g>
<!-- ram_cpri_payload&#45;&gt;ecpri_tx -->
<g id="edge25" class="edge">
<title>ram_cpri_payload:data_1&#45;&gt;ecpri_tx:data_1</title>
<path fill="none" stroke="#000000" d="M1231,-736.4251C1246.3333,-736.4251 1241.8148,-760.0554 1231,-770.9251 1045.1077,-957.7602 823.8923,-587.0899 638,-773.9251 630.3958,-781.5678 625.9044,-795.5192 629.238,-803.1293"/>
<polygon fill="#000000" stroke="#000000" points="627.6313,-806.2478 638,-808.4251 631.2522,-800.257 627.6313,-806.2478"/>
</g>
<!-- ram_recv_eth_packet&#45;&gt;ecpri_rx -->
<g id="edge16" class="edge">
<title>ram_recv_eth_packet:data_0&#45;&gt;ecpri_rx:data_1</title>
<path fill="none" stroke="#0000ff" d="M621,-107.4251C371.7709,-107.4251 719.9174,-642.4888 487.0228,-657.1195"/>
<polygon fill="#0000ff" stroke="#0000ff" points="486.8887,-653.6218 477,-657.4251 487.1021,-660.6186 486.8887,-653.6218"/>
</g>
</g>
</svg>
