<?xml version="1.0" encoding="UTF-8" standalone="no"?>
<!DOCTYPE svg PUBLIC "-//W3C//DTD SVG 1.1//EN"
 "http://www.w3.org/Graphics/SVG/1.1/DTD/svg11.dtd">
<!-- Generated by graphviz version 2.40.1 (20161225.0304)
 -->
<!-- Title: F Pages: 1 -->
<svg width="762pt" height="2491pt"
 viewBox="0.00 0.00 762.00 2491.00" xmlns="http://www.w3.org/2000/svg" xmlns:xlink="http://www.w3.org/1999/xlink">
<g id="graph0" class="graph" transform="scale(1 1) rotate(0) translate(4 2487)">
<title>F</title>
<polygon fill="#ffffff" stroke="transparent" points="-4,4 -4,-2487 758,-2487 758,4 -4,4"/>
<!-- ecpri_rx -->
<g id="node1" class="node">
<title>ecpri_rx</title>
<polygon fill="none" stroke="#000000" points="153,-178.5 153,-2482.5 215,-2482.5 215,-178.5 153,-178.5"/>
<text text-anchor="middle" x="184" y="-1326.8" font-family="Times,serif" font-size="14.00" fill="#000000">ecpri_rx</text>
</g>
<!-- ecpri_tx -->
<g id="node2" class="node">
<title>ecpri_tx</title>
<polygon fill="none" stroke="#000000" points="304.5,-754.5 304.5,-1906.5 365.5,-1906.5 365.5,-754.5 304.5,-754.5"/>
<text text-anchor="middle" x="335" y="-1326.8" font-family="Times,serif" font-size="14.00" fill="#000000">ecpri_tx</text>
</g>
<!-- ecpri_rx&#45;&gt;ecpri_tx -->
<g id="edge6" class="edge">
<title>ecpri_rx&#45;&gt;ecpri_tx</title>
<path fill="none" stroke="#000000" d="M215.2873,-1138.3333C215.2873,-1138.3333 294.2694,-1138.3333 294.2694,-1138.3333"/>
<polygon fill="#000000" stroke="#000000" points="294.2695,-1141.8334 304.2694,-1138.3333 294.2694,-1134.8334 294.2695,-1141.8334"/>
<text text-anchor="middle" x="259.5" y="-1315.3" font-family="Times,serif" font-size="14.00" fill="#000000">rx_resp</text>
</g>
<!-- ecpri_rx&#45;&gt;ecpri_tx -->
<g id="edge7" class="edge">
<title>ecpri_rx&#45;&gt;ecpri_tx</title>
<path fill="none" stroke="#000000" d="M215.2873,-1522.6667C215.2873,-1522.6667 294.2694,-1522.6667 294.2694,-1522.6667"/>
<polygon fill="#000000" stroke="#000000" points="294.2695,-1526.1668 304.2694,-1522.6667 294.2694,-1519.1668 294.2695,-1526.1668"/>
<text text-anchor="middle" x="259.5" y="-1353.3" font-family="Times,serif" font-size="14.00" fill="#000000">tx_resp</text>
</g>
<!-- fifo -->
<g id="node5" class="node">
<title>fifo</title>
<polygon fill="#ffff00" stroke="#000000" points="308,-77.5 308,-509.5 362,-509.5 362,-77.5 308,-77.5"/>
<text text-anchor="middle" x="335" y="-289.8" font-family="Times,serif" font-size="14.00" fill="#000000">fifo</text>
</g>
<!-- ecpri_rx&#45;&gt;fifo -->
<g id="edge4" class="edge">
<title>ecpri_rx&#45;&gt;fifo</title>
<path fill="none" stroke="#000000" d="M215.2873,-288.6667C215.2873,-288.6667 297.8025,-288.6667 297.8025,-288.6667"/>
<polygon fill="#000000" stroke="#000000" points="297.8026,-292.1668 307.8025,-288.6667 297.8025,-285.1668 297.8026,-292.1668"/>
<text text-anchor="middle" x="259.5" y="-579.3" font-family="Times,serif" font-size="14.00" fill="#000000">oe</text>
</g>
<!-- ram_1 -->
<g id="node6" class="node">
<title>ram_1</title>
<polygon fill="#ff0000" stroke="#000000" points="623.5,-457.5 623.5,-1033.5 751.5,-1033.5 751.5,-457.5 623.5,-457.5"/>
<text text-anchor="middle" x="687.5" y="-741.8" font-family="Times,serif" font-size="14.00" fill="#000000">ram_eth_packet_hdr</text>
</g>
<!-- ecpri_rx&#45;&gt;ram_1 -->
<g id="edge8" class="edge">
<title>ecpri_rx&#45;&gt;ram_1</title>
<path fill="none" stroke="#0000ff" stroke-width="3" d="M215.1162,-571C215.1162,-571 613.1529,-571 613.1529,-571"/>
<polygon fill="#0000ff" stroke="#0000ff" stroke-width="3" points="613.153,-574.5001 623.1529,-571 613.1529,-567.5001 613.153,-574.5001"/>
<text text-anchor="middle" x="414.5" y="-691.3" font-family="Times,serif" font-size="14.00" fill="#000000">[7:0] data</text>
</g>
<!-- ecpri_rx&#45;&gt;ram_1 -->
<g id="edge9" class="edge">
<title>ecpri_rx&#45;&gt;ram_1</title>
<path fill="none" stroke="#ff0000" stroke-width="3" d="M215.1162,-632C215.1162,-632 613.1529,-632 613.1529,-632"/>
<polygon fill="#ff0000" stroke="#ff0000" stroke-width="3" points="613.153,-635.5001 623.1529,-632 613.1529,-628.5001 613.153,-635.5001"/>
<text text-anchor="middle" x="414.5" y="-653.3" font-family="Times,serif" font-size="14.00" fill="#000000">[15:0] addr</text>
</g>
<!-- ecpri_rx&#45;&gt;ram_1 -->
<g id="edge10" class="edge">
<title>ecpri_rx&#45;&gt;ram_1</title>
<path fill="none" stroke="#000000" d="M215.1162,-693C215.1162,-693 613.1529,-693 613.1529,-693"/>
<polygon fill="#000000" stroke="#000000" points="613.153,-696.5001 623.1529,-693 613.1529,-689.5001 613.153,-696.5001"/>
<text text-anchor="middle" x="414.5" y="-729.3" font-family="Times,serif" font-size="14.00" fill="#000000">we</text>
</g>
<!-- ram_3 -->
<g id="node8" class="node">
<title>ram_3</title>
<polygon fill="#ff0000" stroke="#000000" points="629.5,-1647.5 629.5,-2223.5 745.5,-2223.5 745.5,-1647.5 629.5,-1647.5"/>
<text text-anchor="middle" x="687.5" y="-1931.8" font-family="Times,serif" font-size="14.00" fill="#000000">ram_cpri_payload</text>
</g>
<!-- ecpri_rx&#45;&gt;ram_3 -->
<g id="edge14" class="edge">
<title>ecpri_rx&#45;&gt;ram_3</title>
<path fill="none" stroke="#000000" d="M215.1162,-1940.25C215.1162,-1940.25 619.127,-1940.25 619.127,-1940.25"/>
<polygon fill="#000000" stroke="#000000" points="619.1271,-1943.7501 629.127,-1940.25 619.127,-1936.7501 619.1271,-1943.7501"/>
<text text-anchor="middle" x="414.5" y="-1939.3" font-family="Times,serif" font-size="14.00" fill="#000000">we</text>
</g>
<!-- ecpri_rx&#45;&gt;ram_3 -->
<g id="edge15" class="edge">
<title>ecpri_rx&#45;&gt;ram_3</title>
<path fill="none" stroke="#0000ff" stroke-width="3" d="M215.1162,-1973.5C215.1162,-1973.5 619.127,-1973.5 619.127,-1973.5"/>
<polygon fill="#0000ff" stroke="#0000ff" stroke-width="3" points="619.1271,-1977.0001 629.127,-1973.5 619.127,-1970.0001 619.1271,-1977.0001"/>
<text text-anchor="middle" x="414.5" y="-2015.3" font-family="Times,serif" font-size="14.00" fill="#000000">[7:0] data</text>
</g>
<!-- ecpri_rx&#45;&gt;ram_3 -->
<g id="edge16" class="edge">
<title>ecpri_rx&#45;&gt;ram_3</title>
<path fill="none" stroke="#ff0000" stroke-width="3" d="M215.1162,-2006.75C215.1162,-2006.75 619.127,-2006.75 619.127,-2006.75"/>
<polygon fill="#ff0000" stroke="#ff0000" stroke-width="3" points="619.1271,-2010.2501 629.127,-2006.75 619.127,-2003.2501 619.1271,-2010.2501"/>
<text text-anchor="middle" x="414.5" y="-1977.3" font-family="Times,serif" font-size="14.00" fill="#000000">[16:0] addr</text>
</g>
<!-- ip_pkt -->
<g id="node3" class="node">
<title>ip_pkt</title>
<polygon fill="none" stroke="#000000" points="466.5,-1048.5 466.5,-1480.5 520.5,-1480.5 520.5,-1048.5 466.5,-1048.5"/>
<text text-anchor="middle" x="493.5" y="-1260.8" font-family="Times,serif" font-size="14.00" fill="#000000">ip_pkt</text>
</g>
<!-- ecpri_tx&#45;&gt;ip_pkt -->
<g id="edge20" class="edge">
<title>ecpri_tx&#45;&gt;ip_pkt</title>
<path fill="none" stroke="#000000" d="M365.5604,-1264.5C365.5604,-1264.5 456.4667,-1264.5 456.4667,-1264.5"/>
<polygon fill="#000000" stroke="#000000" points="456.4667,-1268.0001 466.4667,-1264.5 456.4667,-1261.0001 456.4667,-1268.0001"/>
<text text-anchor="middle" x="414.5" y="-1301.3" font-family="Times,serif" font-size="14.00" fill="#000000">ip_create</text>
</g>
<!-- ecpri_tx&#45;&gt;ram_1 -->
<g id="edge12" class="edge">
<title>ecpri_tx&#45;&gt;ram_1</title>
<path fill="none" stroke="#ff0000" stroke-width="3" d="M365.6654,-794C365.6654,-794 613.2312,-794 613.2312,-794"/>
<polygon fill="#ff0000" stroke="#ff0000" stroke-width="3" points="613.2312,-797.5001 623.2312,-794 613.2311,-790.5001 613.2312,-797.5001"/>
<text text-anchor="middle" x="493.5" y="-1000.3" font-family="Times,serif" font-size="14.00" fill="#000000">[15:0] addr</text>
</g>
<!-- ecpri_tx&#45;&gt;ram_1 -->
<g id="edge13" class="edge">
<title>ecpri_tx&#45;&gt;ram_1</title>
<path fill="none" stroke="#000000" d="M365.6654,-834C365.6654,-834 613.2312,-834 613.2312,-834"/>
<polygon fill="#000000" stroke="#000000" points="613.2312,-837.5001 623.2312,-834 613.2311,-830.5001 613.2312,-837.5001"/>
<text text-anchor="middle" x="493.5" y="-845.3" font-family="Times,serif" font-size="14.00" fill="#000000">oe</text>
</g>
<!-- ecpri_tx&#45;&gt;ram_3 -->
<g id="edge18" class="edge">
<title>ecpri_tx&#45;&gt;ram_3</title>
<path fill="none" stroke="#ff0000" stroke-width="3" d="M365.6654,-1712C365.6654,-1712 619.4847,-1712 619.4847,-1712"/>
<polygon fill="#ff0000" stroke="#ff0000" stroke-width="3" points="619.4847,-1715.5001 629.4847,-1712 619.4846,-1708.5001 619.4847,-1715.5001"/>
<text text-anchor="middle" x="493.5" y="-1743.3" font-family="Times,serif" font-size="14.00" fill="#000000">[15:0] addr</text>
</g>
<!-- ecpri_tx&#45;&gt;ram_3 -->
<g id="edge19" class="edge">
<title>ecpri_tx&#45;&gt;ram_3</title>
<path fill="none" stroke="#000000" d="M365.6654,-1777C365.6654,-1777 619.4847,-1777 619.4847,-1777"/>
<polygon fill="#000000" stroke="#000000" points="619.4847,-1780.5001 629.4847,-1777 619.4846,-1773.5001 619.4847,-1780.5001"/>
<text text-anchor="middle" x="493.5" y="-1556.3" font-family="Times,serif" font-size="14.00" fill="#000000">oe</text>
</g>
<!-- ip_pkt&#45;&gt;ram_1 -->
<g id="edge22" class="edge">
<title>ip_pkt&#45;&gt;ram_1</title>
<path fill="none" stroke="#ff0000" stroke-width="3" d="M480,-1048.2596C480,-976.2372 480,-914 480,-914 480,-914 613.2667,-914 613.2667,-914"/>
<polygon fill="#ff0000" stroke="#ff0000" stroke-width="3" points="613.2668,-917.5001 623.2667,-914 613.2667,-910.5001 613.2668,-917.5001"/>
<text text-anchor="middle" x="572.5" y="-1049.3" font-family="Times,serif" font-size="14.00" fill="#000000">[15:0] addr</text>
</g>
<!-- ip_pkt&#45;&gt;ram_1 -->
<g id="edge23" class="edge">
<title>ip_pkt&#45;&gt;ram_1</title>
<path fill="none" stroke="#000000" d="M494,-1048.4249C494,-995.6413 494,-954 494,-954 494,-954 613.3361,-954 613.3361,-954"/>
<polygon fill="#000000" stroke="#000000" points="613.3361,-957.5001 623.3361,-954 613.336,-950.5001 613.3361,-957.5001"/>
<text text-anchor="middle" x="572.5" y="-1215.3" font-family="Times,serif" font-size="14.00" fill="#000000">oe</text>
</g>
<!-- ram_2 -->
<g id="node7" class="node">
<title>ram_2</title>
<polygon fill="#ff0000" stroke="#000000" points="621,-1052.5 621,-1628.5 754,-1628.5 754,-1052.5 621,-1052.5"/>
<text text-anchor="middle" x="687.5" y="-1336.8" font-family="Times,serif" font-size="14.00" fill="#000000">ram_cpri_packet_hdr</text>
</g>
<!-- ip_pkt&#45;&gt;ram_2 -->
<g id="edge25" class="edge">
<title>ip_pkt&#45;&gt;ram_2</title>
<path fill="none" stroke="#ff0000" stroke-width="3" d="M520.884,-1159.25C520.884,-1159.25 610.9483,-1159.25 610.9483,-1159.25"/>
<polygon fill="#ff0000" stroke="#ff0000" stroke-width="3" points="610.9483,-1162.7501 620.9483,-1159.25 610.9482,-1155.7501 610.9483,-1162.7501"/>
<text text-anchor="middle" x="572.5" y="-1268.3" font-family="Times,serif" font-size="14.00" fill="#000000">[15:0] addr</text>
</g>
<!-- ip_pkt&#45;&gt;ram_2 -->
<g id="edge26" class="edge">
<title>ip_pkt&#45;&gt;ram_2</title>
<path fill="none" stroke="#000000" d="M520.884,-1266.5C520.884,-1266.5 610.9483,-1266.5 610.9483,-1266.5"/>
<polygon fill="#000000" stroke="#000000" points="610.9483,-1270.0001 620.9483,-1266.5 610.9482,-1263.0001 610.9483,-1270.0001"/>
<text text-anchor="middle" x="572.5" y="-1344.3" font-family="Times,serif" font-size="14.00" fill="#000000">oe</text>
</g>
<!-- ip_switch -->
<g id="node4" class="node">
<title>ip_switch</title>
<polygon fill="none" stroke="#000000" points="0,-.5 0,-288.5 69,-288.5 69,-.5 0,-.5"/>
<text text-anchor="middle" x="34.5" y="-140.8" font-family="Times,serif" font-size="14.00" fill="#000000">ip_switch</text>
</g>
<!-- ip_switch&#45;&gt;ecpri_rx -->
<g id="edge5" class="edge">
<title>ip_switch&#45;&gt;ecpri_rx</title>
<path fill="none" stroke="#000000" d="M69.1741,-233.5C69.1741,-233.5 142.8192,-233.5 142.8192,-233.5"/>
<polygon fill="#000000" stroke="#000000" points="142.8192,-237.0001 152.8192,-233.5 142.8191,-230.0001 142.8192,-237.0001"/>
<text text-anchor="middle" x="111" y="-757.3" font-family="Times,serif" font-size="14.00" fill="#000000">recv_pkt</text>
</g>
<!-- ip_switch&#45;&gt;fifo -->
<g id="edge1" class="edge">
<title>ip_switch&#45;&gt;fifo</title>
<path fill="none" stroke="#0000ff" stroke-width="3" d="M69.2647,-110.6667C69.2647,-110.6667 297.6116,-110.6667 297.6116,-110.6667"/>
<polygon fill="#0000ff" stroke="#0000ff" stroke-width="3" points="297.6117,-114.1668 307.6116,-110.6667 297.6116,-107.1668 297.6117,-114.1668"/>
<text text-anchor="middle" x="184" y="-97.3" font-family="Times,serif" font-size="14.00" fill="#000000">[7:0]data</text>
</g>
<!-- ip_switch&#45;&gt;fifo -->
<g id="edge2" class="edge">
<title>ip_switch&#45;&gt;fifo</title>
<path fill="none" stroke="#000000" d="M69.2647,-144.3333C69.2647,-144.3333 297.6116,-144.3333 297.6116,-144.3333"/>
<polygon fill="#000000" stroke="#000000" points="297.6117,-147.8334 307.6116,-144.3333 297.6116,-140.8334 297.6117,-147.8334"/>
<text text-anchor="middle" x="184" y="-148.3" font-family="Times,serif" font-size="14.00" fill="#000000">we</text>
</g>
<!-- fifo&#45;&gt;ecpri_rx -->
<g id="edge3" class="edge">
<title>fifo&#45;&gt;ecpri_rx</title>
<path fill="none" stroke="#0000ff" stroke-width="3" d="M307.655,-399.3333C307.655,-399.3333 225.0478,-399.3333 225.0478,-399.3333"/>
<polygon fill="#0000ff" stroke="#0000ff" stroke-width="3" points="225.0478,-395.8334 215.0478,-399.3333 225.0477,-402.8334 225.0478,-395.8334"/>
<text text-anchor="middle" x="259.5" y="-453.3" font-family="Times,serif" font-size="14.00" fill="#000000">[7:0] data</text>
</g>
<!-- ram_1&#45;&gt;ecpri_tx -->
<g id="edge11" class="edge">
<title>ram_1&#45;&gt;ecpri_tx</title>
<path fill="none" stroke="#0000ff" stroke-width="3" d="M623.2559,-874C623.2559,-874 375.7422,-874 375.7422,-874"/>
<polygon fill="#0000ff" stroke="#0000ff" stroke-width="3" points="375.7422,-870.5001 365.7422,-874 375.7422,-877.5001 375.7422,-870.5001"/>
<text text-anchor="middle" x="493.5" y="-914.3" font-family="Times,serif" font-size="14.00" fill="#000000">[7:0] data</text>
</g>
<!-- ram_1&#45;&gt;ip_pkt -->
<g id="edge21" class="edge">
<title>ram_1&#45;&gt;ip_pkt</title>
<path fill="none" stroke="#0000ff" stroke-width="3" d="M623.3542,-994C571.4733,-994 507,-994 507,-994 507,-994 507,-1038.4143 507,-1038.4143"/>
<polygon fill="#0000ff" stroke="#0000ff" stroke-width="3" points="503.5001,-1038.4143 507,-1048.4143 510.5001,-1038.4144 503.5001,-1038.4143"/>
<text text-anchor="middle" x="572.5" y="-1147.3" font-family="Times,serif" font-size="14.00" fill="#000000">[7:0] data</text>
</g>
<!-- ram_2&#45;&gt;ip_pkt -->
<g id="edge24" class="edge">
<title>ram_2&#45;&gt;ip_pkt</title>
<path fill="none" stroke="#0000ff" stroke-width="3" d="M620.7362,-1373.75C620.7362,-1373.75 530.9225,-1373.75 530.9225,-1373.75"/>
<polygon fill="#0000ff" stroke="#0000ff" stroke-width="3" points="530.9225,-1370.2501 520.9225,-1373.75 530.9224,-1377.2501 530.9225,-1370.2501"/>
<text text-anchor="middle" x="572.5" y="-1306.3" font-family="Times,serif" font-size="14.00" fill="#000000">[7:0] data</text>
</g>
<!-- ram_3&#45;&gt;ecpri_tx -->
<g id="edge17" class="edge">
<title>ram_3&#45;&gt;ecpri_tx</title>
<path fill="none" stroke="#0000ff" stroke-width="3" d="M629.2918,-1842C629.2918,-1842 375.5264,-1842 375.5264,-1842"/>
<polygon fill="#0000ff" stroke="#0000ff" stroke-width="3" points="375.5265,-1838.5001 365.5264,-1842 375.5264,-1845.5001 375.5265,-1838.5001"/>
<text text-anchor="middle" x="493.5" y="-1862.3" font-family="Times,serif" font-size="14.00" fill="#000000">[7:0] data</text>
</g>
<!-- epcri_rx -->
<g id="node9" class="node">
<title>epcri_rx</title>
<polygon fill="none" stroke="#000000" points="304,-2040.5 304,-2076.5 366,-2076.5 366,-2040.5 304,-2040.5"/>
<text text-anchor="middle" x="335" y="-2054.8" font-family="Times,serif" font-size="14.00" fill="#000000">epcri_rx</text>
</g>
</g>
</svg>
