<?xml version="1.0" encoding="UTF-8" standalone="no"?>
<!DOCTYPE svg PUBLIC "-//W3C//DTD SVG 1.1//EN"
 "http://www.w3.org/Graphics/SVG/1.1/DTD/svg11.dtd">
<!-- Generated by graphviz version 2.40.1 (20161225.0304)
 -->
<!-- Title: F Pages: 1 -->
<svg width="1612pt" height="857pt"
 viewBox="0.00 0.00 1612.00 856.69" xmlns="http://www.w3.org/2000/svg" xmlns:xlink="http://www.w3.org/1999/xlink">
<g id="graph0" class="graph" transform="scale(1 1) rotate(0) translate(36 820.6902)">
<title>F</title>
<polygon fill="#ffffff" stroke="transparent" points="-36,36 -36,-820.6902 1576,-820.6902 1576,36 -36,36"/>
<!-- ecpri_rx -->
<g id="node1" class="node">
<title>ecpri_rx</title>
<polygon fill="none" stroke="#000000" points="277,-423 277,-676 477,-676 477,-423 277,-423"/>
<text text-anchor="middle" x="309" y="-630.3" font-family="Times,serif" font-size="14.00" fill="#000000">inp_data</text>
<polyline fill="none" stroke="#000000" points="277,-592 341,-592 "/>
<text text-anchor="middle" x="309" y="-546.3" font-family="Times,serif" font-size="14.00" fill="#000000">recv_pkt</text>
<polyline fill="none" stroke="#000000" points="277,-508 341,-508 "/>
<text text-anchor="middle" x="309" y="-461.8" font-family="Times,serif" font-size="14.00" fill="#000000">oe</text>
<polyline fill="none" stroke="#000000" points="341,-423 341,-676 "/>
<text text-anchor="middle" x="372" y="-545.8" font-family="Times,serif" font-size="14.00" fill="#000000">ecpri_rx</text>
<polyline fill="none" stroke="#000000" points="403,-423 403,-676 "/>
<text text-anchor="middle" x="440" y="-660.8" font-family="Times,serif" font-size="14.00" fill="#000000">we_0</text>
<polyline fill="none" stroke="#000000" points="403,-653 477,-653 "/>
<text text-anchor="middle" x="440" y="-637.8" font-family="Times,serif" font-size="14.00" fill="#000000">addr_0</text>
<polyline fill="none" stroke="#000000" points="403,-630 477,-630 "/>
<text text-anchor="middle" x="440" y="-614.8" font-family="Times,serif" font-size="14.00" fill="#000000">data_0</text>
<polyline fill="none" stroke="#000000" points="403,-607 477,-607 "/>
<text text-anchor="middle" x="440" y="-591.8" font-family="Times,serif" font-size="14.00" fill="#000000">we_1</text>
<polyline fill="none" stroke="#000000" points="403,-584 477,-584 "/>
<text text-anchor="middle" x="440" y="-568.8" font-family="Times,serif" font-size="14.00" fill="#000000">addr_1</text>
<polyline fill="none" stroke="#000000" points="403,-561 477,-561 "/>
<text text-anchor="middle" x="440" y="-545.8" font-family="Times,serif" font-size="14.00" fill="#000000">data_1</text>
<polyline fill="none" stroke="#000000" points="403,-538 477,-538 "/>
<text text-anchor="middle" x="440" y="-522.8" font-family="Times,serif" font-size="14.00" fill="#000000">we_2</text>
<polyline fill="none" stroke="#000000" points="403,-515 477,-515 "/>
<text text-anchor="middle" x="440" y="-499.8" font-family="Times,serif" font-size="14.00" fill="#000000">addr_2</text>
<polyline fill="none" stroke="#000000" points="403,-492 477,-492 "/>
<text text-anchor="middle" x="440" y="-476.8" font-family="Times,serif" font-size="14.00" fill="#000000">data_2</text>
<polyline fill="none" stroke="#000000" points="403,-469 477,-469 "/>
<text text-anchor="middle" x="440" y="-453.8" font-family="Times,serif" font-size="14.00" fill="#000000">read_resp</text>
<polyline fill="none" stroke="#000000" points="403,-446 477,-446 "/>
<text text-anchor="middle" x="440" y="-430.8" font-family="Times,serif" font-size="14.00" fill="#000000">write_resp</text>
</g>
<!-- ecpri_tx -->
<g id="node2" class="node">
<title>ecpri_tx</title>
<polygon fill="none" stroke="#000000" points="632.5,-.5 632.5,-230.5 833.5,-230.5 833.5,-.5 632.5,-.5"/>
<text text-anchor="middle" x="669.5" y="-215.3" font-family="Times,serif" font-size="14.00" fill="#000000">read_resp</text>
<polyline fill="none" stroke="#000000" points="632.5,-207.5 706.5,-207.5 "/>
<text text-anchor="middle" x="669.5" y="-192.3" font-family="Times,serif" font-size="14.00" fill="#000000">write_resp</text>
<polyline fill="none" stroke="#000000" points="632.5,-184.5 706.5,-184.5 "/>
<text text-anchor="middle" x="669.5" y="-169.3" font-family="Times,serif" font-size="14.00" fill="#000000">we_0</text>
<polyline fill="none" stroke="#000000" points="632.5,-161.5 706.5,-161.5 "/>
<text text-anchor="middle" x="669.5" y="-146.3" font-family="Times,serif" font-size="14.00" fill="#000000">addr_0</text>
<polyline fill="none" stroke="#000000" points="632.5,-138.5 706.5,-138.5 "/>
<text text-anchor="middle" x="669.5" y="-123.3" font-family="Times,serif" font-size="14.00" fill="#000000">data_0</text>
<polyline fill="none" stroke="#000000" points="632.5,-115.5 706.5,-115.5 "/>
<text text-anchor="middle" x="669.5" y="-100.3" font-family="Times,serif" font-size="14.00" fill="#000000">oe_0</text>
<polyline fill="none" stroke="#000000" points="632.5,-92.5 706.5,-92.5 "/>
<text text-anchor="middle" x="669.5" y="-77.3" font-family="Times,serif" font-size="14.00" fill="#000000">we_1</text>
<polyline fill="none" stroke="#000000" points="632.5,-69.5 706.5,-69.5 "/>
<text text-anchor="middle" x="669.5" y="-54.3" font-family="Times,serif" font-size="14.00" fill="#000000">addr_1</text>
<polyline fill="none" stroke="#000000" points="632.5,-46.5 706.5,-46.5 "/>
<text text-anchor="middle" x="669.5" y="-31.3" font-family="Times,serif" font-size="14.00" fill="#000000">data_1</text>
<polyline fill="none" stroke="#000000" points="632.5,-23.5 706.5,-23.5 "/>
<text text-anchor="middle" x="669.5" y="-8.3" font-family="Times,serif" font-size="14.00" fill="#000000">oe_1</text>
<polyline fill="none" stroke="#000000" points="706.5,-.5 706.5,-230.5 "/>
<text text-anchor="middle" x="737" y="-111.8" font-family="Times,serif" font-size="14.00" fill="#000000">ecpri_tx</text>
<polyline fill="none" stroke="#000000" points="767.5,-.5 767.5,-230.5 "/>
<text text-anchor="middle" x="800.5" y="-203.8" font-family="Times,serif" font-size="14.00" fill="#000000">we_2</text>
<polyline fill="none" stroke="#000000" points="767.5,-184.5 833.5,-184.5 "/>
<text text-anchor="middle" x="800.5" y="-157.8" font-family="Times,serif" font-size="14.00" fill="#000000">addr_2</text>
<polyline fill="none" stroke="#000000" points="767.5,-138.5 833.5,-138.5 "/>
<text text-anchor="middle" x="800.5" y="-111.8" font-family="Times,serif" font-size="14.00" fill="#000000">data_2</text>
<polyline fill="none" stroke="#000000" points="767.5,-92.5 833.5,-92.5 "/>
<text text-anchor="middle" x="800.5" y="-65.8" font-family="Times,serif" font-size="14.00" fill="#000000">oe_2</text>
<polyline fill="none" stroke="#000000" points="767.5,-46.5 833.5,-46.5 "/>
<text text-anchor="middle" x="800.5" y="-19.8" font-family="Times,serif" font-size="14.00" fill="#000000">ip_create</text>
</g>
<!-- ecpri_rx&#45;&gt;ecpri_tx -->
<g id="edge6" class="edge">
<title>ecpri_rx:read_resp&#45;&gt;ecpri_tx:read_resp</title>
<path fill="none" stroke="#000000" d="M477,-457.5C599.6575,-457.5 511.1087,-232.7896 621.8033,-220.0618"/>
<polygon fill="#000000" stroke="#000000" points="622.2077,-223.545 632,-219.5 621.8226,-216.5556 622.2077,-223.545"/>
</g>
<!-- ecpri_rx&#45;&gt;ecpri_tx -->
<g id="edge7" class="edge">
<title>ecpri_rx:write_resp&#45;&gt;ecpri_tx:write_resp</title>
<path fill="none" stroke="#000000" d="M477,-434.5C599.6575,-434.5 511.1087,-209.7896 621.8033,-197.0618"/>
<polygon fill="#000000" stroke="#000000" points="622.2077,-200.545 632,-196.5 621.8226,-193.5556 622.2077,-200.545"/>
</g>
<!-- fifo -->
<g id="node5" class="node">
<title>fifo</title>
<polygon fill="#ffff00" stroke="#000000" points="652,-303.5 652,-349.5 814,-349.5 814,-303.5 652,-303.5"/>
<text text-anchor="middle" x="683.5" y="-334.3" font-family="Times,serif" font-size="14.00" fill="#000000">inp_data</text>
<polyline fill="none" stroke="#000000" points="652,-326.5 715,-326.5 "/>
<text text-anchor="middle" x="683.5" y="-311.3" font-family="Times,serif" font-size="14.00" fill="#000000">we</text>
<polyline fill="none" stroke="#000000" points="715,-303.5 715,-349.5 "/>
<text text-anchor="middle" x="733" y="-322.8" font-family="Times,serif" font-size="14.00" fill="#000000">fifo</text>
<polyline fill="none" stroke="#000000" points="751,-303.5 751,-349.5 "/>
<text text-anchor="middle" x="782.5" y="-334.3" font-family="Times,serif" font-size="14.00" fill="#000000">out_data</text>
<polyline fill="none" stroke="#000000" points="751,-326.5 814,-326.5 "/>
<text text-anchor="middle" x="782.5" y="-311.3" font-family="Times,serif" font-size="14.00" fill="#000000">oe</text>
</g>
<!-- ecpri_rx&#45;&gt;fifo -->
<g id="edge4" class="edge">
<title>ecpri_rx:oe&#45;&gt;fifo:oe</title>
<path fill="none" stroke="#000000" d="M309,-422.5C309,-344.071 402.8875,-394.1604 477,-368.5 555.4031,-341.3541 570.3387,-318.1759 652,-303.5 705.6107,-293.8653 773.5682,-251.2991 782.1057,-293.5265"/>
<polygon fill="#000000" stroke="#000000" points="778.6208,-293.8526 783,-303.5 785.5928,-293.2273 778.6208,-293.8526"/>
</g>
<!-- ram_eth_packet_hdr -->
<g id="node6" class="node">
<title>ram_eth_packet_hdr</title>
<polygon fill="#ff0000" stroke="#000000" points="989,-338.5 989,-430.5 1225,-430.5 1225,-338.5 989,-338.5"/>
<text text-anchor="middle" x="1016" y="-415.3" font-family="Times,serif" font-size="14.00" fill="#000000">addr_0</text>
<polyline fill="none" stroke="#000000" points="989,-407.5 1043,-407.5 "/>
<text text-anchor="middle" x="1016" y="-392.3" font-family="Times,serif" font-size="14.00" fill="#000000">data_0</text>
<polyline fill="none" stroke="#000000" points="989,-384.5 1043,-384.5 "/>
<text text-anchor="middle" x="1016" y="-369.3" font-family="Times,serif" font-size="14.00" fill="#000000">we_0</text>
<polyline fill="none" stroke="#000000" points="989,-361.5 1043,-361.5 "/>
<text text-anchor="middle" x="1016" y="-346.3" font-family="Times,serif" font-size="14.00" fill="#000000">oe_0</text>
<polyline fill="none" stroke="#000000" points="1043,-338.5 1043,-430.5 "/>
<text text-anchor="middle" x="1107" y="-380.8" font-family="Times,serif" font-size="14.00" fill="#000000">ram_eth_packet_hdr</text>
<polyline fill="none" stroke="#000000" points="1171,-338.5 1171,-430.5 "/>
<text text-anchor="middle" x="1198" y="-415.3" font-family="Times,serif" font-size="14.00" fill="#000000">addr_1</text>
<polyline fill="none" stroke="#000000" points="1171,-407.5 1225,-407.5 "/>
<text text-anchor="middle" x="1198" y="-392.3" font-family="Times,serif" font-size="14.00" fill="#000000">data_1</text>
<polyline fill="none" stroke="#000000" points="1171,-384.5 1225,-384.5 "/>
<text text-anchor="middle" x="1198" y="-369.3" font-family="Times,serif" font-size="14.00" fill="#000000">we_1</text>
<polyline fill="none" stroke="#000000" points="1171,-361.5 1225,-361.5 "/>
<text text-anchor="middle" x="1198" y="-346.3" font-family="Times,serif" font-size="14.00" fill="#000000">oe_1</text>
</g>
<!-- ecpri_rx&#45;&gt;ram_eth_packet_hdr -->
<g id="edge8" class="edge">
<title>ecpri_rx:we_0&#45;&gt;ram_eth_packet_hdr:we_0</title>
<path fill="none" stroke="#000000" d="M477,-664.5C640.6914,-664.5 706.845,-767.2956 845,-679.5 969.2164,-600.5622 844.4248,-383.0218 978.8653,-372.8679"/>
<polygon fill="#000000" stroke="#000000" points="979.1336,-376.3606 989,-372.5 978.8796,-369.3652 979.1336,-376.3606"/>
</g>
<!-- ecpri_rx&#45;&gt;ram_eth_packet_hdr -->
<g id="edge9" class="edge">
<title>ecpri_rx:addr_0&#45;&gt;ram_eth_packet_hdr:addr_0</title>
<path fill="none" stroke="#000000" d="M477,-641.5C557.5365,-641.5 544.7096,-725.6951 621,-751.5 715.3068,-783.3989 761.7678,-806.1234 845,-751.5 976.4458,-665.2351 834.8153,-430.3714 978.628,-419.8644"/>
<polygon fill="#000000" stroke="#000000" points="979.1291,-423.349 989,-419.5 978.8832,-416.3534 979.1291,-423.349"/>
</g>
<!-- ecpri_rx&#45;&gt;ram_eth_packet_hdr -->
<g id="edge10" class="edge">
<title>ecpri_rx:data_0&#45;&gt;ram_eth_packet_hdr:data_0</title>
<path fill="none" stroke="#000000" d="M477,-618.5C643.2442,-618.5 699.1973,-631.3668 845,-551.5 924.2468,-508.0908 897.3333,-404.9815 978.5456,-396.9923"/>
<polygon fill="#000000" stroke="#000000" points="979.1758,-400.4666 989,-396.5 978.8464,-393.4744 979.1758,-400.4666"/>
</g>
<!-- ram_cpri_payload -->
<g id="node8" class="node">
<title>ram_cpri_payload</title>
<polygon fill="#ff0000" stroke="#000000" points="621,-422.5 621,-514.5 845,-514.5 845,-422.5 621,-422.5"/>
<text text-anchor="middle" x="648" y="-499.3" font-family="Times,serif" font-size="14.00" fill="#000000">addr_0</text>
<polyline fill="none" stroke="#000000" points="621,-491.5 675,-491.5 "/>
<text text-anchor="middle" x="648" y="-476.3" font-family="Times,serif" font-size="14.00" fill="#000000">data_0</text>
<polyline fill="none" stroke="#000000" points="621,-468.5 675,-468.5 "/>
<text text-anchor="middle" x="648" y="-453.3" font-family="Times,serif" font-size="14.00" fill="#000000">we_0</text>
<polyline fill="none" stroke="#000000" points="621,-445.5 675,-445.5 "/>
<text text-anchor="middle" x="648" y="-430.3" font-family="Times,serif" font-size="14.00" fill="#000000">oe_0</text>
<polyline fill="none" stroke="#000000" points="675,-422.5 675,-514.5 "/>
<text text-anchor="middle" x="733" y="-464.8" font-family="Times,serif" font-size="14.00" fill="#000000">ram_cpri_payload</text>
<polyline fill="none" stroke="#000000" points="791,-422.5 791,-514.5 "/>
<text text-anchor="middle" x="818" y="-499.3" font-family="Times,serif" font-size="14.00" fill="#000000">addr_1</text>
<polyline fill="none" stroke="#000000" points="791,-491.5 845,-491.5 "/>
<text text-anchor="middle" x="818" y="-476.3" font-family="Times,serif" font-size="14.00" fill="#000000">data_1</text>
<polyline fill="none" stroke="#000000" points="791,-468.5 845,-468.5 "/>
<text text-anchor="middle" x="818" y="-453.3" font-family="Times,serif" font-size="14.00" fill="#000000">we_1</text>
<polyline fill="none" stroke="#000000" points="791,-445.5 845,-445.5 "/>
<text text-anchor="middle" x="818" y="-430.3" font-family="Times,serif" font-size="14.00" fill="#000000">oe_1</text>
</g>
<!-- ecpri_rx&#45;&gt;ram_cpri_payload -->
<g id="edge11" class="edge">
<title>ecpri_rx:we_2&#45;&gt;ram_cpri_payload:we_0</title>
<path fill="none" stroke="#000000" d="M477,-526.5C544.5474,-526.5 549.4893,-463.4289 610.6784,-457.0232"/>
<polygon fill="#000000" stroke="#000000" points="611.19,-460.5019 621,-456.5 610.8356,-453.5108 611.19,-460.5019"/>
</g>
<!-- ecpri_rx&#45;&gt;ram_cpri_payload -->
<g id="edge12" class="edge">
<title>ecpri_rx:addr_2&#45;&gt;ram_cpri_payload:addr_0</title>
<path fill="none" stroke="#000000" d="M477,-503.5C537.5,-503.5 555.1064,-503.5 610.915,-503.5"/>
<polygon fill="#000000" stroke="#000000" points="611,-507.0001 621,-503.5 611,-500.0001 611,-507.0001"/>
</g>
<!-- ecpri_rx&#45;&gt;ram_cpri_payload -->
<g id="edge13" class="edge">
<title>ecpri_rx:data_2&#45;&gt;ram_cpri_payload:data_0</title>
<path fill="none" stroke="#000000" d="M477,-480.5C537.5,-480.5 555.1064,-480.5 610.915,-480.5"/>
<polygon fill="#000000" stroke="#000000" points="611,-484.0001 621,-480.5 611,-477.0001 611,-484.0001"/>
</g>
<!-- ip_pkt -->
<g id="node3" class="node">
<title>ip_pkt</title>
<polygon fill="none" stroke="#000000" points="1369,-246 1369,-453 1540,-453 1540,-246 1369,-246"/>
<text text-anchor="middle" x="1402" y="-437.8" font-family="Times,serif" font-size="14.00" fill="#000000">ip_create</text>
<polyline fill="none" stroke="#000000" points="1369,-430 1435,-430 "/>
<text text-anchor="middle" x="1402" y="-414.8" font-family="Times,serif" font-size="14.00" fill="#000000">we_1</text>
<polyline fill="none" stroke="#000000" points="1369,-407 1435,-407 "/>
<text text-anchor="middle" x="1402" y="-391.8" font-family="Times,serif" font-size="14.00" fill="#000000">addr_1</text>
<polyline fill="none" stroke="#000000" points="1369,-384 1435,-384 "/>
<text text-anchor="middle" x="1402" y="-368.8" font-family="Times,serif" font-size="14.00" fill="#000000">data_1</text>
<polyline fill="none" stroke="#000000" points="1369,-361 1435,-361 "/>
<text text-anchor="middle" x="1402" y="-345.8" font-family="Times,serif" font-size="14.00" fill="#000000">oe_1</text>
<polyline fill="none" stroke="#000000" points="1369,-338 1435,-338 "/>
<text text-anchor="middle" x="1402" y="-322.8" font-family="Times,serif" font-size="14.00" fill="#000000">we_2</text>
<polyline fill="none" stroke="#000000" points="1369,-315 1435,-315 "/>
<text text-anchor="middle" x="1402" y="-299.8" font-family="Times,serif" font-size="14.00" fill="#000000">addr_2</text>
<polyline fill="none" stroke="#000000" points="1369,-292 1435,-292 "/>
<text text-anchor="middle" x="1402" y="-276.8" font-family="Times,serif" font-size="14.00" fill="#000000">data_2</text>
<polyline fill="none" stroke="#000000" points="1369,-269 1435,-269 "/>
<text text-anchor="middle" x="1402" y="-253.8" font-family="Times,serif" font-size="14.00" fill="#000000">oe_2</text>
<polyline fill="none" stroke="#000000" points="1435,-246 1435,-453 "/>
<text text-anchor="middle" x="1460.5" y="-345.8" font-family="Times,serif" font-size="14.00" fill="#000000">ip_pkt</text>
<polyline fill="none" stroke="#000000" points="1486,-246 1486,-453 "/>
<text text-anchor="middle" x="1513" y="-423.8" font-family="Times,serif" font-size="14.00" fill="#000000">we_0</text>
<polyline fill="none" stroke="#000000" points="1486,-402 1540,-402 "/>
<text text-anchor="middle" x="1513" y="-372.3" font-family="Times,serif" font-size="14.00" fill="#000000">addr_0</text>
<polyline fill="none" stroke="#000000" points="1486,-350 1540,-350 "/>
<text text-anchor="middle" x="1513" y="-320.3" font-family="Times,serif" font-size="14.00" fill="#000000">data_0</text>
<polyline fill="none" stroke="#000000" points="1486,-298 1540,-298 "/>
<text text-anchor="middle" x="1513" y="-268.3" font-family="Times,serif" font-size="14.00" fill="#000000">oe_0</text>
</g>
<!-- ecpri_tx&#45;&gt;ip_pkt -->
<g id="edge23" class="edge">
<title>ecpri_tx:ip_create&#45;&gt;ip_pkt:ip_create</title>
<path fill="none" stroke="#000000" d="M834,-23.5C1043.0123,-23.5 818.5818,-346.4886 989,-467.5 1124.195,-563.4999 1196.7073,-446.493 1358.7056,-441.6535"/>
<polygon fill="#000000" stroke="#000000" points="1359.0533,-445.1488 1369,-441.5 1358.9489,-438.1496 1359.0533,-445.1488"/>
</g>
<!-- ram_cpri_packet -->
<g id="node7" class="node">
<title>ram_cpri_packet</title>
<polygon fill="#ff0000" stroke="#000000" points="999,-173.5 999,-265.5 1215,-265.5 1215,-173.5 999,-173.5"/>
<text text-anchor="middle" x="1026" y="-250.3" font-family="Times,serif" font-size="14.00" fill="#000000">addr_0</text>
<polyline fill="none" stroke="#000000" points="999,-242.5 1053,-242.5 "/>
<text text-anchor="middle" x="1026" y="-227.3" font-family="Times,serif" font-size="14.00" fill="#000000">data_0</text>
<polyline fill="none" stroke="#000000" points="999,-219.5 1053,-219.5 "/>
<text text-anchor="middle" x="1026" y="-204.3" font-family="Times,serif" font-size="14.00" fill="#000000">we_0</text>
<polyline fill="none" stroke="#000000" points="999,-196.5 1053,-196.5 "/>
<text text-anchor="middle" x="1026" y="-181.3" font-family="Times,serif" font-size="14.00" fill="#000000">oe_0</text>
<polyline fill="none" stroke="#000000" points="1053,-173.5 1053,-265.5 "/>
<text text-anchor="middle" x="1107" y="-215.8" font-family="Times,serif" font-size="14.00" fill="#000000">ram_cpri_packet</text>
<polyline fill="none" stroke="#000000" points="1161,-173.5 1161,-265.5 "/>
<text text-anchor="middle" x="1188" y="-250.3" font-family="Times,serif" font-size="14.00" fill="#000000">addr_1</text>
<polyline fill="none" stroke="#000000" points="1161,-242.5 1215,-242.5 "/>
<text text-anchor="middle" x="1188" y="-227.3" font-family="Times,serif" font-size="14.00" fill="#000000">data_1</text>
<polyline fill="none" stroke="#000000" points="1161,-219.5 1215,-219.5 "/>
<text text-anchor="middle" x="1188" y="-204.3" font-family="Times,serif" font-size="14.00" fill="#000000">we_1</text>
<polyline fill="none" stroke="#000000" points="1161,-196.5 1215,-196.5 "/>
<text text-anchor="middle" x="1188" y="-181.3" font-family="Times,serif" font-size="14.00" fill="#000000">oe_1</text>
</g>
<!-- ecpri_tx&#45;&gt;ram_cpri_packet -->
<g id="edge20" class="edge">
<title>ecpri_tx:we_2&#45;&gt;ram_cpri_packet:we_0</title>
<path fill="none" stroke="#000000" d="M834,-207.5C903.7526,-207.5 923.7452,-207.5 988.6384,-207.5"/>
<polygon fill="#000000" stroke="#000000" points="989,-211.0001 999,-207.5 989,-204.0001 989,-211.0001"/>
</g>
<!-- ecpri_tx&#45;&gt;ram_cpri_packet -->
<g id="edge21" class="edge">
<title>ecpri_tx:addr_2&#45;&gt;ram_cpri_packet:addr_0</title>
<path fill="none" stroke="#000000" d="M834,-161.5C914.5626,-161.5 914.9474,-246.6795 988.6197,-253.9996"/>
<polygon fill="#000000" stroke="#000000" points="988.843,-257.5144 999,-254.5 989.1801,-250.5225 988.843,-257.5144"/>
</g>
<!-- ecpri_tx&#45;&gt;ram_cpri_packet -->
<g id="edge22" class="edge">
<title>ecpri_tx:data_2&#45;&gt;ram_cpri_packet:data_0</title>
<path fill="none" stroke="#000000" d="M834,-115.5C920.1407,-115.5 910.3151,-222.6145 988.9584,-230.9828"/>
<polygon fill="#000000" stroke="#000000" points="988.8332,-234.4809 999,-231.5 989.1933,-227.4902 988.8332,-234.4809"/>
</g>
<!-- ecpri_tx&#45;&gt;ram_cpri_payload -->
<g id="edge17" class="edge">
<title>ecpri_tx:oe_1&#45;&gt;ram_cpri_payload:oe_1</title>
<path fill="none" stroke="#000000" d="M632,-11.5C476.8832,-11.5 467.4503,-218.5497 549,-350.5 567.8091,-380.9338 587.0639,-375.1711 621,-386.5 659.75,-399.4359 793.3627,-381.4573 815.0228,-412.8454"/>
<polygon fill="#000000" stroke="#000000" points="811.7086,-413.9754 818,-422.5 818.3978,-411.9126 811.7086,-413.9754"/>
</g>
<!-- ecpri_tx&#45;&gt;ram_cpri_payload -->
<g id="edge18" class="edge">
<title>ecpri_tx:addr_1&#45;&gt;ram_cpri_payload:addr_1</title>
<path fill="none" stroke="#000000" d="M632,-57.5C497.0813,-57.5 478.069,-234.7313 549,-349.5 567.8091,-379.9338 586.909,-374.6461 621,-385.5 668.9911,-400.7794 812.2092,-381.7722 845,-420 866.6135,-445.1972 879.2549,-492.1306 855.1172,-501.7503"/>
<polygon fill="#000000" stroke="#000000" points="854.2573,-498.347 845,-503.5 855.4502,-505.2446 854.2573,-498.347"/>
</g>
<!-- ip_pkt&#45;&gt;ram_eth_packet_hdr -->
<g id="edge14" class="edge">
<title>ip_pkt:oe_1&#45;&gt;ram_eth_packet_hdr:oe_1</title>
<path fill="none" stroke="#000000" d="M1369,-349.5C1308.5,-349.5 1290.8936,-349.5 1235.085,-349.5"/>
<polygon fill="#000000" stroke="#000000" points="1235,-346.0001 1225,-349.5 1235,-353.0001 1235,-346.0001"/>
</g>
<!-- ip_pkt&#45;&gt;ram_eth_packet_hdr -->
<g id="edge15" class="edge">
<title>ip_pkt:addr_1&#45;&gt;ram_eth_packet_hdr:addr_1</title>
<path fill="none" stroke="#000000" d="M1369,-395.5C1307.6655,-395.5 1291.5912,-416.9468 1235.207,-419.2925"/>
<polygon fill="#000000" stroke="#000000" points="1234.9268,-415.7974 1225,-419.5 1235.0691,-422.7959 1234.9268,-415.7974"/>
</g>
<!-- ip_pkt&#45;&gt;ram_cpri_packet -->
<g id="edge24" class="edge">
<title>ip_pkt:oe_2&#45;&gt;ram_cpri_packet:oe_1</title>
<path fill="none" stroke="#000000" d="M1369,-257.5C1296.8057,-257.5 1291.1411,-191.1833 1225.184,-184.9662"/>
<polygon fill="#000000" stroke="#000000" points="1225.1496,-181.461 1215,-184.5 1224.8295,-188.4537 1225.1496,-181.461"/>
</g>
<!-- ip_pkt&#45;&gt;ram_cpri_packet -->
<g id="edge25" class="edge">
<title>ip_pkt:addr_2&#45;&gt;ram_cpri_packet:addr_1</title>
<path fill="none" stroke="#000000" d="M1369,-303.5C1300.6815,-303.5 1287.9828,-259.1683 1225.0959,-254.8391"/>
<polygon fill="#000000" stroke="#000000" points="1225.1119,-251.3377 1215,-254.5 1224.8769,-258.3338 1225.1119,-251.3377"/>
</g>
<!-- ip_switch -->
<g id="node4" class="node">
<title>ip_switch</title>
<polygon fill="none" stroke="#000000" points="0,-302 0,-371 133,-371 133,-302 0,-302"/>
<text text-anchor="middle" x="34.5" y="-332.8" font-family="Times,serif" font-size="14.00" fill="#000000">ip_switch</text>
<polyline fill="none" stroke="#000000" points="69,-302 69,-371 "/>
<text text-anchor="middle" x="101" y="-355.8" font-family="Times,serif" font-size="14.00" fill="#000000">recv_pkt</text>
<polyline fill="none" stroke="#000000" points="69,-348 133,-348 "/>
<text text-anchor="middle" x="101" y="-332.8" font-family="Times,serif" font-size="14.00" fill="#000000">we</text>
<polyline fill="none" stroke="#000000" points="69,-325 133,-325 "/>
<text text-anchor="middle" x="101" y="-309.8" font-family="Times,serif" font-size="14.00" fill="#000000">out_data</text>
</g>
<!-- ip_switch&#45;&gt;ecpri_rx -->
<g id="edge5" class="edge">
<title>ip_switch:recv_pkt&#45;&gt;ecpri_rx:recv_pkt</title>
<path fill="none" stroke="#000000" d="M133,-359.5C235.7816,-359.5 175.0527,-538.027 266.9761,-549.8823"/>
<polygon fill="#000000" stroke="#000000" points="266.8036,-553.3782 277,-550.5 267.2342,-546.3915 266.8036,-553.3782"/>
</g>
<!-- ip_switch&#45;&gt;fifo -->
<g id="edge1" class="edge">
<title>ip_switch:out_data&#45;&gt;fifo:inp_data</title>
<path fill="none" stroke="#000000" d="M133,-313.5C360.5513,-313.5 419.3548,-337.7729 641.9623,-338.4841"/>
<polygon fill="#000000" stroke="#000000" points="641.9944,-341.984 652,-338.5 642.0056,-334.984 641.9944,-341.984"/>
</g>
<!-- ip_switch&#45;&gt;fifo -->
<g id="edge2" class="edge">
<title>ip_switch:we&#45;&gt;fifo:we</title>
<path fill="none" stroke="#000000" d="M133,-336.5C199.0789,-336.5 211.4429,-307.7877 277,-299.5 365.187,-288.3515 388.1923,-295.7009 477,-299.5 551.4881,-302.6865 572.1158,-313.4689 641.827,-314.4312"/>
<polygon fill="#000000" stroke="#000000" points="641.9765,-317.9322 652,-314.5 642.0239,-310.9324 641.9765,-317.9322"/>
</g>
<!-- fifo&#45;&gt;ecpri_rx -->
<g id="edge3" class="edge">
<title>fifo:out_data&#45;&gt;ecpri_rx:inp_data</title>
<path fill="none" stroke="#000000" d="M783,-349.5C783,-423.354 679.0153,-340.7984 621,-386.5 507.9576,-475.5492 599.3074,-600.6762 477,-676.5 416.6377,-713.9213 319.111,-747.7074 309.7308,-686.6631"/>
<polygon fill="#000000" stroke="#000000" points="313.2083,-686.2232 309,-676.5 306.2263,-686.7253 313.2083,-686.2232"/>
</g>
<!-- ram_eth_packet_hdr&#45;&gt;ip_pkt -->
<g id="edge16" class="edge">
<title>ram_eth_packet_hdr:data_1&#45;&gt;ip_pkt:data_1</title>
<path fill="none" stroke="#000000" d="M1225,-396.5C1286.3345,-396.5 1302.4088,-375.0532 1358.793,-372.7075"/>
<polygon fill="#000000" stroke="#000000" points="1359.0732,-376.2026 1369,-372.5 1358.9309,-369.2041 1359.0732,-376.2026"/>
</g>
<!-- ram_cpri_packet&#45;&gt;ip_pkt -->
<g id="edge26" class="edge">
<title>ram_cpri_packet:data_1&#45;&gt;ip_pkt:data_2</title>
<path fill="none" stroke="#000000" d="M1215,-231.5C1283.3185,-231.5 1296.0172,-275.8317 1358.9041,-280.1609"/>
<polygon fill="#000000" stroke="#000000" points="1358.8881,-283.6623 1369,-280.5 1359.1231,-276.6662 1358.8881,-283.6623"/>
</g>
<!-- ram_cpri_payload&#45;&gt;ecpri_tx -->
<g id="edge19" class="edge">
<title>ram_cpri_payload:data_1&#45;&gt;ecpri_tx:data_1</title>
<path fill="none" stroke="#000000" d="M845,-480.5C871.8889,-480.5 862.5065,-440.4092 845,-420 812.2092,-381.7722 668.9911,-400.7794 621,-385.5 586.909,-374.6461 567.8091,-379.9338 549,-349.5 474.7437,-229.3509 486.5755,-43.8264 621.6288,-34.8393"/>
<polygon fill="#000000" stroke="#000000" points="622.1198,-38.3252 632,-34.5 621.8909,-31.3289 622.1198,-38.3252"/>
</g>
</g>
</svg>
