<?xml version="1.0" encoding="UTF-8" standalone="no"?><svg xmlns="http://www.w3.org/2000/svg" xmlns:xlink="http://www.w3.org/1999/xlink" contentScriptType="application/ecmascript" contentStyleType="text/css" height="2205px" preserveAspectRatio="none" style="width:1461px;height:2205px;" version="1.1" viewBox="0 0 1461 2205" width="1461px" zoomAndPan="magnify"><defs><filter height="300%" id="fbewjvkedw1ii" width="300%" x="-1" y="-1"><feGaussianBlur result="blurOut" stdDeviation="2.0"/><feColorMatrix in="blurOut" result="blurOut2" type="matrix" values="0 0 0 0 0 0 0 0 0 0 0 0 0 0 0 0 0 0 .4 0"/><feOffset dx="4.0" dy="4.0" in="blurOut2" result="blurOut3"/><feBlend in="SourceGraphic" in2="blurOut3" mode="normal"/></filter></defs><g><rect fill="#FEFECE" filter="url(#fbewjvkedw1ii)" height="2186.2969" rx="12.5" ry="12.5" style="stroke: #A80036; stroke-width: 1.5;" width="1443" x="6" y="8"/><rect fill="#FFFFFF" height="2154" rx="12.5" ry="12.5" style="stroke: #FFFFFF; stroke-width: 1.0;" width="1437" x="9" y="37.2969"/><line style="stroke: #A80036; stroke-width: 1.5;" x1="6" x2="1449" y1="34.2969" y2="34.2969"/><text fill="#000000" font-family="sans-serif" font-size="14" lengthAdjust="spacingAndGlyphs" textLength="34" x="710.5" y="25.9951">ecpri</text><rect fill="#FEFECE" filter="url(#fbewjvkedw1ii)" height="50" rx="12.5" ry="12.5" style="stroke: #A80036; stroke-width: 1.5;" width="56" x="945" y="47.2969"/><line style="stroke: #A80036; stroke-width: 1.5;" x1="945" x2="1001" y1="73.5938" y2="73.5938"/><text fill="#000000" font-family="sans-serif" font-size="14" lengthAdjust="spacingAndGlyphs" textLength="36" x="955" y="65.292">reset</text><rect fill="#FEFECE" filter="url(#fbewjvkedw1ii)" height="825.2969" rx="12.5" ry="12.5" style="stroke: #A80036; stroke-width: 1.5;" width="920" x="17" y="150.2969"/><rect fill="#FFFFFF" height="793" rx="12.5" ry="12.5" style="stroke: #FFFFFF; stroke-width: 1.0;" width="914" x="20" y="179.5938"/><line style="stroke: #A80036; stroke-width: 1.5;" x1="17" x2="937" y1="176.5938" y2="176.5938"/><text fill="#000000" font-family="sans-serif" font-size="14" lengthAdjust="spacingAndGlyphs" textLength="53" x="450.5" y="168.292">ecpri_rx</text><rect fill="#FEFECE" filter="url(#fbewjvkedw1ii)" height="50" rx="12.5" ry="12.5" style="stroke: #A80036; stroke-width: 1.5;" width="75" x="437.5" y="189.5938"/><line style="stroke: #A80036; stroke-width: 1.5;" x1="437.5" x2="512.5" y1="215.8906" y2="215.8906"/><text fill="#000000" font-family="sans-serif" font-size="14" lengthAdjust="spacingAndGlyphs" textLength="55" x="447.5" y="207.5889">reset_rx</text><rect fill="#FEFECE" filter="url(#fbewjvkedw1ii)" height="50" rx="12.5" ry="12.5" style="stroke: #A80036; stroke-width: 1.5;" width="75" x="296.5" y="292.5938"/><line style="stroke: #A80036; stroke-width: 1.5;" x1="296.5" x2="371.5" y1="318.8906" y2="318.8906"/><text fill="#000000" font-family="sans-serif" font-size="14" lengthAdjust="spacingAndGlyphs" textLength="55" x="306.5" y="310.5889">cpri_hdr</text><rect fill="#FEFECE" filter="url(#fbewjvkedw1ii)" height="50" rx="12.5" ry="12.5" style="stroke: #A80036; stroke-width: 1.5;" width="82" x="293" y="395.5938"/><line style="stroke: #A80036; stroke-width: 1.5;" x1="293" x2="375" y1="421.8906" y2="421.8906"/><text fill="#000000" font-family="sans-serif" font-size="14" lengthAdjust="spacingAndGlyphs" textLength="62" x="303" y="413.5889">cpri_type</text><rect fill="#FEFECE" filter="url(#fbewjvkedw1ii)" height="50" rx="12.5" ry="12.5" style="stroke: #A80036; stroke-width: 1.5;" width="51" x="366.5" y="498.5938"/><line style="stroke: #A80036; stroke-width: 1.5;" x1="366.5" x2="417.5" y1="524.8906" y2="524.8906"/><text fill="#000000" font-family="sans-serif" font-size="14" lengthAdjust="spacingAndGlyphs" textLength="31" x="376.5" y="516.5889">read</text><rect fill="#FEFECE" filter="url(#fbewjvkedw1ii)" height="50" rx="12.5" ry="12.5" style="stroke: #A80036; stroke-width: 1.5;" width="53" x="158.5" y="498.5938"/><line style="stroke: #A80036; stroke-width: 1.5;" x1="158.5" x2="211.5" y1="524.8906" y2="524.8906"/><text fill="#000000" font-family="sans-serif" font-size="14" lengthAdjust="spacingAndGlyphs" textLength="33" x="168.5" y="516.5889">write</text><rect fill="#FEFECE" filter="url(#fbewjvkedw1ii)" height="50" rx="12.5" ry="12.5" style="stroke: #A80036; stroke-width: 1.5;" width="93" x="524.5" y="601.5938"/><line style="stroke: #A80036; stroke-width: 1.5;" x1="524.5" x2="617.5" y1="627.8906" y2="627.8906"/><text fill="#000000" font-family="sans-serif" font-size="14" lengthAdjust="spacingAndGlyphs" textLength="73" x="534.5" y="619.5889">read_mem</text><rect fill="#FEFECE" filter="url(#fbewjvkedw1ii)" height="50" rx="12.5" ry="12.5" style="stroke: #A80036; stroke-width: 1.5;" width="111" x="603.5" y="704.5938"/><line style="stroke: #A80036; stroke-width: 1.5;" x1="603.5" x2="714.5" y1="730.8906" y2="730.8906"/><text fill="#000000" font-family="sans-serif" font-size="14" lengthAdjust="spacingAndGlyphs" textLength="91" x="613.5" y="722.5889">read_payload</text><rect fill="#FEFECE" filter="url(#fbewjvkedw1ii)" height="50" rx="12.5" ry="12.5" style="stroke: #A80036; stroke-width: 1.5;" width="110" x="655" y="807.5938"/><line style="stroke: #A80036; stroke-width: 1.5;" x1="655" x2="765" y1="833.8906" y2="833.8906"/><text fill="#000000" font-family="sans-serif" font-size="14" lengthAdjust="spacingAndGlyphs" textLength="90" x="665" y="825.5889">raise_rx_resp</text><rect fill="#FEFECE" filter="url(#fbewjvkedw1ii)" height="50" rx="12.5" ry="12.5" style="stroke: #A80036; stroke-width: 1.5;" width="95" x="99.5" y="601.5938"/><line style="stroke: #A80036; stroke-width: 1.5;" x1="99.5" x2="194.5" y1="627.8906" y2="627.8906"/><text fill="#000000" font-family="sans-serif" font-size="14" lengthAdjust="spacingAndGlyphs" textLength="75" x="109.5" y="619.5889">write_mem</text><rect fill="#FEFECE" filter="url(#fbewjvkedw1ii)" height="50" rx="12.5" ry="12.5" style="stroke: #A80036; stroke-width: 1.5;" width="113" x="90.5" y="704.5938"/><line style="stroke: #A80036; stroke-width: 1.5;" x1="90.5" x2="203.5" y1="730.8906" y2="730.8906"/><text fill="#000000" font-family="sans-serif" font-size="14" lengthAdjust="spacingAndGlyphs" textLength="93" x="100.5" y="722.5889">write_payload</text><rect fill="#FEFECE" filter="url(#fbewjvkedw1ii)" height="50" rx="12.5" ry="12.5" style="stroke: #A80036; stroke-width: 1.5;" width="116" x="518" y="807.5938"/><line style="stroke: #A80036; stroke-width: 1.5;" x1="518" x2="634" y1="833.8906" y2="833.8906"/><text fill="#000000" font-family="sans-serif" font-size="14" lengthAdjust="spacingAndGlyphs" textLength="96" x="528" y="825.5889">write_to_mem</text><rect fill="#FEFECE" filter="url(#fbewjvkedw1ii)" height="50" rx="12.5" ry="12.5" style="stroke: #A80036; stroke-width: 1.5;" width="110" x="642" y="910.5938"/><line style="stroke: #A80036; stroke-width: 1.5;" x1="642" x2="752" y1="936.8906" y2="936.8906"/><text fill="#000000" font-family="sans-serif" font-size="14" lengthAdjust="spacingAndGlyphs" textLength="90" x="652" y="928.5889">raise_tx_resp</text><!--link reset_rx to cpri_hdr--><path d="M437.2622,217.4082 C361.8874,223.4136 198.4907,238.5063 182,257.5938 C149.0292,295.7565 235.1405,309.8502 290.8515,314.9004 " fill="none" id="reset_rx-cpri_hdr" style="stroke: #A80036; stroke-width: 1.0;"/><polygon fill="#A80036" points="296.1429,315.3614,287.5241,310.5952,291.1618,314.9274,286.8297,318.5651,296.1429,315.3614" style="stroke: #A80036; stroke-width: 1.0;"/><text fill="#000000" font-family="sans-serif" font-size="13" lengthAdjust="spacingAndGlyphs" textLength="183" x="183" y="270.6606">ip_pkt_recv / find cpri header</text><!--link cpri_hdr to reset_rx--><path d="M353.8101,292.5901 C363.8264,280.9974 376.6692,267.6045 390,257.5938 C402.9504,247.8687 418.4313,239.2917 432.6115,232.4073 " fill="none" id="cpri_hdr-reset_rx" style="stroke: #A80036; stroke-width: 1.0;"/><polygon fill="#A80036" points="437.3651,230.1383,427.5199,230.4053,432.8528,232.2922,430.966,237.6251,437.3651,230.1383" style="stroke: #A80036; stroke-width: 1.0;"/><text fill="#000000" font-family="sans-serif" font-size="13" lengthAdjust="spacingAndGlyphs" textLength="155" x="391" y="270.6606">/ did not find cpri header</text><!--link cpri_hdr to cpri_type--><path d="M334,342.7904 C334,357.1305 334,375.1899 334,390.299 " fill="none" id="cpri_hdr-cpri_type" style="stroke: #A80036; stroke-width: 1.0;"/><polygon fill="#A80036" points="334,395.3003,338,386.3003,334,390.3003,330,386.3003,334,395.3003" style="stroke: #A80036; stroke-width: 1.0;"/><text fill="#000000" font-family="sans-serif" font-size="13" lengthAdjust="spacingAndGlyphs" textLength="114" x="335" y="373.6606">/ find cpri pkt type</text><!--link cpri_type to read--><path d="M348.1884,445.7904 C356.3336,460.2553 366.6098,478.5044 375.1624,493.6926 " fill="none" id="cpri_type-read" style="stroke: #A80036; stroke-width: 1.0;"/><polygon fill="#A80036" points="377.7571,498.3003,376.8267,488.4954,375.3039,493.9435,369.8558,492.4206,377.7571,498.3003" style="stroke: #A80036; stroke-width: 1.0;"/><text fill="#000000" font-family="sans-serif" font-size="13" lengthAdjust="spacingAndGlyphs" textLength="183" x="367" y="476.6606">/ chech the read parameters</text><!--link cpri_type to write--><path d="M292.83,431.9733 C276.9628,436.3085 258.6562,441.2492 242,445.5938 C210.0831,453.919 190.2993,437.595 170,463.5938 C163.2956,472.1806 164.2617,483.3857 167.8714,493.7848 " fill="none" id="cpri_type-write" style="stroke: #A80036; stroke-width: 1.0;"/><polygon fill="#A80036" points="169.6978,498.4938,170.1724,488.6563,167.8896,493.8321,162.7138,491.5494,169.6978,498.4938" style="stroke: #A80036; stroke-width: 1.0;"/><text fill="#000000" font-family="sans-serif" font-size="13" lengthAdjust="spacingAndGlyphs" textLength="183" x="171" y="476.6606">/ check the write parameters</text><!--link read to read_mem--><path d="M414.4308,548.8401 C425.9397,560.628 440.7303,574.1163 456,583.5938 C475.4489,595.6653 498.8176,605.1759 519.3949,612.1499 " fill="none" id="read-read_mem" style="stroke: #A80036; stroke-width: 1.0;"/><polygon fill="#A80036" points="524.2866,613.7783,517.0107,607.1404,519.5426,612.199,514.4839,614.7308,524.2866,613.7783" style="stroke: #A80036; stroke-width: 1.0;"/><text fill="#000000" font-family="sans-serif" font-size="13" lengthAdjust="spacingAndGlyphs" textLength="99" x="457" y="579.6606">/check memory</text><!--link read_mem to reset_rx--><path d="M572.3227,601.493 C575.7386,528.0797 582.2832,315.3122 547,257.5938 C540.028,246.1885 528.7959,237.4331 517.2563,230.8941 " fill="none" id="read_mem-reset_rx" style="stroke: #A80036; stroke-width: 1.0;"/><polygon fill="#A80036" points="512.6538,228.4062,518.6689,236.2047,517.0523,230.7838,522.4732,229.1672,512.6538,228.4062" style="stroke: #A80036; stroke-width: 1.0;"/><text fill="#000000" font-family="sans-serif" font-size="13" lengthAdjust="spacingAndGlyphs" textLength="106" x="575" y="425.1606">/ invalid memory</text><!--link read_mem to read_payload--><path d="M569.3394,651.8047 C569.7732,663.3085 572.0659,676.5677 579,686.5938 C584.2218,694.1438 591.206,700.4839 598.881,705.7737 " fill="none" id="read_mem-read_payload" style="stroke: #A80036; stroke-width: 1.0;"/><polygon fill="#A80036" points="603.2091,708.6054,597.868,700.3305,599.0251,705.8678,593.4879,707.0249,603.2091,708.6054" style="stroke: #A80036; stroke-width: 1.0;"/><text fill="#000000" font-family="sans-serif" font-size="13" lengthAdjust="spacingAndGlyphs" textLength="99" x="580" y="682.6606">/ check payload</text><!--link read_payload to reset_rx--><path d="M673.5945,704.3648 C676.2237,698.6913 678.5782,692.575 680,686.5938 C697.4929,613.0033 686.8508,405.956 683,395.5938 C654.7886,319.6785 628.2452,306.9046 564,257.5938 C550.0597,246.894 533.0306,237.8737 517.6145,230.9014 " fill="none" id="read_payload-reset_rx" style="stroke: #A80036; stroke-width: 1.0;"/><polygon fill="#A80036" points="512.8873,228.8038,519.4914,236.1103,517.4576,230.8317,522.7362,228.7979,512.8873,228.8038" style="stroke: #A80036; stroke-width: 1.0;"/><text fill="#000000" font-family="sans-serif" font-size="13" lengthAdjust="spacingAndGlyphs" textLength="85" x="689" y="476.6606">/ pyload error</text><!--link read_payload to raise_rx_resp--><path d="M654.9077,754.8662 C654.2199,765.9962 655.0006,778.9356 660,789.5938 C662.3824,794.6729 665.6846,799.3829 669.4673,803.6793 " fill="none" id="read_payload-raise_rx_resp" style="stroke: #A80036; stroke-width: 1.0;"/><polygon fill="#A80036" points="673.0635,807.5072,669.8164,798.209,669.64,803.8631,663.9859,803.6866,673.0635,807.5072" style="stroke: #A80036; stroke-width: 1.0;"/><text fill="#000000" font-family="sans-serif" font-size="13" lengthAdjust="spacingAndGlyphs" textLength="120" x="661" y="785.6606">/ create_read_resp</text><!--link raise_rx_resp to reset_rx--><path d="M763.6488,807.4533 C770.5997,802.3496 777.0193,796.4131 782,789.5938 C798.1508,767.481 796,756.9768 796,729.5938 C796,317.5938 796,317.5938 796,317.5938 C796,259.8505 605.294,229.9294 517.8662,219.2464 " fill="none" id="raise_rx_resp-reset_rx" style="stroke: #A80036; stroke-width: 1.0;"/><polygon fill="#A80036" points="512.7667,218.6309,521.2224,223.6807,517.7307,219.2301,522.1812,215.7384,512.7667,218.6309" style="stroke: #A80036; stroke-width: 1.0;"/><text fill="#000000" font-family="sans-serif" font-size="13" lengthAdjust="spacingAndGlyphs" textLength="40" x="797" y="528.1606">/ done</text><!--link write to write_mem--><path d="M175.7042,548.7904 C170.4136,563.1306 163.7509,581.19 158.1767,596.2991 " fill="none" id="write-write_mem" style="stroke: #A80036; stroke-width: 1.0;"/><polygon fill="#A80036" points="156.3316,601.3003,163.1996,594.2411,158.0623,596.6093,155.6941,591.472,156.3316,601.3003" style="stroke: #A80036; stroke-width: 1.0;"/><text fill="#000000" font-family="sans-serif" font-size="13" lengthAdjust="spacingAndGlyphs" textLength="103" x="170" y="579.6606">/ check memory</text><!--link write_mem to reset_rx--><path d="M140.476,601.3878 C135.6819,580.6515 130,550.4171 130,523.5938 C130,317.5938 130,317.5938 130,317.5938 C130,285.2958 143.5658,274.6385 171,257.5938 C213.7781,231.016 359.0398,220.2459 432.1818,216.4277 " fill="none" id="write_mem-reset_rx" style="stroke: #A80036; stroke-width: 1.0;"/><polygon fill="#A80036" points="437.321,216.1648,428.1283,212.63,432.3275,216.4203,428.5372,220.6195,437.321,216.1648" style="stroke: #A80036; stroke-width: 1.0;"/><text fill="#000000" font-family="sans-serif" font-size="13" lengthAdjust="spacingAndGlyphs" textLength="106" x="131" y="425.1606">/ invalid memory</text><!--link write_mem to write_payload--><path d="M147,651.7904 C147,666.1306 147,684.19 147,699.2991 " fill="none" id="write_mem-write_payload" style="stroke: #A80036; stroke-width: 1.0;"/><polygon fill="#A80036" points="147,704.3003,151,695.3003,147,699.3003,143,695.3003,147,704.3003" style="stroke: #A80036; stroke-width: 1.0;"/><text fill="#000000" font-family="sans-serif" font-size="13" lengthAdjust="spacingAndGlyphs" textLength="99" x="148" y="682.6606">/ check payload</text><!--link write_payload to reset_rx--><path d="M90.2882,705.8934 C59.6384,688.9186 28,662.6612 28,626.5938 C28,317.5938 28,317.5938 28,317.5938 C28,235.1826 320.16,218.7021 432.0827,215.4122 " fill="none" id="write_payload-reset_rx" style="stroke: #A80036; stroke-width: 1.0;"/><polygon fill="#A80036" points="437.2743,215.2654,428.1647,211.5218,432.2763,215.4069,428.3912,219.5186,437.2743,215.2654" style="stroke: #A80036; stroke-width: 1.0;"/><text fill="#000000" font-family="sans-serif" font-size="13" lengthAdjust="spacingAndGlyphs" textLength="85" x="29" y="476.6606">/ pyload error</text><!--link write_payload to write_to_mem--><path d="M203.5254,743.1652 C283.611,762.3932 429.6233,797.4497 513.0657,817.4837 " fill="none" id="write_payload-write_to_mem" style="stroke: #A80036; stroke-width: 1.0;"/><polygon fill="#A80036" points="517.9768,818.6628,510.1595,812.672,513.115,817.4953,508.2916,820.4508,517.9768,818.6628" style="stroke: #A80036; stroke-width: 1.0;"/><text fill="#000000" font-family="sans-serif" font-size="13" lengthAdjust="spacingAndGlyphs" textLength="113" x="388" y="785.6606">/ copy to memory</text><!--link write_to_mem to raise_tx_resp--><path d="M605.5999,857.7904 C623.032,872.6293 645.1427,891.4508 663.2503,906.8647 " fill="none" id="write_to_mem-raise_tx_resp" style="stroke: #A80036; stroke-width: 1.0;"/><polygon fill="#A80036" points="667.2863,910.3003,663.026,901.4205,663.479,907.0592,657.8403,907.5122,667.2863,910.3003" style="stroke: #A80036; stroke-width: 1.0;"/><text fill="#000000" font-family="sans-serif" font-size="13" lengthAdjust="spacingAndGlyphs" textLength="121" x="644" y="888.6606">/ create_write_resp</text><!--link raise_tx_resp to reset_rx--><path d="M752.3369,925.7351 C801.6245,913.3936 866,886.8827 866,832.5938 C866,317.5938 866,317.5938 866,317.5938 C866,246.2315 619.3694,223.2532 517.861,216.818 " fill="none" id="raise_tx_resp-reset_rx" style="stroke: #A80036; stroke-width: 1.0;"/><polygon fill="#A80036" points="512.846,216.506,521.5803,221.0571,517.8364,216.8165,522.077,213.0725,512.846,216.506" style="stroke: #A80036; stroke-width: 1.0;"/><text fill="#000000" font-family="sans-serif" font-size="13" lengthAdjust="spacingAndGlyphs" textLength="36" x="867" y="579.6606">/done</text><rect fill="#FEFECE" filter="url(#fbewjvkedw1ii)" height="582.2969" rx="12.5" ry="12.5" style="stroke: #A80036; stroke-width: 1.5;" width="742" x="386" y="1028.2969"/><rect fill="#FFFFFF" height="550" rx="12.5" ry="12.5" style="stroke: #FFFFFF; stroke-width: 1.0;" width="736" x="389" y="1057.5938"/><line style="stroke: #A80036; stroke-width: 1.5;" x1="386" x2="1128" y1="1054.5938" y2="1054.5938"/><text fill="#000000" font-family="sans-serif" font-size="14" lengthAdjust="spacingAndGlyphs" textLength="53" x="730.5" y="1046.292">ecpri_tx</text><rect fill="#FEFECE" filter="url(#fbewjvkedw1ii)" height="50" rx="12.5" ry="12.5" style="stroke: #A80036; stroke-width: 1.5;" width="75" x="738.5" y="1067.5938"/><line style="stroke: #A80036; stroke-width: 1.5;" x1="738.5" x2="813.5" y1="1093.8906" y2="1093.8906"/><text fill="#000000" font-family="sans-serif" font-size="14" lengthAdjust="spacingAndGlyphs" textLength="55" x="748.5" y="1085.5889">reset_tx</text><rect fill="#FEFECE" filter="url(#fbewjvkedw1ii)" height="50" rx="12.5" ry="12.5" style="stroke: #A80036; stroke-width: 1.5;" width="89" x="477.5" y="1170.5938"/><line style="stroke: #A80036; stroke-width: 1.5;" x1="477.5" x2="566.5" y1="1196.8906" y2="1196.8906"/><text fill="#000000" font-family="sans-serif" font-size="14" lengthAdjust="spacingAndGlyphs" textLength="69" x="487.5" y="1188.5889">read_resp</text><rect fill="#FEFECE" filter="url(#fbewjvkedw1ii)" height="50" rx="12.5" ry="12.5" style="stroke: #A80036; stroke-width: 1.5;" width="91" x="730.5" y="1238.5938"/><line style="stroke: #A80036; stroke-width: 1.5;" x1="730.5" x2="821.5" y1="1264.8906" y2="1264.8906"/><text fill="#000000" font-family="sans-serif" font-size="14" lengthAdjust="spacingAndGlyphs" textLength="71" x="740.5" y="1256.5889">write_resp</text><rect fill="#FEFECE" filter="url(#fbewjvkedw1ii)" height="50" rx="12.5" ry="12.5" style="stroke: #A80036; stroke-width: 1.5;" width="172" x="585" y="1374.5938"/><line style="stroke: #A80036; stroke-width: 1.5;" x1="585" x2="757" y1="1400.8906" y2="1400.8906"/><text fill="#000000" font-family="sans-serif" font-size="14" lengthAdjust="spacingAndGlyphs" textLength="152" x="595" y="1392.5889">create_write_resp_hdr</text><rect fill="#FEFECE" filter="url(#fbewjvkedw1ii)" height="50" rx="12.5" ry="12.5" style="stroke: #A80036; stroke-width: 1.5;" width="85" x="628.5" y="1545.5938"/><line style="stroke: #A80036; stroke-width: 1.5;" x1="628.5" x2="713.5" y1="1571.8906" y2="1571.8906"/><text fill="#000000" font-family="sans-serif" font-size="14" lengthAdjust="spacingAndGlyphs" textLength="65" x="638.5" y="1563.5889">complete</text><rect fill="#FEFECE" filter="url(#fbewjvkedw1ii)" height="50" rx="12.5" ry="12.5" style="stroke: #A80036; stroke-width: 1.5;" width="170" x="397" y="1306.5938"/><line style="stroke: #A80036; stroke-width: 1.5;" x1="397" x2="567" y1="1332.8906" y2="1332.8906"/><text fill="#000000" font-family="sans-serif" font-size="14" lengthAdjust="spacingAndGlyphs" textLength="150" x="407" y="1324.5889">create_read_resp_hdr</text><rect fill="#FEFECE" filter="url(#fbewjvkedw1ii)" height="50" rx="12.5" ry="12.5" style="stroke: #A80036; stroke-width: 1.5;" width="133" x="458.5" y="1442.5938"/><line style="stroke: #A80036; stroke-width: 1.5;" x1="458.5" x2="591.5" y1="1468.8906" y2="1468.8906"/><text fill="#000000" font-family="sans-serif" font-size="14" lengthAdjust="spacingAndGlyphs" textLength="113" x="468.5" y="1460.5889">copy_from_mem</text><!--link reset_tx to read_resp--><path d="M738.4735,1102.6598 C710.8302,1110.5058 672.5457,1122.2797 640,1135.5938 C616.8625,1145.0591 592.0838,1157.3131 571.2356,1168.2771 " fill="none" id="reset_tx-read_resp" style="stroke: #A80036; stroke-width: 1.0;"/><polygon fill="#A80036" points="566.5752,1170.7408,576.4012,1170.0708,570.9955,1168.4039,572.6624,1162.9982,566.5752,1170.7408" style="stroke: #A80036; stroke-width: 1.0;"/><text fill="#000000" font-family="sans-serif" font-size="13" lengthAdjust="spacingAndGlyphs" textLength="112" x="641" y="1148.6606">create_read_resp</text><!--link reset_tx to write_resp--><path d="M776,1117.8254 C776,1148.6022 776,1200.577 776,1233.4342 " fill="none" id="reset_tx-write_resp" style="stroke: #A80036; stroke-width: 1.0;"/><polygon fill="#A80036" points="776,1238.5372,780,1229.5372,776,1233.5372,772,1229.5372,776,1238.5372" style="stroke: #A80036; stroke-width: 1.0;"/><text fill="#000000" font-family="sans-serif" font-size="13" lengthAdjust="spacingAndGlyphs" textLength="113" x="777" y="1148.6606">create_write_resp</text><!--link write_resp to create_write_resp_hdr--><path d="M730.2938,1286.4629 C728.5162,1287.2044 726.7473,1287.9178 725,1288.5938 C698.2397,1298.9474 680.2302,1283.6498 663,1306.5938 C649.6331,1324.3933 652.9137,1349.8662 658.8253,1369.6536 " fill="none" id="write_resp-create_write_resp_hdr" style="stroke: #A80036; stroke-width: 1.0;"/><polygon fill="#A80036" points="660.3764,1374.5537,661.4737,1364.7661,658.8674,1369.7868,653.8467,1367.1805,660.3764,1374.5537" style="stroke: #A80036; stroke-width: 1.0;"/><text fill="#000000" font-family="sans-serif" font-size="13" lengthAdjust="spacingAndGlyphs" textLength="241" x="664" y="1336.1606">/ copy the header and set the resp bit</text><!--link create_write_resp_hdr to complete--><path d="M671,1424.8254 C671,1455.6022 671,1507.577 671,1540.4342 " fill="none" id="create_write_resp_hdr-complete" style="stroke: #A80036; stroke-width: 1.0;"/><polygon fill="#A80036" points="671,1545.5372,675,1536.5372,671,1540.5372,667,1536.5372,671,1545.5372" style="stroke: #A80036; stroke-width: 1.0;"/><text fill="#000000" font-family="sans-serif" font-size="13" lengthAdjust="spacingAndGlyphs" textLength="145" x="672" y="1472.1606">/ zero paylod response</text><!--link read_resp to create_read_resp_hdr--><path d="M489.7855,1220.7564 C484.9845,1226.0914 480.7351,1232.0966 478,1238.5938 C469.6896,1258.3351 471.0565,1282.5634 474.3077,1301.3408 " fill="none" id="read_resp-create_read_resp_hdr" style="stroke: #A80036; stroke-width: 1.0;"/><polygon fill="#A80036" points="475.2683,1306.4842,477.5479,1296.9027,474.3503,1301.5691,469.6839,1298.3715,475.2683,1306.4842" style="stroke: #A80036; stroke-width: 1.0;"/><text fill="#000000" font-family="sans-serif" font-size="13" lengthAdjust="spacingAndGlyphs" textLength="241" x="479" y="1268.1606">/ copy the header and set the resp bit</text><!--link create_read_resp_hdr to copy_from_mem--><path d="M475.0685,1356.7894 C471.0918,1376.1612 468.554,1403.1489 478,1424.5938 C480.1845,1429.5531 483.2546,1434.1893 486.7913,1438.4444 " fill="none" id="create_read_resp_hdr-copy_from_mem" style="stroke: #A80036; stroke-width: 1.0;"/><polygon fill="#A80036" points="490.1585,1442.2433,487.1824,1432.8548,486.8421,1438.5014,481.1955,1438.1611,490.1585,1442.2433" style="stroke: #A80036; stroke-width: 1.0;"/><text fill="#000000" font-family="sans-serif" font-size="13" lengthAdjust="spacingAndGlyphs" textLength="96" x="479" y="1404.1606">/ copy the data</text><!--link copy_from_mem to complete--><path d="M560.7156,1492.7904 C582.0053,1507.8099 609.0784,1526.9094 631.0725,1542.4257 " fill="none" id="copy_from_mem-complete" style="stroke: #A80036; stroke-width: 1.0;"/><polygon fill="#A80036" points="635.4004,1545.479,630.3523,1537.0222,631.3149,1542.5965,625.7405,1543.559,635.4004,1545.479" style="stroke: #A80036; stroke-width: 1.0;"/><text fill="#000000" font-family="sans-serif" font-size="13" lengthAdjust="spacingAndGlyphs" textLength="40" x="608" y="1523.6606">/ done</text><!--link complete to reset_tx--><path d="M713.7268,1562.6325 C786.8058,1547.7853 928,1513.1983 928,1467.5938 C928,1195.5938 928,1195.5938 928,1195.5938 C928,1165.1599 918.1324,1155.3704 895,1135.5938 C873.4104,1117.1362 843.2715,1106.3541 818.7274,1100.2027 " fill="none" id="complete-reset_tx" style="stroke: #A80036; stroke-width: 1.0;"/><polygon fill="#A80036" points="813.58,1098.9592,821.389,1104.9609,818.4402,1100.1334,823.2676,1097.1846,813.58,1098.9592" style="stroke: #A80036; stroke-width: 1.0;"/><text fill="#000000" font-family="sans-serif" font-size="13" lengthAdjust="spacingAndGlyphs" textLength="165" x="929" y="1336.1606">/ reset_ram_0, create_pkt</text><rect fill="#FEFECE" filter="url(#fbewjvkedw1ii)" height="516.2969" rx="12.5" ry="12.5" style="stroke: #A80036; stroke-width: 1.5;" width="375" x="787.5" y="1663.2969"/><rect fill="#FFFFFF" height="484" rx="12.5" ry="12.5" style="stroke: #FFFFFF; stroke-width: 1.0;" width="369" x="790.5" y="1692.5938"/><line style="stroke: #A80036; stroke-width: 1.5;" x1="787.5" x2="1162.5" y1="1689.5938" y2="1689.5938"/><text fill="#000000" font-family="sans-serif" font-size="14" lengthAdjust="spacingAndGlyphs" textLength="41" x="954.5" y="1681.292">ip_pkt</text><rect fill="#FEFECE" filter="url(#fbewjvkedw1ii)" height="50" rx="12.5" ry="12.5" style="stroke: #A80036; stroke-width: 1.5;" width="104" x="868" y="1702.5938"/><line style="stroke: #A80036; stroke-width: 1.5;" x1="868" x2="972" y1="1728.8906" y2="1728.8906"/><text fill="#000000" font-family="sans-serif" font-size="14" lengthAdjust="spacingAndGlyphs" textLength="84" x="878" y="1720.5889">reset_ip_pkt</text><rect fill="#FEFECE" filter="url(#fbewjvkedw1ii)" height="50" rx="12.5" ry="12.5" style="stroke: #A80036; stroke-width: 1.5;" width="73" x="798.5" y="1805.5938"/><line style="stroke: #A80036; stroke-width: 1.5;" x1="798.5" x2="871.5" y1="1831.8906" y2="1831.8906"/><text fill="#000000" font-family="sans-serif" font-size="14" lengthAdjust="spacingAndGlyphs" textLength="53" x="808.5" y="1823.5889">eth_hdr</text><rect fill="#FEFECE" filter="url(#fbewjvkedw1ii)" height="50" rx="12.5" ry="12.5" style="stroke: #A80036; stroke-width: 1.5;" width="62" x="830" y="1908.5938"/><line style="stroke: #A80036; stroke-width: 1.5;" x1="830" x2="892" y1="1934.8906" y2="1934.8906"/><text fill="#000000" font-family="sans-serif" font-size="14" lengthAdjust="spacingAndGlyphs" textLength="42" x="840" y="1926.5889">ip_hdr</text><rect fill="#FEFECE" filter="url(#fbewjvkedw1ii)" height="50" rx="12.5" ry="12.5" style="stroke: #A80036; stroke-width: 1.5;" width="77" x="832.5" y="2011.5938"/><line style="stroke: #A80036; stroke-width: 1.5;" x1="832.5" x2="909.5" y1="2037.8906" y2="2037.8906"/><text fill="#000000" font-family="sans-serif" font-size="14" lengthAdjust="spacingAndGlyphs" textLength="57" x="842.5" y="2029.5889">udp_hdr</text><rect fill="#FEFECE" filter="url(#fbewjvkedw1ii)" height="50" rx="12.5" ry="12.5" style="stroke: #A80036; stroke-width: 1.5;" width="106" x="887" y="2114.5938"/><line style="stroke: #A80036; stroke-width: 1.5;" x1="887" x2="993" y1="2140.8906" y2="2140.8906"/><text fill="#000000" font-family="sans-serif" font-size="14" lengthAdjust="spacingAndGlyphs" textLength="86" x="897" y="2132.5889">add_payload</text><!--link reset_ip_pkt to eth_hdr--><path d="M867.6664,1741.7986 C853.6835,1748.2408 840.1951,1757.4683 832,1770.5938 C826.5907,1779.2575 825.7589,1790.073 826.7941,1800.1261 " fill="none" id="reset_ip_pkt-eth_hdr" style="stroke: #A80036; stroke-width: 1.0;"/><polygon fill="#A80036" points="827.4913,1805.2983,830.253,1795.8445,826.8233,1800.3431,822.3248,1796.9133,827.4913,1805.2983" style="stroke: #A80036; stroke-width: 1.0;"/><text fill="#000000" font-family="sans-serif" font-size="13" lengthAdjust="spacingAndGlyphs" textLength="161" x="833" y="1783.6606">create_pkt / reset_ram_1</text><!--link eth_hdr to ip_hdr--><path d="M841.3603,1855.7904 C844.9802,1870.1306 849.5388,1888.19 853.3528,1903.2991 " fill="none" id="eth_hdr-ip_hdr" style="stroke: #A80036; stroke-width: 1.0;"/><polygon fill="#A80036" points="854.6152,1908.3003,856.2906,1898.5949,853.3914,1903.4523,848.534,1900.5531,854.6152,1908.3003" style="stroke: #A80036; stroke-width: 1.0;"/><text fill="#000000" font-family="sans-serif" font-size="13" lengthAdjust="spacingAndGlyphs" textLength="113" x="851" y="1886.6606">/ create ip header</text><!--link ip_hdr to udp_hdr--><path d="M863.4463,1958.7904 C864.8385,1973.1305 866.5919,1991.19 868.0588,2006.2991 " fill="none" id="ip_hdr-udp_hdr" style="stroke: #A80036; stroke-width: 1.0;"/><polygon fill="#A80036" points="868.5443,2011.3003,871.6559,2001.9558,868.0612,2006.3236,863.6934,2002.7289,868.5443,2011.3003" style="stroke: #A80036; stroke-width: 1.0;"/><text fill="#000000" font-family="sans-serif" font-size="13" lengthAdjust="spacingAndGlyphs" textLength="126" x="868" y="1989.6606">/ create udp header</text><!--link udp_hdr to add_payload--><path d="M871.475,2061.7405 C872.6872,2073.0986 875.561,2086.2564 882,2096.5938 C885.2619,2101.8305 889.4134,2106.6431 893.992,2111.001 " fill="none" id="udp_hdr-add_payload" style="stroke: #A80036; stroke-width: 1.0;"/><polygon fill="#A80036" points="897.9282,2114.554,893.9276,2105.5542,894.2166,2111.2037,888.5672,2111.4927,897.9282,2114.554" style="stroke: #A80036; stroke-width: 1.0;"/><text fill="#000000" font-family="sans-serif" font-size="13" lengthAdjust="spacingAndGlyphs" textLength="111" x="883" y="2092.6606">/ add the payload</text><!--link add_payload to reset_ip_pkt--><path d="M979.0832,2114.5915 C985.1278,2109.2744 990.7603,2103.2341 995,2096.5938 C1009.736,2073.514 1009,2063.9768 1009,2036.5938 C1009,1830.5938 1009,1830.5938 1009,1830.5938 C1009,1803.2108 1011.3469,1792.5621 995,1770.5938 C989.9544,1763.8131 983.4995,1757.9349 976.4995,1752.8902 " fill="none" id="add_payload-reset_ip_pkt" style="stroke: #A80036; stroke-width: 1.0;"/><polygon fill="#A80036" points="972.0783,1749.8562,977.2358,1758.2466,976.2009,1752.6852,981.7623,1751.6504,972.0783,1749.8562" style="stroke: #A80036; stroke-width: 1.0;"/><text fill="#000000" font-family="sans-serif" font-size="13" lengthAdjust="spacingAndGlyphs" textLength="118" x="1010" y="1938.1606">/ reset the module</text><!--link reset to ecpri_tx--><path d="M973.8284,97.4001 C977.8039,225.1118 992.8717,803.3608 946,975.2969 C941.6552,991.2345 936.4385,1007.2385 930.5539,1023.1532 " fill="none" id="reset-ecpri_tx" style="stroke: #A80036; stroke-width: 1.0;"/><polygon fill="#A80036" points="928.7064,1028.0893,935.6075,1021.0625,930.4591,1023.4065,928.1151,1018.2582,928.7064,1028.0893" style="stroke: #A80036; stroke-width: 1.0;"/><text fill="#000000" font-family="sans-serif" font-size="13" lengthAdjust="spacingAndGlyphs" textLength="172" x="980" y="567.3638">/ reset the epcri_tx module</text><!--link reset to ecpri_rx--><path d="M944.6662,76.2063 C898.8038,82.9534 810.8313,97.7601 785,115.2969 C770.8569,124.8986 757.1725,135.3839 743.9529,146.5795 " fill="none" id="reset-ecpri_rx" style="stroke: #A80036; stroke-width: 1.0;"/><polygon fill="#A80036" points="739.8652,150.0766,749.3043,147.2654,743.6646,146.8262,744.1037,141.1864,739.8652,150.0766" style="stroke: #A80036; stroke-width: 1.0;"/><text fill="#000000" font-family="sans-serif" font-size="13" lengthAdjust="spacingAndGlyphs" textLength="172" x="786" y="128.3638">/ reset the ecpri_rx module</text><!--link reset to ip_pkt--><path d="M1001.1471,74.8382 C1043.4133,80.3411 1122.0385,97.5031 1157,150.2969 C1336.1541,420.8293 1219.1163,1296.3847 1137,1610.2969 C1132.8461,1626.1762 1127.7704,1642.1602 1122.013,1658.0508 " fill="none" id="reset-ip_pkt" style="stroke: #A80036; stroke-width: 1.0;"/><polygon fill="#A80036" points="1120.2046,1662.9792,1127.0601,1655.908,1121.927,1658.2852,1119.5498,1653.1521,1120.2046,1662.9792" style="stroke: #A80036; stroke-width: 1.0;"/><text fill="#000000" font-family="sans-serif" font-size="13" lengthAdjust="spacingAndGlyphs" textLength="180" x="1235" y="1006.3638">/ reset the ip packet module</text><!--link ecpri_rx to ecpri_tx--><path d="M580.0472,975.4549 C584.2468,987.2526 588.565,998.8892 593,1010.2969 C594.6969,1014.6618 596.4404,1019.044 598.2261,1023.4387 " fill="none" id="ecpri_rx-ecpri_tx" style="stroke: #A80036; stroke-width: 1.0;"/><polygon fill="#A80036" points="600.1802,1028.212,600.4721,1018.3674,598.2858,1023.5847,593.0685,1021.3985,600.1802,1028.212" style="stroke: #A80036; stroke-width: 1.0;"/><text fill="#000000" font-family="sans-serif" font-size="13" lengthAdjust="spacingAndGlyphs" textLength="120" x="594" y="1006.3638">/ create_read_resp</text><!--link ecpri_rx to ecpri_tx--><path d="M708.8706,975.3093 C710.9939,981.3138 713.0392,987.3116 715,993.2969 C718.1679,1002.9671 721.0983,1012.8718 723.8088,1022.9316 " fill="none" id="ecpri_rx-ecpri_tx" style="stroke: #A80036; stroke-width: 1.0;"/><polygon fill="#A80036" points="725.1218,1027.8821,726.6808,1018.1574,723.8399,1023.0492,718.9481,1020.2084,725.1218,1027.8821" style="stroke: #A80036; stroke-width: 1.0;"/><text fill="#000000" font-family="sans-serif" font-size="13" lengthAdjust="spacingAndGlyphs" textLength="121" x="722" y="1006.3638">/ create_write_resp</text><!--link ecpri_tx to ip_pkt--><path d="M862.4878,1610.5982 C868.2497,1626.5093 874.0246,1642.4567 879.7482,1658.2621 " fill="none" id="ecpri_tx-ip_pkt" style="stroke: #A80036; stroke-width: 1.0;"/><polygon fill="#A80036" points="881.5227,1663.1625,882.2191,1653.3383,879.8202,1658.4613,874.6972,1656.0623,881.5227,1663.1625" style="stroke: #A80036; stroke-width: 1.0;"/><text fill="#000000" font-family="sans-serif" font-size="13" lengthAdjust="spacingAndGlyphs" textLength="76" x="874" y="1641.3638">/ create_pkt</text><!--
@startuml
state  ecpri {
state reset

state ecpri_rx {
  reset_rx - -> cpri_hdr : ip_pkt_recv / find cpri header
  cpri_hdr - -> reset_rx : / did not find cpri header

  cpri_hdr - -> cpri_type : / find cpri pkt type 
  cpri_type - -> read : / chech the read parameters 
  cpri_type - -> write : / check the write parameters 

  read - -> read_mem : /check memory
  read_mem - -> reset_rx : / invalid memory
  read_mem - -> read_payload :  / check payload 
  read_payload - -> reset_rx : / pyload error
  read_payload - -> raise_rx_resp :  / create_read_resp
  raise_rx_resp - -> reset_rx  : / done
  
  write - -> write_mem : / check memory
  write_mem - -> reset_rx : / invalid memory
  write_mem - -> write_payload : / check payload
  write_payload - -> reset_rx : / pyload error
  write_payload - -> write_to_mem : / copy to memory
  write_to_mem - -> raise_tx_resp : / create_write_resp 
  raise_tx_resp - -> reset_rx : /done
  
}

state ecpri_tx {
  reset_tx- ->read_resp : create_read_resp
  reset_tx- ->write_resp : create_write_resp

  write_resp- ->create_write_resp_hdr :  / copy the header and set the resp bit
  create_write_resp_hdr- ->complete :  / zero paylod response 

  read_resp- ->create_read_resp_hdr : / copy the header and set the resp bit
  create_read_resp_hdr- ->copy_from_mem : / copy the data 
  copy_from_mem- ->complete : / done 

  complete- ->reset_tx :  / reset_ram_0, create_pkt
}

state ip_pkt {
  reset_ip_pkt- ->eth_hdr : create_pkt / reset_ram_1 
  eth_hdr- ->ip_hdr : / create ip header
  ip_hdr- ->udp_hdr : / create udp header 
  udp_hdr- ->add_payload :  / add the payload  
  add_payload- ->reset_ip_pkt : / reset the module 
}

reset- ->ecpri_tx : / reset the epcri_tx module 
reset- ->ecpri_rx : / reset the ecpri_rx module 
reset- ->ip_pkt : / reset the ip packet module

ecpri_rx- ->ecpri_tx : / create_read_resp
ecpri_rx- ->ecpri_tx : / create_write_resp 

ecpri_tx - -> ip_pkt  :  / create_pkt
}
@enduml

PlantUML version 1.2018.13(Mon Nov 26 22:41:51 IST 2018)
(GPL source distribution)
Java Runtime: OpenJDK Runtime Environment
JVM: OpenJDK 64-Bit Server VM
Java Version: 11.0.8+10-post-Debian-1deb10u1
Operating System: Linux
OS Version: 4.4.0-18362-Microsoft
Default Encoding: UTF-8
Language: en
Country: US
--></g></svg>