<?xml version="1.0" encoding="UTF-8" standalone="no"?>
<!DOCTYPE svg PUBLIC "-//W3C//DTD SVG 1.1//EN"
 "http://www.w3.org/Graphics/SVG/1.1/DTD/svg11.dtd">
<!-- Generated by graphviz version 2.40.1 (20161225.0304)
 -->
<!-- Title: G Pages: 1 -->
<svg width="578pt" height="186pt"
 viewBox="0.00 0.00 578.00 186.00" xmlns="http://www.w3.org/2000/svg" xmlns:xlink="http://www.w3.org/1999/xlink">
<g id="graph0" class="graph" transform="scale(1 1) rotate(0) translate(4 182)">
<title>G</title>
<polygon fill="#ffffff" stroke="transparent" points="-4,4 -4,-182 574,-182 574,4 -4,4"/>
<!-- Bar -->
<g id="node1" class="node">
<title>Bar</title>
<polygon fill="none" stroke="#000000" points="0,-24.5 0,-139.5 92,-139.5 92,-24.5 0,-24.5"/>
<text text-anchor="middle" x="24" y="-78.3" font-family="Times,serif" font-size="14.00" fill="#000000">&quot;Bar&quot;</text>
<polyline fill="none" stroke="#000000" points="48,-24.5 48,-139.5 "/>
<text text-anchor="middle" x="70" y="-124.3" font-family="Times,serif" font-size="14.00" fill="#000000">pin 1</text>
<polyline fill="none" stroke="#000000" points="48,-116.5 92,-116.5 "/>
<text text-anchor="middle" x="70" y="-101.3" font-family="Times,serif" font-size="14.00" fill="#000000">2</text>
<polyline fill="none" stroke="#000000" points="48,-93.5 92,-93.5 "/>
<text text-anchor="middle" x="70" y="-78.3" font-family="Times,serif" font-size="14.00" fill="#000000">3</text>
<polyline fill="none" stroke="#000000" points="48,-70.5 92,-70.5 "/>
<text text-anchor="middle" x="70" y="-55.3" font-family="Times,serif" font-size="14.00" fill="#000000">4</text>
<polyline fill="none" stroke="#000000" points="48,-47.5 92,-47.5 "/>
<text text-anchor="middle" x="70" y="-32.3" font-family="Times,serif" font-size="14.00" fill="#000000">5</text>
</g>
<!-- Foo -->
<g id="node2" class="node">
<title>Foo</title>
<polygon fill="none" stroke="#000000" points="128,-.5 128,-161.5 265,-161.5 265,-.5 128,-.5"/>
<text text-anchor="middle" x="151" y="-141.8" font-family="Times,serif" font-size="14.00" fill="#000000">data0</text>
<polyline fill="none" stroke="#000000" points="128,-129.5 174,-129.5 "/>
<text text-anchor="middle" x="151" y="-109.8" font-family="Times,serif" font-size="14.00" fill="#000000">data1</text>
<polyline fill="none" stroke="#000000" points="128,-97.5 174,-97.5 "/>
<text text-anchor="middle" x="151" y="-77.8" font-family="Times,serif" font-size="14.00" fill="#000000">data2</text>
<polyline fill="none" stroke="#000000" points="128,-65.5 174,-65.5 "/>
<text text-anchor="middle" x="151" y="-45.8" font-family="Times,serif" font-size="14.00" fill="#000000">data3</text>
<polyline fill="none" stroke="#000000" points="128,-33.5 174,-33.5 "/>
<text text-anchor="middle" x="151" y="-13.3" font-family="Times,serif" font-size="14.00" fill="#000000">data4</text>
<polyline fill="none" stroke="#000000" points="174,-.5 174,-161.5 "/>
<text text-anchor="middle" x="199" y="-77.3" font-family="Times,serif" font-size="14.00" fill="#000000">&quot;Foo&quot;</text>
<polyline fill="none" stroke="#000000" points="224,-.5 224,-161.5 "/>
<text text-anchor="middle" x="244.5" y="-146.3" font-family="Times,serif" font-size="14.00" fill="#000000">out0</text>
<polyline fill="none" stroke="#000000" points="224,-138.5 265,-138.5 "/>
<text text-anchor="middle" x="244.5" y="-123.3" font-family="Times,serif" font-size="14.00" fill="#000000">out1</text>
<polyline fill="none" stroke="#000000" points="224,-115.5 265,-115.5 "/>
<text text-anchor="middle" x="244.5" y="-100.3" font-family="Times,serif" font-size="14.00" fill="#000000">out2</text>
<polyline fill="none" stroke="#000000" points="224,-92.5 265,-92.5 "/>
<text text-anchor="middle" x="244.5" y="-77.3" font-family="Times,serif" font-size="14.00" fill="#000000">gnd</text>
<polyline fill="none" stroke="#000000" points="224,-69.5 265,-69.5 "/>
<text text-anchor="middle" x="244.5" y="-54.3" font-family="Times,serif" font-size="14.00" fill="#000000">ex0</text>
<polyline fill="none" stroke="#000000" points="224,-46.5 265,-46.5 "/>
<text text-anchor="middle" x="244.5" y="-31.3" font-family="Times,serif" font-size="14.00" fill="#000000">hi</text>
<polyline fill="none" stroke="#000000" points="224,-23.5 265,-23.5 "/>
<text text-anchor="middle" x="244.5" y="-8.3" font-family="Times,serif" font-size="14.00" fill="#000000">lo</text>
</g>
<!-- Bar&#45;&gt;Foo -->
<g id="edge1" class="edge">
<title>Bar:p1&#45;&gt;Foo:data0</title>
<path fill="none" stroke="#000000" d="M92,-128C105.8357,-128 109.1037,-138.7677 118.1509,-143.6468"/>
<polygon fill="#000000" stroke="#000000" points="117.4604,-147.0803 128,-146 119.0871,-140.2719 117.4604,-147.0803"/>
</g>
<!-- Bar&#45;&gt;Foo -->
<g id="edge2" class="edge">
<title>Bar:p2&#45;&gt;Foo:data1</title>
<path fill="none" stroke="#000000" d="M92,-105C104.4982,-105 109.2566,-110.1685 118.0058,-112.672"/>
<polygon fill="#000000" stroke="#000000" points="117.6261,-116.1522 128,-114 118.5482,-109.2132 117.6261,-116.1522"/>
</g>
<!-- Bar&#45;&gt;Foo -->
<g id="edge3" class="edge">
<title>Bar:p3&#45;&gt;Foo:data2</title>
<path fill="none" stroke="#000000" d="M92,-82C104,-82 109.25,-82 117.875,-82"/>
<polygon fill="#000000" stroke="#000000" points="118,-85.5001 128,-82 118,-78.5001 118,-85.5001"/>
</g>
<!-- Bar&#45;&gt;Foo -->
<g id="edge4" class="edge">
<title>Bar:p4&#45;&gt;Foo:data3</title>
<path fill="none" stroke="#000000" d="M92,-59C104.5841,-59 109.2331,-53.2572 117.9736,-50.4755"/>
<polygon fill="#000000" stroke="#000000" points="118.6162,-53.9188 128,-49 117.5969,-46.9934 118.6162,-53.9188"/>
</g>
<!-- Bar&#45;&gt;Foo -->
<g id="edge5" class="edge">
<title>Bar:p5&#45;&gt;Foo:data4</title>
<path fill="none" stroke="#000000" d="M92,-36C105.9928,-36 109.0533,-24.6341 118.0925,-19.4839"/>
<polygon fill="#000000" stroke="#000000" points="119.1514,-22.8268 128,-17 117.449,-16.037 119.1514,-22.8268"/>
</g>
<!-- Bew -->
<g id="node3" class="node">
<title>Bew</title>
<polygon fill="none" stroke="#000000" points="427,-62.5 427,-177.5 570,-177.5 570,-62.5 427,-62.5"/>
<text text-anchor="middle" x="451.5" y="-162.3" font-family="Times,serif" font-size="14.00" fill="#000000">clk</text>
<polyline fill="none" stroke="#000000" points="427,-154.5 476,-154.5 "/>
<text text-anchor="middle" x="451.5" y="-139.3" font-family="Times,serif" font-size="14.00" fill="#000000">syn</text>
<polyline fill="none" stroke="#000000" points="427,-131.5 476,-131.5 "/>
<text text-anchor="middle" x="451.5" y="-116.3" font-family="Times,serif" font-size="14.00" fill="#000000">mux0</text>
<polyline fill="none" stroke="#000000" points="427,-108.5 476,-108.5 "/>
<text text-anchor="middle" x="451.5" y="-93.3" font-family="Times,serif" font-size="14.00" fill="#000000">mux1</text>
<polyline fill="none" stroke="#000000" points="427,-85.5 476,-85.5 "/>
<text text-anchor="middle" x="451.5" y="-70.3" font-family="Times,serif" font-size="14.00" fill="#000000">signal</text>
<polyline fill="none" stroke="#000000" points="476,-62.5 476,-177.5 "/>
<text text-anchor="middle" x="502.5" y="-116.3" font-family="Times,serif" font-size="14.00" fill="#000000">&quot;Bew&quot;</text>
<polyline fill="none" stroke="#000000" points="529,-62.5 529,-177.5 "/>
<text text-anchor="middle" x="549.5" y="-154.8" font-family="Times,serif" font-size="14.00" fill="#000000">out0</text>
<polyline fill="none" stroke="#000000" points="529,-139.5 570,-139.5 "/>
<text text-anchor="middle" x="549.5" y="-116.8" font-family="Times,serif" font-size="14.00" fill="#000000">out1</text>
<polyline fill="none" stroke="#000000" points="529,-101.5 570,-101.5 "/>
<text text-anchor="middle" x="549.5" y="-78.3" font-family="Times,serif" font-size="14.00" fill="#000000">out2</text>
</g>
<!-- Foo&#45;&gt;Bew -->
<g id="edge6" class="edge">
<title>Foo:out0&#45;&gt;Bew:mux0</title>
<path fill="none" stroke="#000000" d="M265,-150C334.6488,-150 352.1196,-122.8582 416.6729,-120.2076"/>
<polygon fill="#000000" stroke="#000000" points="417.0724,-123.7004 427,-120 416.9316,-116.7018 417.0724,-123.7004"/>
</g>
<!-- Foo&#45;&gt;Bew -->
<g id="edge7" class="edge">
<title>Foo:out1&#45;&gt;Bew:mux1</title>
<path fill="none" stroke="#000000" d="M265,-127C281.3903,-127 284.9228,-122.1882 301,-119 353.2763,-108.6334 368.3134,-98.3682 416.8294,-97.1256"/>
<polygon fill="#000000" stroke="#000000" points="417.044,-100.6233 427,-97 416.9575,-93.6238 417.044,-100.6233"/>
</g>
<!-- Gate -->
<g id="node4" class="node">
<title>Gate</title>
<polygon fill="none" stroke="#000000" points="301,-1 301,-47 391,-47 391,-1 301,-1"/>
<text text-anchor="middle" x="312.5" y="-31.8" font-family="Times,serif" font-size="14.00" fill="#000000">a</text>
<polyline fill="none" stroke="#000000" points="301,-24 324,-24 "/>
<text text-anchor="middle" x="312.5" y="-8.8" font-family="Times,serif" font-size="14.00" fill="#000000">b</text>
<polyline fill="none" stroke="#000000" points="324,-1 324,-47 "/>
<text text-anchor="middle" x="341.5" y="-20.3" font-family="Times,serif" font-size="14.00" fill="#000000">OR</text>
<polyline fill="none" stroke="#000000" points="359,-1 359,-47 "/>
<text text-anchor="middle" x="375" y="-20.3" font-family="Times,serif" font-size="14.00" fill="#000000">a|b</text>
</g>
<!-- Foo&#45;&gt;Gate -->
<g id="edge9" class="edge">
<title>Foo:hi&#45;&gt;Gate:a</title>
<path fill="none" stroke="#000000" d="M265,-35C277.0046,-35 282.2488,-35.5625 290.8733,-35.8438"/>
<polygon fill="#000000" stroke="#000000" points="290.9472,-39.3452 301,-36 291.0552,-32.346 290.9472,-39.3452"/>
</g>
<!-- Foo&#45;&gt;Gate -->
<g id="edge10" class="edge">
<title>Foo:lo&#45;&gt;Gate:b</title>
<path fill="none" stroke="#000000" d="M265,-12C277,-12 282.25,-12 290.875,-12"/>
<polygon fill="#000000" stroke="#000000" points="291,-15.5001 301,-12 291,-8.5001 291,-15.5001"/>
</g>
<!-- Bew&#45;&gt;Foo -->
<g id="edge8" class="edge">
<title>Bew:clk&#45;&gt;Foo:ex0</title>
<path fill="none" stroke="#000000" d="M427,-166C370.4926,-166 345.4981,-183.8283 301,-149 269.9604,-124.7056 301.3351,-69.7075 275.1181,-59.6089"/>
<polygon fill="#000000" stroke="#000000" points="275.4256,-56.1139 265,-58 274.3263,-63.027 275.4256,-56.1139"/>
</g>
<!-- Gate&#45;&gt;Bew -->
<g id="edge11" class="edge">
<title>Gate:ab&#45;&gt;Bew:signal</title>
<path fill="none" stroke="#000000" d="M375,-47C375,-69.684 394.698,-73.3359 416.989,-73.9005"/>
<polygon fill="#000000" stroke="#000000" points="416.9657,-77.4004 427,-74 417.0353,-70.4007 416.9657,-77.4004"/>
</g>
</g>
</svg>
