<?xml version="1.0" encoding="UTF-8" standalone="no"?>
<!DOCTYPE svg PUBLIC "-//W3C//DTD SVG 1.1//EN"
 "http://www.w3.org/Graphics/SVG/1.1/DTD/svg11.dtd">
<!-- Generated by graphviz version 2.40.1 (20161225.0304)
 -->
<!-- Title: F Pages: 1 -->
<svg width="1630pt" height="1432pt"
 viewBox="0.00 0.00 1630.00 1431.63" xmlns="http://www.w3.org/2000/svg" xmlns:xlink="http://www.w3.org/1999/xlink">
<g id="graph0" class="graph" transform="scale(1 1) rotate(0) translate(36 1395.629)">
<title>F</title>
<polygon fill="#ffffff" stroke="transparent" points="-36,36 -36,-1395.629 1594,-1395.629 1594,36 -36,36"/>
<!-- ecpri_rx -->
<g id="node1" class="node">
<title>ecpri_rx</title>
<polygon fill="none" stroke="#000000" points="277,-484.4251 277,-806.4251 477,-806.4251 477,-484.4251 277,-484.4251"/>
<text text-anchor="middle" x="309" y="-749.2251" font-family="Times,serif" font-size="14.00" fill="#000000">inp_data</text>
<polyline fill="none" stroke="#000000" points="277,-699.4251 341,-699.4251 "/>
<text text-anchor="middle" x="309" y="-642.2251" font-family="Times,serif" font-size="14.00" fill="#000000">recv_pkt</text>
<polyline fill="none" stroke="#000000" points="277,-592.4251 341,-592.4251 "/>
<text text-anchor="middle" x="309" y="-534.7251" font-family="Times,serif" font-size="14.00" fill="#000000">oe</text>
<polyline fill="none" stroke="#000000" points="341,-484.4251 341,-806.4251 "/>
<text text-anchor="middle" x="372" y="-641.7251" font-family="Times,serif" font-size="14.00" fill="#000000">ecpri_rx</text>
<polyline fill="none" stroke="#000000" points="403,-484.4251 403,-806.4251 "/>
<text text-anchor="middle" x="440" y="-791.2251" font-family="Times,serif" font-size="14.00" fill="#000000">we_0</text>
<polyline fill="none" stroke="#000000" points="403,-783.4251 477,-783.4251 "/>
<text text-anchor="middle" x="440" y="-768.2251" font-family="Times,serif" font-size="14.00" fill="#000000">addr_0</text>
<polyline fill="none" stroke="#000000" points="403,-760.4251 477,-760.4251 "/>
<text text-anchor="middle" x="440" y="-745.2251" font-family="Times,serif" font-size="14.00" fill="#000000">data_0</text>
<polyline fill="none" stroke="#000000" points="403,-737.4251 477,-737.4251 "/>
<text text-anchor="middle" x="440" y="-722.2251" font-family="Times,serif" font-size="14.00" fill="#000000">oe_0</text>
<polyline fill="none" stroke="#000000" points="403,-714.4251 477,-714.4251 "/>
<text text-anchor="middle" x="440" y="-699.2251" font-family="Times,serif" font-size="14.00" fill="#000000">we_1</text>
<polyline fill="none" stroke="#000000" points="403,-691.4251 477,-691.4251 "/>
<text text-anchor="middle" x="440" y="-676.2251" font-family="Times,serif" font-size="14.00" fill="#000000">addr_1</text>
<polyline fill="none" stroke="#000000" points="403,-668.4251 477,-668.4251 "/>
<text text-anchor="middle" x="440" y="-653.2251" font-family="Times,serif" font-size="14.00" fill="#000000">data_1</text>
<polyline fill="none" stroke="#000000" points="403,-645.4251 477,-645.4251 "/>
<text text-anchor="middle" x="440" y="-630.2251" font-family="Times,serif" font-size="14.00" fill="#000000">oe_1</text>
<polyline fill="none" stroke="#000000" points="403,-622.4251 477,-622.4251 "/>
<text text-anchor="middle" x="440" y="-607.2251" font-family="Times,serif" font-size="14.00" fill="#000000">we_2</text>
<polyline fill="none" stroke="#000000" points="403,-599.4251 477,-599.4251 "/>
<text text-anchor="middle" x="440" y="-584.2251" font-family="Times,serif" font-size="14.00" fill="#000000">addr_2</text>
<polyline fill="none" stroke="#000000" points="403,-576.4251 477,-576.4251 "/>
<text text-anchor="middle" x="440" y="-561.2251" font-family="Times,serif" font-size="14.00" fill="#000000">data_2</text>
<polyline fill="none" stroke="#000000" points="403,-553.4251 477,-553.4251 "/>
<text text-anchor="middle" x="440" y="-538.2251" font-family="Times,serif" font-size="14.00" fill="#000000">oe_2</text>
<polyline fill="none" stroke="#000000" points="403,-530.4251 477,-530.4251 "/>
<text text-anchor="middle" x="440" y="-515.2251" font-family="Times,serif" font-size="14.00" fill="#000000">read_resp</text>
<polyline fill="none" stroke="#000000" points="403,-507.4251 477,-507.4251 "/>
<text text-anchor="middle" x="440" y="-492.2251" font-family="Times,serif" font-size="14.00" fill="#000000">write_resp</text>
</g>
<!-- ecpri_tx -->
<g id="node2" class="node">
<title>ecpri_tx</title>
<polygon fill="none" stroke="#000000" points="641.5,-774.4251 641.5,-1004.4251 842.5,-1004.4251 842.5,-774.4251 641.5,-774.4251"/>
<text text-anchor="middle" x="678.5" y="-989.2251" font-family="Times,serif" font-size="14.00" fill="#000000">read_resp</text>
<polyline fill="none" stroke="#000000" points="641.5,-981.4251 715.5,-981.4251 "/>
<text text-anchor="middle" x="678.5" y="-966.2251" font-family="Times,serif" font-size="14.00" fill="#000000">write_resp</text>
<polyline fill="none" stroke="#000000" points="641.5,-958.4251 715.5,-958.4251 "/>
<text text-anchor="middle" x="678.5" y="-943.2251" font-family="Times,serif" font-size="14.00" fill="#000000">we_0</text>
<polyline fill="none" stroke="#000000" points="641.5,-935.4251 715.5,-935.4251 "/>
<text text-anchor="middle" x="678.5" y="-920.2251" font-family="Times,serif" font-size="14.00" fill="#000000">addr_0</text>
<polyline fill="none" stroke="#000000" points="641.5,-912.4251 715.5,-912.4251 "/>
<text text-anchor="middle" x="678.5" y="-897.2251" font-family="Times,serif" font-size="14.00" fill="#000000">data_0</text>
<polyline fill="none" stroke="#000000" points="641.5,-889.4251 715.5,-889.4251 "/>
<text text-anchor="middle" x="678.5" y="-874.2251" font-family="Times,serif" font-size="14.00" fill="#000000">oe_0</text>
<polyline fill="none" stroke="#000000" points="641.5,-866.4251 715.5,-866.4251 "/>
<text text-anchor="middle" x="678.5" y="-851.2251" font-family="Times,serif" font-size="14.00" fill="#000000">we_1</text>
<polyline fill="none" stroke="#000000" points="641.5,-843.4251 715.5,-843.4251 "/>
<text text-anchor="middle" x="678.5" y="-828.2251" font-family="Times,serif" font-size="14.00" fill="#000000">addr_1</text>
<polyline fill="none" stroke="#000000" points="641.5,-820.4251 715.5,-820.4251 "/>
<text text-anchor="middle" x="678.5" y="-805.2251" font-family="Times,serif" font-size="14.00" fill="#000000">data_1</text>
<polyline fill="none" stroke="#000000" points="641.5,-797.4251 715.5,-797.4251 "/>
<text text-anchor="middle" x="678.5" y="-782.2251" font-family="Times,serif" font-size="14.00" fill="#000000">oe_1</text>
<polyline fill="none" stroke="#000000" points="715.5,-774.4251 715.5,-1004.4251 "/>
<text text-anchor="middle" x="746" y="-885.7251" font-family="Times,serif" font-size="14.00" fill="#000000">ecpri_tx</text>
<polyline fill="none" stroke="#000000" points="776.5,-774.4251 776.5,-1004.4251 "/>
<text text-anchor="middle" x="809.5" y="-977.7251" font-family="Times,serif" font-size="14.00" fill="#000000">we_2</text>
<polyline fill="none" stroke="#000000" points="776.5,-958.4251 842.5,-958.4251 "/>
<text text-anchor="middle" x="809.5" y="-931.7251" font-family="Times,serif" font-size="14.00" fill="#000000">addr_2</text>
<polyline fill="none" stroke="#000000" points="776.5,-912.4251 842.5,-912.4251 "/>
<text text-anchor="middle" x="809.5" y="-885.7251" font-family="Times,serif" font-size="14.00" fill="#000000">data_2</text>
<polyline fill="none" stroke="#000000" points="776.5,-866.4251 842.5,-866.4251 "/>
<text text-anchor="middle" x="809.5" y="-839.7251" font-family="Times,serif" font-size="14.00" fill="#000000">oe_2</text>
<polyline fill="none" stroke="#000000" points="776.5,-820.4251 842.5,-820.4251 "/>
<text text-anchor="middle" x="809.5" y="-793.7251" font-family="Times,serif" font-size="14.00" fill="#000000">ip_create</text>
</g>
<!-- ecpri_rx&#45;&gt;ecpri_tx -->
<g id="edge9" class="edge">
<title>ecpri_rx:read_resp&#45;&gt;ecpri_tx:read_resp</title>
<path fill="none" stroke="#ffa500" d="M477,-518.4251C696.8502,-518.4251 426.3703,-978.6973 630.8977,-993.0808"/>
<polygon fill="#ffa500" stroke="#ffa500" points="630.8866,-996.5823 641,-993.4251 631.125,-989.5864 630.8866,-996.5823"/>
</g>
<!-- ecpri_rx&#45;&gt;ecpri_tx -->
<g id="edge10" class="edge">
<title>ecpri_rx:write_resp&#45;&gt;ecpri_tx:write_resp</title>
<path fill="none" stroke="#a52a2a" d="M477,-495.4251C696.8502,-495.4251 426.3703,-955.6973 630.8977,-970.0808"/>
<polygon fill="#a52a2a" stroke="#a52a2a" points="630.8866,-973.5823 641,-970.4251 631.125,-966.5864 630.8866,-973.5823"/>
</g>
<!-- fifo -->
<g id="node5" class="node">
<title>fifo</title>
<polygon fill="#ffff00" stroke="#000000" points="661,-216.4251 661,-262.4251 823,-262.4251 823,-216.4251 661,-216.4251"/>
<text text-anchor="middle" x="692.5" y="-247.2251" font-family="Times,serif" font-size="14.00" fill="#000000">inp_data</text>
<polyline fill="none" stroke="#000000" points="661,-239.4251 724,-239.4251 "/>
<text text-anchor="middle" x="692.5" y="-224.2251" font-family="Times,serif" font-size="14.00" fill="#000000">we</text>
<polyline fill="none" stroke="#000000" points="724,-216.4251 724,-262.4251 "/>
<text text-anchor="middle" x="742" y="-235.7251" font-family="Times,serif" font-size="14.00" fill="#000000">fifo</text>
<polyline fill="none" stroke="#000000" points="760,-216.4251 760,-262.4251 "/>
<text text-anchor="middle" x="791.5" y="-247.2251" font-family="Times,serif" font-size="14.00" fill="#000000">out_data</text>
<polyline fill="none" stroke="#000000" points="760,-239.4251 823,-239.4251 "/>
<text text-anchor="middle" x="791.5" y="-224.2251" font-family="Times,serif" font-size="14.00" fill="#000000">oe</text>
</g>
<!-- ecpri_rx&#45;&gt;fifo -->
<g id="edge7" class="edge">
<title>ecpri_rx:oe&#45;&gt;fifo:oe</title>
<path fill="none" stroke="#000000" d="M309,-484.4251C309,-405.8589 411.6006,-472.9631 477,-429.4251 581.1327,-360.1014 547.2468,-268.4788 661,-216.4251 710.5301,-193.7599 782.0422,-162.5445 791.0548,-206.2892"/>
<polygon fill="#000000" stroke="#000000" points="787.5865,-206.7933 792,-216.4251 794.5563,-206.1433 787.5865,-206.7933"/>
</g>
<!-- ram_eth_packet_hdr -->
<g id="node6" class="node">
<title>ram_eth_packet_hdr</title>
<polygon fill="#ff0000" stroke="#000000" points="1007,-1056.4251 1007,-1148.4251 1243,-1148.4251 1243,-1056.4251 1007,-1056.4251"/>
<text text-anchor="middle" x="1034" y="-1133.2251" font-family="Times,serif" font-size="14.00" fill="#000000">addr_0</text>
<polyline fill="none" stroke="#000000" points="1007,-1125.4251 1061,-1125.4251 "/>
<text text-anchor="middle" x="1034" y="-1110.2251" font-family="Times,serif" font-size="14.00" fill="#000000">data_0</text>
<polyline fill="none" stroke="#000000" points="1007,-1102.4251 1061,-1102.4251 "/>
<text text-anchor="middle" x="1034" y="-1087.2251" font-family="Times,serif" font-size="14.00" fill="#000000">we_0</text>
<polyline fill="none" stroke="#000000" points="1007,-1079.4251 1061,-1079.4251 "/>
<text text-anchor="middle" x="1034" y="-1064.2251" font-family="Times,serif" font-size="14.00" fill="#000000">oe_0</text>
<polyline fill="none" stroke="#000000" points="1061,-1056.4251 1061,-1148.4251 "/>
<text text-anchor="middle" x="1125" y="-1098.7251" font-family="Times,serif" font-size="14.00" fill="#000000">ram_eth_packet_hdr</text>
<polyline fill="none" stroke="#000000" points="1189,-1056.4251 1189,-1148.4251 "/>
<text text-anchor="middle" x="1216" y="-1133.2251" font-family="Times,serif" font-size="14.00" fill="#000000">addr_1</text>
<polyline fill="none" stroke="#000000" points="1189,-1125.4251 1243,-1125.4251 "/>
<text text-anchor="middle" x="1216" y="-1110.2251" font-family="Times,serif" font-size="14.00" fill="#000000">data_1</text>
<polyline fill="none" stroke="#000000" points="1189,-1102.4251 1243,-1102.4251 "/>
<text text-anchor="middle" x="1216" y="-1087.2251" font-family="Times,serif" font-size="14.00" fill="#000000">we_1</text>
<polyline fill="none" stroke="#000000" points="1189,-1079.4251 1243,-1079.4251 "/>
<text text-anchor="middle" x="1216" y="-1064.2251" font-family="Times,serif" font-size="14.00" fill="#000000">oe_1</text>
</g>
<!-- ecpri_rx&#45;&gt;ram_eth_packet_hdr -->
<g id="edge11" class="edge">
<title>ecpri_rx:we_0&#45;&gt;ram_eth_packet_hdr:we_0</title>
<path fill="none" stroke="#000000" d="M477,-795.4251C716.809,-795.4251 430.1386,-1170.2345 621,-1315.4251 706.6023,-1380.5437 768.6494,-1367.0599 863,-1315.4251 963.9972,-1260.1528 892.8814,-1100.4953 996.75,-1090.8792"/>
<polygon fill="#000000" stroke="#000000" points="997.1648,-1094.3644 1007,-1090.4251 996.8548,-1087.3712 997.1648,-1094.3644"/>
</g>
<!-- ecpri_rx&#45;&gt;ram_eth_packet_hdr -->
<g id="edge12" class="edge">
<title>ecpri_rx:addr_0&#45;&gt;ram_eth_packet_hdr:addr_0</title>
<path fill="none" stroke="#000000" d="M477,-772.4251C664.6929,-772.4251 467.3104,-1061.6839 621,-1169.4251 709.0703,-1231.165 756.0867,-1181.1612 863,-1169.4251 924.6058,-1162.6625 939.8323,-1140.0897 996.696,-1137.641"/>
<polygon fill="#000000" stroke="#000000" points="997.0756,-1141.1339 1007,-1137.4251 996.9288,-1134.1355 997.0756,-1141.1339"/>
</g>
<!-- ecpri_rx&#45;&gt;ram_eth_packet_hdr -->
<g id="edge13" class="edge">
<title>ecpri_rx:data_0&#45;&gt;ram_eth_packet_hdr:data_0</title>
<path fill="none" stroke="#000000" d="M477,-749.4251C621.7006,-749.4251 505.7867,-953.8798 621,-1041.4251 757.3018,-1144.9944 829.5504,-1115.647 996.8854,-1114.4611"/>
<polygon fill="#000000" stroke="#000000" points="997.0126,-1117.9608 1007,-1114.4251 996.9875,-1110.9608 997.0126,-1117.9608"/>
</g>
<!-- ram_cpri_payload -->
<g id="node8" class="node">
<title>ram_cpri_payload</title>
<polygon fill="#ff0000" stroke="#000000" points="1013,-678.4251 1013,-770.4251 1237,-770.4251 1237,-678.4251 1013,-678.4251"/>
<text text-anchor="middle" x="1040" y="-755.2251" font-family="Times,serif" font-size="14.00" fill="#000000">addr_0</text>
<polyline fill="none" stroke="#000000" points="1013,-747.4251 1067,-747.4251 "/>
<text text-anchor="middle" x="1040" y="-732.2251" font-family="Times,serif" font-size="14.00" fill="#000000">data_0</text>
<polyline fill="none" stroke="#000000" points="1013,-724.4251 1067,-724.4251 "/>
<text text-anchor="middle" x="1040" y="-709.2251" font-family="Times,serif" font-size="14.00" fill="#000000">we_0</text>
<polyline fill="none" stroke="#000000" points="1013,-701.4251 1067,-701.4251 "/>
<text text-anchor="middle" x="1040" y="-686.2251" font-family="Times,serif" font-size="14.00" fill="#000000">oe_0</text>
<polyline fill="none" stroke="#000000" points="1067,-678.4251 1067,-770.4251 "/>
<text text-anchor="middle" x="1125" y="-720.7251" font-family="Times,serif" font-size="14.00" fill="#000000">ram_cpri_payload</text>
<polyline fill="none" stroke="#000000" points="1183,-678.4251 1183,-770.4251 "/>
<text text-anchor="middle" x="1210" y="-755.2251" font-family="Times,serif" font-size="14.00" fill="#000000">addr_1</text>
<polyline fill="none" stroke="#000000" points="1183,-747.4251 1237,-747.4251 "/>
<text text-anchor="middle" x="1210" y="-732.2251" font-family="Times,serif" font-size="14.00" fill="#000000">data_1</text>
<polyline fill="none" stroke="#000000" points="1183,-724.4251 1237,-724.4251 "/>
<text text-anchor="middle" x="1210" y="-709.2251" font-family="Times,serif" font-size="14.00" fill="#000000">we_1</text>
<polyline fill="none" stroke="#000000" points="1183,-701.4251 1237,-701.4251 "/>
<text text-anchor="middle" x="1210" y="-686.2251" font-family="Times,serif" font-size="14.00" fill="#000000">oe_1</text>
</g>
<!-- ecpri_rx&#45;&gt;ram_cpri_payload -->
<g id="edge17" class="edge">
<title>ecpri_rx:we_2&#45;&gt;ram_cpri_payload:we_0</title>
<path fill="none" stroke="#00ff00" d="M477,-610.4251C716.0635,-610.4251 769.0198,-709.5568 1002.8127,-712.3643"/>
<polygon fill="#00ff00" stroke="#00ff00" points="1002.9793,-715.8652 1013,-712.4251 1003.0211,-708.8654 1002.9793,-715.8652"/>
</g>
<!-- ecpri_rx&#45;&gt;ram_cpri_payload -->
<g id="edge18" class="edge">
<title>ecpri_rx:addr_2&#45;&gt;ram_cpri_payload:addr_0</title>
<path fill="none" stroke="#00ff00" d="M477,-587.4251C648.7633,-587.4251 706.3222,-536.0355 863,-606.4251 946.6412,-644.002 919.9897,-751.0692 1002.9118,-758.9638"/>
<polygon fill="#00ff00" stroke="#00ff00" points="1002.8506,-762.4646 1013,-759.4251 1003.1703,-755.4719 1002.8506,-762.4646"/>
</g>
<!-- ecpri_rx&#45;&gt;ram_cpri_payload -->
<g id="edge19" class="edge">
<title>ecpri_rx:data_2&#45;&gt;ram_cpri_payload:data_0</title>
<path fill="none" stroke="#00ff00" d="M477,-564.4251C648.6684,-564.4251 708.1292,-476.3638 863,-550.4251 955.6264,-594.7202 910.0916,-727.22 1002.9336,-735.97"/>
<polygon fill="#00ff00" stroke="#00ff00" points="1002.8521,-739.4698 1013,-736.4251 1003.1683,-732.4769 1002.8521,-739.4698"/>
</g>
<!-- ram_recv_eth_packet -->
<g id="node9" class="node">
<title>ram_recv_eth_packet</title>
<polygon fill="#ff0000" stroke="#000000" points="621,-49.4251 621,-141.4251 863,-141.4251 863,-49.4251 621,-49.4251"/>
<text text-anchor="middle" x="648" y="-126.2251" font-family="Times,serif" font-size="14.00" fill="#000000">addr_0</text>
<polyline fill="none" stroke="#000000" points="621,-118.4251 675,-118.4251 "/>
<text text-anchor="middle" x="648" y="-103.2251" font-family="Times,serif" font-size="14.00" fill="#000000">data_0</text>
<polyline fill="none" stroke="#000000" points="621,-95.4251 675,-95.4251 "/>
<text text-anchor="middle" x="648" y="-80.2251" font-family="Times,serif" font-size="14.00" fill="#000000">we_0</text>
<polyline fill="none" stroke="#000000" points="621,-72.4251 675,-72.4251 "/>
<text text-anchor="middle" x="648" y="-57.2251" font-family="Times,serif" font-size="14.00" fill="#000000">oe_0</text>
<polyline fill="none" stroke="#000000" points="675,-49.4251 675,-141.4251 "/>
<text text-anchor="middle" x="742" y="-91.7251" font-family="Times,serif" font-size="14.00" fill="#000000">ram_recv_eth_packet</text>
<polyline fill="none" stroke="#000000" points="809,-49.4251 809,-141.4251 "/>
<text text-anchor="middle" x="836" y="-126.2251" font-family="Times,serif" font-size="14.00" fill="#000000">addr_1</text>
<polyline fill="none" stroke="#000000" points="809,-118.4251 863,-118.4251 "/>
<text text-anchor="middle" x="836" y="-103.2251" font-family="Times,serif" font-size="14.00" fill="#000000">data_1</text>
<polyline fill="none" stroke="#000000" points="809,-95.4251 863,-95.4251 "/>
<text text-anchor="middle" x="836" y="-80.2251" font-family="Times,serif" font-size="14.00" fill="#000000">we_1</text>
<polyline fill="none" stroke="#000000" points="809,-72.4251 863,-72.4251 "/>
<text text-anchor="middle" x="836" y="-57.2251" font-family="Times,serif" font-size="14.00" fill="#000000">oe_1</text>
</g>
<!-- ecpri_rx&#45;&gt;ram_recv_eth_packet -->
<g id="edge14" class="edge">
<title>ecpri_rx:oe_1&#45;&gt;ram_recv_eth_packet:oe_0</title>
<path fill="none" stroke="#0000ff" d="M477,-633.4251C736.1236,-633.4251 368.3531,-75.4339 610.9473,-60.7212"/>
<polygon fill="#0000ff" stroke="#0000ff" points="611.1074,-64.2181 621,-60.4251 610.9012,-57.2211 611.1074,-64.2181"/>
</g>
<!-- ecpri_rx&#45;&gt;ram_recv_eth_packet -->
<g id="edge15" class="edge">
<title>ecpri_rx:addr_1&#45;&gt;ram_recv_eth_packet:addr_0</title>
<path fill="none" stroke="#0000ff" d="M477,-680.4251C726.2291,-680.4251 378.0826,-145.3613 610.9772,-130.7307"/>
<polygon fill="#0000ff" stroke="#0000ff" points="611.1113,-134.2283 621,-130.4251 610.8979,-127.2316 611.1113,-134.2283"/>
</g>
<!-- ip_pkt -->
<g id="node3" class="node">
<title>ip_pkt</title>
<polygon fill="none" stroke="#000000" points="1387,-963.9251 1387,-1170.9251 1558,-1170.9251 1558,-963.9251 1387,-963.9251"/>
<text text-anchor="middle" x="1420" y="-1155.7251" font-family="Times,serif" font-size="14.00" fill="#000000">ip_create</text>
<polyline fill="none" stroke="#000000" points="1387,-1147.9251 1453,-1147.9251 "/>
<text text-anchor="middle" x="1420" y="-1132.7251" font-family="Times,serif" font-size="14.00" fill="#000000">we_1</text>
<polyline fill="none" stroke="#000000" points="1387,-1124.9251 1453,-1124.9251 "/>
<text text-anchor="middle" x="1420" y="-1109.7251" font-family="Times,serif" font-size="14.00" fill="#000000">addr_1</text>
<polyline fill="none" stroke="#000000" points="1387,-1101.9251 1453,-1101.9251 "/>
<text text-anchor="middle" x="1420" y="-1086.7251" font-family="Times,serif" font-size="14.00" fill="#000000">data_1</text>
<polyline fill="none" stroke="#000000" points="1387,-1078.9251 1453,-1078.9251 "/>
<text text-anchor="middle" x="1420" y="-1063.7251" font-family="Times,serif" font-size="14.00" fill="#000000">oe_1</text>
<polyline fill="none" stroke="#000000" points="1387,-1055.9251 1453,-1055.9251 "/>
<text text-anchor="middle" x="1420" y="-1040.7251" font-family="Times,serif" font-size="14.00" fill="#000000">we_2</text>
<polyline fill="none" stroke="#000000" points="1387,-1032.9251 1453,-1032.9251 "/>
<text text-anchor="middle" x="1420" y="-1017.7251" font-family="Times,serif" font-size="14.00" fill="#000000">addr_2</text>
<polyline fill="none" stroke="#000000" points="1387,-1009.9251 1453,-1009.9251 "/>
<text text-anchor="middle" x="1420" y="-994.7251" font-family="Times,serif" font-size="14.00" fill="#000000">data_2</text>
<polyline fill="none" stroke="#000000" points="1387,-986.9251 1453,-986.9251 "/>
<text text-anchor="middle" x="1420" y="-971.7251" font-family="Times,serif" font-size="14.00" fill="#000000">oe_2</text>
<polyline fill="none" stroke="#000000" points="1453,-963.9251 1453,-1170.9251 "/>
<text text-anchor="middle" x="1478.5" y="-1063.7251" font-family="Times,serif" font-size="14.00" fill="#000000">ip_pkt</text>
<polyline fill="none" stroke="#000000" points="1504,-963.9251 1504,-1170.9251 "/>
<text text-anchor="middle" x="1531" y="-1141.7251" font-family="Times,serif" font-size="14.00" fill="#000000">we_0</text>
<polyline fill="none" stroke="#000000" points="1504,-1119.9251 1558,-1119.9251 "/>
<text text-anchor="middle" x="1531" y="-1090.2251" font-family="Times,serif" font-size="14.00" fill="#000000">addr_0</text>
<polyline fill="none" stroke="#000000" points="1504,-1067.9251 1558,-1067.9251 "/>
<text text-anchor="middle" x="1531" y="-1038.2251" font-family="Times,serif" font-size="14.00" fill="#000000">data_0</text>
<polyline fill="none" stroke="#000000" points="1504,-1015.9251 1558,-1015.9251 "/>
<text text-anchor="middle" x="1531" y="-986.2251" font-family="Times,serif" font-size="14.00" fill="#000000">oe_0</text>
</g>
<!-- ecpri_tx&#45;&gt;ip_pkt -->
<g id="edge29" class="edge">
<title>ecpri_tx:ip_create&#45;&gt;ip_pkt:ip_create</title>
<path fill="none" stroke="#000000" d="M843,-797.4251C1030.2161,-797.4251 850.9618,-1081.9748 1007,-1185.4251 1145.1987,-1277.0481 1214.8305,-1164.2385 1376.7093,-1159.573"/>
<polygon fill="#000000" stroke="#000000" points="1377.0514,-1163.0686 1387,-1159.4251 1376.9507,-1156.0693 1377.0514,-1163.0686"/>
</g>
<!-- ram_cpri_packet -->
<g id="node7" class="node">
<title>ram_cpri_packet</title>
<polygon fill="#ff0000" stroke="#000000" points="1017,-891.4251 1017,-983.4251 1233,-983.4251 1233,-891.4251 1017,-891.4251"/>
<text text-anchor="middle" x="1044" y="-968.2251" font-family="Times,serif" font-size="14.00" fill="#000000">addr_0</text>
<polyline fill="none" stroke="#000000" points="1017,-960.4251 1071,-960.4251 "/>
<text text-anchor="middle" x="1044" y="-945.2251" font-family="Times,serif" font-size="14.00" fill="#000000">data_0</text>
<polyline fill="none" stroke="#000000" points="1017,-937.4251 1071,-937.4251 "/>
<text text-anchor="middle" x="1044" y="-922.2251" font-family="Times,serif" font-size="14.00" fill="#000000">we_0</text>
<polyline fill="none" stroke="#000000" points="1017,-914.4251 1071,-914.4251 "/>
<text text-anchor="middle" x="1044" y="-899.2251" font-family="Times,serif" font-size="14.00" fill="#000000">oe_0</text>
<polyline fill="none" stroke="#000000" points="1071,-891.4251 1071,-983.4251 "/>
<text text-anchor="middle" x="1125" y="-933.7251" font-family="Times,serif" font-size="14.00" fill="#000000">ram_cpri_packet</text>
<polyline fill="none" stroke="#000000" points="1179,-891.4251 1179,-983.4251 "/>
<text text-anchor="middle" x="1206" y="-968.2251" font-family="Times,serif" font-size="14.00" fill="#000000">addr_1</text>
<polyline fill="none" stroke="#000000" points="1179,-960.4251 1233,-960.4251 "/>
<text text-anchor="middle" x="1206" y="-945.2251" font-family="Times,serif" font-size="14.00" fill="#000000">data_1</text>
<polyline fill="none" stroke="#000000" points="1179,-937.4251 1233,-937.4251 "/>
<text text-anchor="middle" x="1206" y="-922.2251" font-family="Times,serif" font-size="14.00" fill="#000000">we_1</text>
<polyline fill="none" stroke="#000000" points="1179,-914.4251 1233,-914.4251 "/>
<text text-anchor="middle" x="1206" y="-899.2251" font-family="Times,serif" font-size="14.00" fill="#000000">oe_1</text>
</g>
<!-- ecpri_tx&#45;&gt;ram_cpri_packet -->
<g id="edge26" class="edge">
<title>ecpri_tx:we_2&#45;&gt;ram_cpri_packet:we_0</title>
<path fill="none" stroke="#000000" d="M843,-981.4251C920.749,-981.4251 934.6415,-930.1342 1006.9028,-925.7264"/>
<polygon fill="#000000" stroke="#000000" points="1007.1089,-929.2219 1017,-925.4251 1006.9,-922.225 1007.1089,-929.2219"/>
</g>
<!-- ecpri_tx&#45;&gt;ram_cpri_packet -->
<g id="edge27" class="edge">
<title>ecpri_tx:addr_2&#45;&gt;ram_cpri_packet:addr_0</title>
<path fill="none" stroke="#000000" d="M843,-935.4251C918.5108,-935.4251 936.3838,-969.1755 1006.7162,-972.2078"/>
<polygon fill="#000000" stroke="#000000" points="1006.9283,-975.7129 1017,-972.4251 1007.0762,-968.7145 1006.9283,-975.7129"/>
</g>
<!-- ecpri_tx&#45;&gt;ram_cpri_packet -->
<g id="edge28" class="edge">
<title>ecpri_tx:data_2&#45;&gt;ram_cpri_packet:data_0</title>
<path fill="none" stroke="#000000" d="M843,-889.4251C921.287,-889.4251 934.1728,-944.3796 1006.8394,-949.1022"/>
<polygon fill="#000000" stroke="#000000" points="1006.8939,-952.6056 1017,-949.4251 1007.1162,-945.6092 1006.8939,-952.6056"/>
</g>
<!-- ecpri_tx&#45;&gt;ram_cpri_payload -->
<g id="edge23" class="edge">
<title>ecpri_tx:oe_1&#45;&gt;ram_cpri_payload:oe_1</title>
<path fill="none" stroke="#000000" d="M678,-774.4251C678,-769.585 1008.207,-679.0983 1013,-678.4251 1095.9789,-666.7701 1200.565,-597.2306 1209.3997,-668.0231"/>
<polygon fill="#000000" stroke="#000000" points="1205.9296,-668.6434 1210,-678.4251 1212.918,-668.24 1205.9296,-668.6434"/>
</g>
<!-- ecpri_tx&#45;&gt;ram_cpri_payload -->
<g id="edge24" class="edge">
<title>ecpri_tx:addr_1&#45;&gt;ram_cpri_payload:addr_1</title>
<path fill="none" stroke="#000000" d="M641,-831.4251C615.4444,-831.4251 622.9852,-792.0511 641,-773.9251 816.7477,-597.093 1198.9771,-1011.2979 1209.7667,-780.7617"/>
<polygon fill="#000000" stroke="#000000" points="1213.2733,-780.5015 1210,-770.4251 1206.2751,-780.3435 1213.2733,-780.5015"/>
</g>
<!-- ip_pkt&#45;&gt;ram_eth_packet_hdr -->
<g id="edge20" class="edge">
<title>ip_pkt:oe_1&#45;&gt;ram_eth_packet_hdr:oe_1</title>
<path fill="none" stroke="#000000" d="M1387,-1067.4251C1326.5,-1067.4251 1308.8936,-1067.4251 1253.085,-1067.4251"/>
<polygon fill="#000000" stroke="#000000" points="1253,-1063.9252 1243,-1067.4251 1253,-1070.9252 1253,-1063.9252"/>
</g>
<!-- ip_pkt&#45;&gt;ram_eth_packet_hdr -->
<g id="edge21" class="edge">
<title>ip_pkt:addr_1&#45;&gt;ram_eth_packet_hdr:addr_1</title>
<path fill="none" stroke="#000000" d="M1387,-1113.4251C1325.6655,-1113.4251 1309.5912,-1134.8718 1253.207,-1137.2176"/>
<polygon fill="#000000" stroke="#000000" points="1252.9268,-1133.7225 1243,-1137.4251 1253.0691,-1140.721 1252.9268,-1133.7225"/>
</g>
<!-- ip_pkt&#45;&gt;ram_cpri_packet -->
<g id="edge30" class="edge">
<title>ip_pkt:oe_2&#45;&gt;ram_cpri_packet:oe_1</title>
<path fill="none" stroke="#000000" d="M1387,-975.4251C1314.8057,-975.4251 1309.1411,-909.1084 1243.184,-902.8912"/>
<polygon fill="#000000" stroke="#000000" points="1243.1496,-899.3861 1233,-902.4251 1242.8295,-906.3788 1243.1496,-899.3861"/>
</g>
<!-- ip_pkt&#45;&gt;ram_cpri_packet -->
<g id="edge31" class="edge">
<title>ip_pkt:addr_2&#45;&gt;ram_cpri_packet:addr_1</title>
<path fill="none" stroke="#000000" d="M1387,-1021.4251C1318.6815,-1021.4251 1305.9828,-977.0934 1243.0959,-972.7641"/>
<polygon fill="#000000" stroke="#000000" points="1243.1119,-969.2628 1233,-972.4251 1242.8769,-976.2588 1243.1119,-969.2628"/>
</g>
<!-- ip_switch -->
<g id="node4" class="node">
<title>ip_switch</title>
<polygon fill="none" stroke="#000000" points="0,-51.9251 0,-212.9251 133,-212.9251 133,-51.9251 0,-51.9251"/>
<text text-anchor="middle" x="34.5" y="-128.7251" font-family="Times,serif" font-size="14.00" fill="#000000">ip_switch</text>
<polyline fill="none" stroke="#000000" points="69,-51.9251 69,-212.9251 "/>
<text text-anchor="middle" x="101" y="-197.7251" font-family="Times,serif" font-size="14.00" fill="#000000">recv_pkt</text>
<polyline fill="none" stroke="#000000" points="69,-189.9251 133,-189.9251 "/>
<text text-anchor="middle" x="101" y="-174.7251" font-family="Times,serif" font-size="14.00" fill="#000000">we</text>
<polyline fill="none" stroke="#000000" points="69,-166.9251 133,-166.9251 "/>
<text text-anchor="middle" x="101" y="-151.7251" font-family="Times,serif" font-size="14.00" fill="#000000">out_data</text>
<polyline fill="none" stroke="#000000" points="69,-143.9251 133,-143.9251 "/>
<text text-anchor="middle" x="101" y="-128.7251" font-family="Times,serif" font-size="14.00" fill="#000000">we_0</text>
<polyline fill="none" stroke="#000000" points="69,-120.9251 133,-120.9251 "/>
<text text-anchor="middle" x="101" y="-105.7251" font-family="Times,serif" font-size="14.00" fill="#000000">addr_0</text>
<polyline fill="none" stroke="#000000" points="69,-97.9251 133,-97.9251 "/>
<text text-anchor="middle" x="101" y="-82.7251" font-family="Times,serif" font-size="14.00" fill="#000000">data_0</text>
<polyline fill="none" stroke="#000000" points="69,-74.9251 133,-74.9251 "/>
<text text-anchor="middle" x="101" y="-59.7251" font-family="Times,serif" font-size="14.00" fill="#000000">oe_0</text>
</g>
<!-- ip_switch&#45;&gt;ecpri_rx -->
<g id="edge8" class="edge">
<title>ip_switch:recv_pkt&#45;&gt;ecpri_rx:recv_pkt</title>
<path fill="none" stroke="#000000" d="M133,-201.4251C337.3225,-201.4251 78.2732,-631.3451 266.7578,-646.0396"/>
<polygon fill="#000000" stroke="#000000" points="266.8754,-649.5464 277,-646.4251 267.1387,-642.5514 266.8754,-649.5464"/>
</g>
<!-- ip_switch&#45;&gt;fifo -->
<g id="edge1" class="edge">
<title>ip_switch:out_data&#45;&gt;fifo:inp_data</title>
<path fill="none" stroke="#000000" d="M133,-155.4251C218.6291,-155.4251 196.9606,-252.9941 277,-283.4251 433.7959,-343.0388 487.5366,-255.1692 650.6113,-251.5401"/>
<polygon fill="#000000" stroke="#000000" points="651.0394,-255.0357 661,-251.4251 650.9618,-248.0361 651.0394,-255.0357"/>
</g>
<!-- ip_switch&#45;&gt;fifo -->
<g id="edge2" class="edge">
<title>ip_switch:we&#45;&gt;fifo:we</title>
<path fill="none" stroke="#000000" d="M133,-178.4251C365.2228,-178.4251 423.6269,-226 650.7573,-227.3938"/>
<polygon fill="#000000" stroke="#000000" points="650.9893,-230.8945 661,-227.4251 651.0108,-223.8945 650.9893,-230.8945"/>
</g>
<!-- ip_switch&#45;&gt;ram_recv_eth_packet -->
<g id="edge3" class="edge">
<title>ip_switch:we_0&#45;&gt;ram_recv_eth_packet:we_1</title>
<path fill="none" stroke="#ff0000" d="M133,-132.4251C353.041,-132.4251 401.7485,-67.5474 621,-48.9251 621,-48.9251 807.1093,-75.4572 852.9097,-81.9866"/>
<polygon fill="#ff0000" stroke="#ff0000" points="852.6061,-85.4786 863,-83.4251 853.5941,-78.5487 852.6061,-85.4786"/>
</g>
<!-- ip_switch&#45;&gt;ram_recv_eth_packet -->
<g id="edge4" class="edge">
<title>ip_switch:addr_0&#45;&gt;ram_recv_eth_packet:addr_1</title>
<path fill="none" stroke="#ff0000" d="M133,-109.4251C201.6692,-109.4251 209.5082,-66.0866 277,-53.4251 364.3648,-37.0353 391.4336,-29.3496 477,-53.4251 549.201,-73.7399 548.799,-121.1102 621,-141.4251 663.3988,-153.3546 810.3433,-183.8932 833.0446,-151.1601"/>
<polygon fill="#ff0000" stroke="#ff0000" points="836.4441,-152.0106 836,-141.4251 829.7459,-149.9771 836.4441,-152.0106"/>
</g>
<!-- ip_switch&#45;&gt;ram_recv_eth_packet -->
<g id="edge5" class="edge">
<title>ip_switch:data_0&#45;&gt;ram_recv_eth_packet:data_1</title>
<path fill="none" stroke="#ff0000" d="M133,-86.4251C203.5884,-86.4251 208.0784,-34.674 277,-19.4251 363.79,-.2227 393.5751,11.2591 477,-19.4251 555.86,-48.4302 542.14,-112.9199 621,-141.9251 621,-141.9251 807.1093,-115.3929 852.9097,-108.8636"/>
<polygon fill="#ff0000" stroke="#ff0000" points="853.5941,-112.3015 863,-107.4251 852.6061,-105.3715 853.5941,-112.3015"/>
</g>
<!-- fifo&#45;&gt;ecpri_rx -->
<g id="edge6" class="edge">
<title>fifo:out_data&#45;&gt;ecpri_rx:inp_data</title>
<path fill="none" stroke="#000000" d="M792,-262.4251C792,-342.2595 676.7391,-260.2701 621,-317.4251 462.6701,-479.7767 658.5764,-671.0706 477,-806.9251 477,-806.9251 327.2739,-766.8733 286.918,-756.0781"/>
<polygon fill="#000000" stroke="#000000" points="287.5648,-752.6282 277,-753.4251 285.7559,-759.3904 287.5648,-752.6282"/>
</g>
<!-- ram_eth_packet_hdr&#45;&gt;ip_pkt -->
<g id="edge22" class="edge">
<title>ram_eth_packet_hdr:data_1&#45;&gt;ip_pkt:data_1</title>
<path fill="none" stroke="#000000" d="M1243,-1114.4251C1304.3345,-1114.4251 1320.4088,-1092.9783 1376.793,-1090.6325"/>
<polygon fill="#000000" stroke="#000000" points="1377.0732,-1094.1277 1387,-1090.4251 1376.9309,-1087.1291 1377.0732,-1094.1277"/>
</g>
<!-- ram_cpri_packet&#45;&gt;ip_pkt -->
<g id="edge32" class="edge">
<title>ram_cpri_packet:data_1&#45;&gt;ip_pkt:data_2</title>
<path fill="none" stroke="#000000" d="M1233,-949.4251C1301.3185,-949.4251 1314.0172,-993.7567 1376.9041,-998.086"/>
<polygon fill="#000000" stroke="#000000" points="1376.8881,-1001.5873 1387,-998.4251 1377.1231,-994.5913 1376.8881,-1001.5873"/>
</g>
<!-- ram_cpri_payload&#45;&gt;ecpri_tx -->
<g id="edge25" class="edge">
<title>ram_cpri_payload:data_1&#45;&gt;ecpri_tx:data_1</title>
<path fill="none" stroke="#000000" d="M1237,-736.4251C1252.3333,-736.4251 1247.815,-760.0555 1237,-770.9251 1050.1649,-958.703 827.8351,-586.1471 641,-773.9251 633.3957,-781.5677 628.9044,-795.5192 632.238,-803.1292"/>
<polygon fill="#000000" stroke="#000000" points="630.6313,-806.2478 641,-808.4251 634.2522,-800.257 630.6313,-806.2478"/>
</g>
<!-- ram_recv_eth_packet&#45;&gt;ecpri_rx -->
<g id="edge16" class="edge">
<title>ram_recv_eth_packet:data_0&#45;&gt;ecpri_rx:data_1</title>
<path fill="none" stroke="#0000ff" d="M621,-107.4251C371.7709,-107.4251 719.9174,-642.4888 487.0228,-657.1195"/>
<polygon fill="#0000ff" stroke="#0000ff" points="486.8887,-653.6218 477,-657.4251 487.1021,-660.6186 486.8887,-653.6218"/>
</g>
</g>
</svg>
