<?xml version="1.0" encoding="UTF-8" standalone="no"?><svg xmlns="http://www.w3.org/2000/svg" xmlns:xlink="http://www.w3.org/1999/xlink" contentScriptType="application/ecmascript" contentStyleType="text/css" height="2197px" preserveAspectRatio="none" style="width:1082px;height:2197px;" version="1.1" viewBox="0 0 1082 2197" width="1082px" zoomAndPan="magnify"><defs><filter height="300%" id="f1bwcpplxaffps" width="300%" x="-1" y="-1"><feGaussianBlur result="blurOut" stdDeviation="2.0"/><feColorMatrix in="blurOut" result="blurOut2" type="matrix" values="0 0 0 0 0 0 0 0 0 0 0 0 0 0 0 0 0 0 .4 0"/><feOffset dx="4.0" dy="4.0" in="blurOut2" result="blurOut3"/><feBlend in="SourceGraphic" in2="blurOut3" mode="normal"/></filter></defs><g><!--cluster ecpri_top--><rect fill="#FEFECE" filter="url(#f1bwcpplxaffps)" height="1585" rx="12.5" ry="12.5" style="stroke: #A80036; stroke-width: 1.5;" width="855" x="14" y="16"/><rect fill="#FFFFFF" height="1552.7031" rx="12.5" ry="12.5" style="stroke: #FFFFFF; stroke-width: 1.0;" width="849" x="17" y="45.2969"/><line style="stroke: #A80036; stroke-width: 1.5;" x1="14" x2="869" y1="42.2969" y2="42.2969"/><text fill="#000000" font-family="sans-serif" font-size="14" lengthAdjust="spacingAndGlyphs" textLength="64" x="409.5" y="32.9951">ecpri_top</text><rect fill="#FEFECE" filter="url(#f1bwcpplxaffps)" height="50" rx="12.5" ry="12.5" style="stroke: #A80036; stroke-width: 1.5;" width="56" x="684" y="43"/><line style="stroke: #A80036; stroke-width: 1.5;" x1="684" x2="740" y1="69.2969" y2="69.2969"/><text fill="#000000" font-family="sans-serif" font-size="14" lengthAdjust="spacingAndGlyphs" textLength="36" x="694" y="60.9951">reset</text><rect fill="#FEFECE" filter="url(#f1bwcpplxaffps)" height="619.2969" rx="12.5" ry="12.5" style="stroke: #A80036; stroke-width: 1.5;" width="620" x="22" y="232"/><rect fill="#FFFFFF" height="587" rx="12.5" ry="12.5" style="stroke: #FFFFFF; stroke-width: 1.0;" width="614" x="25" y="261.2969"/><line style="stroke: #A80036; stroke-width: 1.5;" x1="22" x2="642" y1="258.2969" y2="258.2969"/><text fill="#000000" font-family="sans-serif" font-size="14" lengthAdjust="spacingAndGlyphs" textLength="53" x="305.5" y="249.9951">ecpri_rx</text><rect fill="#FEFECE" filter="url(#f1bwcpplxaffps)" height="50" rx="12.5" ry="12.5" style="stroke: #A80036; stroke-width: 1.5;" width="75" x="162.5" y="271.2969"/><line style="stroke: #A80036; stroke-width: 1.5;" x1="162.5" x2="237.5" y1="297.5938" y2="297.5938"/><text fill="#000000" font-family="sans-serif" font-size="14" lengthAdjust="spacingAndGlyphs" textLength="55" x="172.5" y="289.292">reset_rx</text><rect fill="#FEFECE" filter="url(#f1bwcpplxaffps)" height="50" rx="12.5" ry="12.5" style="stroke: #A80036; stroke-width: 1.5;" width="107" x="217.5" y="374.2969"/><line style="stroke: #A80036; stroke-width: 1.5;" x1="217.5" x2="324.5" y1="400.5938" y2="400.5938"/><text fill="#000000" font-family="sans-serif" font-size="14" lengthAdjust="spacingAndGlyphs" textLength="87" x="227.5" y="392.292">find_cpri_hdr</text><rect fill="#FEFECE" filter="url(#f1bwcpplxaffps)" height="50" rx="12.5" ry="12.5" style="stroke: #A80036; stroke-width: 1.5;" width="113" x="214.5" y="477.2969"/><line style="stroke: #A80036; stroke-width: 1.5;" x1="214.5" x2="327.5" y1="503.5938" y2="503.5938"/><text fill="#000000" font-family="sans-serif" font-size="14" lengthAdjust="spacingAndGlyphs" textLength="93" x="224.5" y="495.292">read_cpri_hdr</text><rect fill="#FEFECE" filter="url(#f1bwcpplxaffps)" height="50" rx="12.5" ry="12.5" style="stroke: #A80036; stroke-width: 1.5;" width="212" x="165" y="580.2969"/><line style="stroke: #A80036; stroke-width: 1.5;" x1="165" x2="377" y1="606.5938" y2="606.5938"/><text fill="#000000" font-family="sans-serif" font-size="14" lengthAdjust="spacingAndGlyphs" textLength="192" x="175" y="598.292">read_cpri_remote_mem_hdr</text><rect fill="#FEFECE" filter="url(#f1bwcpplxaffps)" height="50" rx="12.5" ry="12.5" style="stroke: #A80036; stroke-width: 1.5;" width="111" x="98.5" y="683.2969"/><line style="stroke: #A80036; stroke-width: 1.5;" x1="98.5" x2="209.5" y1="709.5938" y2="709.5938"/><text fill="#000000" font-family="sans-serif" font-size="14" lengthAdjust="spacingAndGlyphs" textLength="91" x="108.5" y="701.292">read_payload</text><rect fill="#FEFECE" filter="url(#f1bwcpplxaffps)" height="50" rx="12.5" ry="12.5" style="stroke: #A80036; stroke-width: 1.5;" width="110" x="33" y="786.2969"/><line style="stroke: #A80036; stroke-width: 1.5;" x1="33" x2="143" y1="812.5938" y2="812.5938"/><text fill="#000000" font-family="sans-serif" font-size="14" lengthAdjust="spacingAndGlyphs" textLength="90" x="43" y="804.292">raise_rx_resp</text><rect fill="#FEFECE" filter="url(#f1bwcpplxaffps)" height="50" rx="12.5" ry="12.5" style="stroke: #A80036; stroke-width: 1.5;" width="116" x="285" y="683.2969"/><line style="stroke: #A80036; stroke-width: 1.5;" x1="285" x2="401" y1="709.5938" y2="709.5938"/><text fill="#000000" font-family="sans-serif" font-size="14" lengthAdjust="spacingAndGlyphs" textLength="96" x="295" y="701.292">write_to_mem</text><rect fill="#FEFECE" filter="url(#f1bwcpplxaffps)" height="50" rx="12.5" ry="12.5" style="stroke: #A80036; stroke-width: 1.5;" width="110" x="360" y="786.2969"/><line style="stroke: #A80036; stroke-width: 1.5;" x1="360" x2="470" y1="812.5938" y2="812.5938"/><text fill="#000000" font-family="sans-serif" font-size="14" lengthAdjust="spacingAndGlyphs" textLength="90" x="370" y="804.292">raise_tx_resp</text><!--link reset_rx to find_cpri_hdr--><path d="M162.2285,303.4597 C124.8228,312.2575 75.9496,329.4111 97,356.2969 C111.2228,374.4624 167.3489,386.0108 212.0622,392.5131 " fill="none" id="reset_rx-find_cpri_hdr" style="stroke: #A80036; stroke-width: 1.0;"/><polygon fill="#A80036" points="217.178,393.2424,208.8328,388.0119,212.2281,392.5365,207.7035,395.9318,217.178,393.2424" style="stroke: #A80036; stroke-width: 1.0;"/><text fill="#000000" font-family="sans-serif" font-size="13" lengthAdjust="spacingAndGlyphs" textLength="183" x="98" y="352.3638">ip_pkt_recv / find cpri header</text><!--link find_cpri_hdr to reset_rx--><path d="M283.0707,374.2265 C286.7227,362.8845 288.3024,349.7182 282,339.2969 C273.1798,324.7123 257.599,314.8325 242.3709,308.2622 " fill="none" id="find_cpri_hdr-reset_rx" style="stroke: #A80036; stroke-width: 1.0;"/><polygon fill="#A80036" points="237.6642,306.3279,244.468,313.4488,242.2888,308.2286,247.5091,306.0494,237.6642,306.3279" style="stroke: #A80036; stroke-width: 1.0;"/><text fill="#000000" font-family="sans-serif" font-size="13" lengthAdjust="spacingAndGlyphs" textLength="155" x="288" y="352.3638">/ did not find cpri header</text><!--link find_cpri_hdr to read_cpri_hdr--><path d="M271,424.4935 C271,438.8337 271,456.8931 271,472.0022 " fill="none" id="find_cpri_hdr-read_cpri_hdr" style="stroke: #A80036; stroke-width: 1.0;"/><polygon fill="#A80036" points="271,477.0034,275,468.0034,271,472.0034,267,468.0034,271,477.0034" style="stroke: #A80036; stroke-width: 1.0;"/><text fill="#000000" font-family="sans-serif" font-size="13" lengthAdjust="spacingAndGlyphs" textLength="128" x="272" y="455.3638">/ read global header</text><!--link read_cpri_hdr to read_cpri_remote_mem_hdr--><path d="M271,527.4935 C271,541.8337 271,559.8931 271,575.0022 " fill="none" id="read_cpri_hdr-read_cpri_remote_mem_hdr" style="stroke: #A80036; stroke-width: 1.0;"/><polygon fill="#A80036" points="271,580.0034,275,571.0034,271,575.0034,267,571.0034,271,580.0034" style="stroke: #A80036; stroke-width: 1.0;"/><text fill="#000000" font-family="sans-serif" font-size="13" lengthAdjust="spacingAndGlyphs" textLength="128" x="272" y="558.3638">/ read global header</text><!--link read_cpri_remote_mem_hdr to read_payload--><path d="M201.8585,630.5258 C193.4898,635.5366 185.5877,641.4235 179,648.2969 C171.0098,656.6336 165.4129,667.8921 161.5726,678.4047 " fill="none" id="read_cpri_remote_mem_hdr-read_payload" style="stroke: #A80036; stroke-width: 1.0;"/><polygon fill="#A80036" points="159.9295,683.1691,166.6454,675.9651,161.5598,678.4423,159.0825,673.3567,159.9295,683.1691" style="stroke: #A80036; stroke-width: 1.0;"/><text fill="#000000" font-family="sans-serif" font-size="13" lengthAdjust="spacingAndGlyphs" textLength="118" x="180" y="661.3638">/ read cpri payload</text><!--link read_payload to raise_rx_resp--><path d="M137.8546,733.4935 C128.506,748.0831 116.6905,766.5224 106.9088,781.7878 " fill="none" id="read_payload-raise_rx_resp" style="stroke: #A80036; stroke-width: 1.0;"/><polygon fill="#A80036" points="104.2075,786.0034,112.4312,780.5839,106.9052,781.7936,105.6955,776.2676,104.2075,786.0034" style="stroke: #A80036; stroke-width: 1.0;"/><text fill="#000000" font-family="sans-serif" font-size="13" lengthAdjust="spacingAndGlyphs" textLength="93" x="126" y="764.3638">/ rx resp signal</text><!--link raise_rx_resp to reset_rx--><path d="M78.2628,785.891 C71.2432,765.2933 63,735.3466 63,708.2969 C63,399.2969 63,399.2969 63,399.2969 C63,370.408 67.2863,359.4342 88,339.2969 C106.8919,320.9306 134.4615,310.2158 157.5195,304.0753 " fill="none" id="raise_rx_resp-reset_rx" style="stroke: #A80036; stroke-width: 1.0;"/><polygon fill="#A80036" points="162.3666,302.8333,152.6554,301.1925,157.5231,304.0744,154.6412,308.9421,162.3666,302.8333" style="stroke: #A80036; stroke-width: 1.0;"/><text fill="#000000" font-family="sans-serif" font-size="13" lengthAdjust="spacingAndGlyphs" textLength="131" x="64" y="558.3638">/ got to the init state</text><!--link read_cpri_remote_mem_hdr to write_to_mem--><path d="M288.6132,630.4935 C298.8117,645.0831 311.7013,663.5224 322.3723,678.7878 " fill="none" id="read_cpri_remote_mem_hdr-write_to_mem" style="stroke: #A80036; stroke-width: 1.0;"/><polygon fill="#A80036" points="325.3191,683.0034,323.441,673.3352,322.4544,678.9054,316.8842,677.9188,325.3191,683.0034" style="stroke: #A80036; stroke-width: 1.0;"/><text fill="#000000" font-family="sans-serif" font-size="13" lengthAdjust="spacingAndGlyphs" textLength="119" x="313" y="661.3638">/ write cpri payload</text><!--link write_to_mem to raise_tx_resp--><path d="M344.4,733.5036 C346.0091,744.8743 349.3117,758.0254 356,768.2969 C359.4041,773.5247 363.6801,778.3317 368.3669,782.6866 " fill="none" id="write_to_mem-raise_tx_resp" style="stroke: #A80036; stroke-width: 1.0;"/><polygon fill="#A80036" points="372.3904,786.2376,368.2894,777.2832,368.6416,782.929,362.9957,783.2813,372.3904,786.2376" style="stroke: #A80036; stroke-width: 1.0;"/><text fill="#000000" font-family="sans-serif" font-size="13" lengthAdjust="spacingAndGlyphs" textLength="104" x="357" y="764.3638">/ raise res signal</text><!--link raise_tx_resp to reset_rx--><path d="M447.6672,786.288 C453.1045,780.8637 458.2013,774.7874 462,768.2969 C475.8317,744.6641 476,735.6799 476,708.2969 C476,399.2969 476,399.2969 476,399.2969 C476,369.8694 471.3745,357.1744 448,339.2969 C416.5182,315.2187 305.1295,303.6733 242.8845,298.9891 " fill="none" id="raise_tx_resp-reset_rx" style="stroke: #A80036; stroke-width: 1.0;"/><polygon fill="#A80036" points="237.7543,298.6102,246.4351,303.2625,242.7407,298.9786,247.0246,295.2842,237.7543,298.6102" style="stroke: #A80036; stroke-width: 1.0;"/><text fill="#000000" font-family="sans-serif" font-size="13" lengthAdjust="spacingAndGlyphs" textLength="131" x="477" y="558.3638">/ got to the init state</text><rect fill="#FEFECE" filter="url(#f1bwcpplxaffps)" height="587.2969" rx="12.5" ry="12.5" style="stroke: #A80036; stroke-width: 1.5;" width="476" x="343" y="1006"/><rect fill="#FFFFFF" height="555" rx="12.5" ry="12.5" style="stroke: #FFFFFF; stroke-width: 1.0;" width="470" x="346" y="1035.2969"/><line style="stroke: #A80036; stroke-width: 1.5;" x1="343" x2="819" y1="1032.2969" y2="1032.2969"/><text fill="#000000" font-family="sans-serif" font-size="14" lengthAdjust="spacingAndGlyphs" textLength="53" x="554.5" y="1023.9951">ecpri_tx</text><rect fill="#FEFECE" filter="url(#f1bwcpplxaffps)" height="50" rx="12.5" ry="12.5" style="stroke: #A80036; stroke-width: 1.5;" width="75" x="642" y="1045.2969"/><line style="stroke: #A80036; stroke-width: 1.5;" x1="642" x2="717" y1="1071.5938" y2="1071.5938"/><text fill="#000000" font-family="sans-serif" font-size="14" lengthAdjust="spacingAndGlyphs" textLength="55" x="652" y="1063.292">reset_tx</text><rect fill="#FEFECE" filter="url(#f1bwcpplxaffps)" height="50" rx="12.5" ry="12.5" style="stroke: #A80036; stroke-width: 1.5;" width="115" x="498" y="1148.2969"/><line style="stroke: #A80036; stroke-width: 1.5;" x1="498" x2="613" y1="1174.5938" y2="1174.5938"/><text fill="#000000" font-family="sans-serif" font-size="14" lengthAdjust="spacingAndGlyphs" textLength="95" x="508" y="1166.292">write_cpri_hdr</text><rect fill="#FEFECE" filter="url(#f1bwcpplxaffps)" height="50" rx="12.5" ry="12.5" style="stroke: #A80036; stroke-width: 1.5;" width="214" x="429.5" y="1251.2969"/><line style="stroke: #A80036; stroke-width: 1.5;" x1="429.5" x2="643.5" y1="1277.5938" y2="1277.5938"/><text fill="#000000" font-family="sans-serif" font-size="14" lengthAdjust="spacingAndGlyphs" textLength="194" x="439.5" y="1269.292">write_cpri_remote_mem_hdr</text><rect fill="#FEFECE" filter="url(#f1bwcpplxaffps)" height="50" rx="12.5" ry="12.5" style="stroke: #A80036; stroke-width: 1.5;" width="151" x="354" y="1354.2969"/><line style="stroke: #A80036; stroke-width: 1.5;" x1="354" x2="505" y1="1380.5938" y2="1380.5938"/><text fill="#000000" font-family="sans-serif" font-size="14" lengthAdjust="spacingAndGlyphs" textLength="131" x="364" y="1372.292">write_read_payload</text><rect fill="#FEFECE" filter="url(#f1bwcpplxaffps)" height="50" rx="12.5" ry="12.5" style="stroke: #A80036; stroke-width: 1.5;" width="102" x="548.5" y="1441.2969"/><line style="stroke: #A80036; stroke-width: 1.5;" x1="548.5" x2="650.5" y1="1467.5938" y2="1467.5938"/><text fill="#000000" font-family="sans-serif" font-size="14" lengthAdjust="spacingAndGlyphs" textLength="82" x="558.5" y="1459.292">cpri_pkt_rdy</text><rect fill="#FEFECE" filter="url(#f1bwcpplxaffps)" height="50" rx="12.5" ry="12.5" style="stroke: #A80036; stroke-width: 1.5;" width="153" x="523" y="1354.2969"/><line style="stroke: #A80036; stroke-width: 1.5;" x1="523" x2="676" y1="1380.5938" y2="1380.5938"/><text fill="#000000" font-family="sans-serif" font-size="14" lengthAdjust="spacingAndGlyphs" textLength="133" x="533" y="1372.292">write_write_payload</text><rect fill="#FEFECE" filter="url(#f1bwcpplxaffps)" height="50" rx="12.5" ry="12.5" style="stroke: #A80036; stroke-width: 1.5;" width="125" x="630" y="1528.2969"/><line style="stroke: #A80036; stroke-width: 1.5;" x1="630" x2="755" y1="1554.5938" y2="1554.5938"/><text fill="#000000" font-family="sans-serif" font-size="14" lengthAdjust="spacingAndGlyphs" textLength="105" x="640" y="1546.292">cpri_pkt_rdy_flg</text><!--link reset_tx to write_cpri_hdr--><path d="M641.8743,1092.2036 C631.983,1098.5562 621.5547,1105.8114 612.5,1113.2969 C601.2567,1122.5917 589.9658,1133.9515 580.4336,1144.2764 " fill="none" id="reset_tx-write_cpri_hdr" style="stroke: #A80036; stroke-width: 1.0;"/><polygon fill="#A80036" points="577.0047,1148.0277,586.0293,1144.0834,580.3781,1144.3371,580.1244,1138.686,577.0047,1148.0277" style="stroke: #A80036; stroke-width: 1.0;"/><text fill="#000000" font-family="sans-serif" font-size="13" lengthAdjust="spacingAndGlyphs" textLength="157" x="613.5" y="1126.3638">create the global header</text><!--link write_cpri_hdr to write_cpri_remote_mem_hdr--><path d="M543.0049,1198.7075 C540.7504,1204.3696 538.7282,1210.4354 537.5,1216.2969 C535.4989,1225.8467 534.8282,1236.4396 534.7822,1246.0341 " fill="none" id="write_cpri_hdr-write_cpri_remote_mem_hdr" style="stroke: #A80036; stroke-width: 1.0;"/><polygon fill="#A80036" points="534.8164,1251.2487,538.7569,1242.2225,534.7834,1246.2488,530.7571,1242.2753,534.8164,1251.2487" style="stroke: #A80036; stroke-width: 1.0;"/><text fill="#000000" font-family="sans-serif" font-size="13" lengthAdjust="spacingAndGlyphs" textLength="232" x="538.5" y="1229.3638">/ create the remote memory header</text><!--link write_cpri_remote_mem_hdr to write_read_payload--><path d="M454.702,1301.3262 C441.478,1306.9637 430.7202,1313.1161 426.5,1319.2969 C420.6906,1327.8053 419.8111,1338.6811 420.922,1348.8303 " fill="none" id="write_cpri_remote_mem_hdr-write_read_payload" style="stroke: #A80036; stroke-width: 1.0;"/><polygon fill="#A80036" points="421.6688,1354.0551,424.3549,1344.5796,420.9612,1349.1054,416.4354,1345.7117,421.6688,1354.0551" style="stroke: #A80036; stroke-width: 1.0;"/><text fill="#000000" font-family="sans-serif" font-size="13" lengthAdjust="spacingAndGlyphs" textLength="143" x="427.5" y="1332.3638">/ read the cpri payload</text><!--link write_read_payload to cpri_pkt_rdy--><path d="M478.671,1404.4609 C499.7274,1415.2368 524.3744,1427.8503 545.8967,1438.8646 " fill="none" id="write_read_payload-cpri_pkt_rdy" style="stroke: #A80036; stroke-width: 1.0;"/><polygon fill="#A80036" points="550.4395,1441.1894,544.25,1433.5284,545.9885,1438.9115,540.6054,1440.65,550.4395,1441.1894" style="stroke: #A80036; stroke-width: 1.0;"/><!--link write_cpri_remote_mem_hdr to write_write_payload--><path d="M562.0202,1301.4693 C566.8867,1307.0498 571.6542,1313.1434 575.5,1319.2969 C581.2741,1328.5358 586.121,1339.399 589.9133,1349.3249 " fill="none" id="write_cpri_remote_mem_hdr-write_write_payload" style="stroke: #A80036; stroke-width: 1.0;"/><polygon fill="#A80036" points="591.6897,1354.1111,592.308,1344.2816,589.9499,1349.4235,584.808,1347.0654,591.6897,1354.1111" style="stroke: #A80036; stroke-width: 1.0;"/><text fill="#000000" font-family="sans-serif" font-size="13" lengthAdjust="spacingAndGlyphs" textLength="171" x="584.5" y="1332.3638">/ create the write response</text><!--link write_write_payload to cpri_pkt_rdy--><path d="M599.5,1404.4609 C599.5,1414.29 599.5,1425.6479 599.5,1435.9265 " fill="none" id="write_write_payload-cpri_pkt_rdy" style="stroke: #A80036; stroke-width: 1.0;"/><polygon fill="#A80036" points="599.5,1441.1894,603.5,1432.1894,599.5,1436.1894,595.5,1432.1894,599.5,1441.1894" style="stroke: #A80036; stroke-width: 1.0;"/><!--link cpri_pkt_rdy to cpri_pkt_rdy_flg--><path d="M626.3995,1491.4609 C637.4848,1501.831 650.3892,1513.9029 661.8386,1524.6137 " fill="none" id="cpri_pkt_rdy-cpri_pkt_rdy_flg" style="stroke: #A80036; stroke-width: 1.0;"/><polygon fill="#A80036" points="665.661,1528.1894,661.8214,1519.1198,662.0097,1524.7735,656.356,1524.9619,665.661,1528.1894" style="stroke: #A80036; stroke-width: 1.0;"/><!--link cpri_pkt_rdy_flg to reset_tx--><path d="M743.3537,1528.1875 C765.0654,1513.6025 785.5,1492.8281 785.5,1466.2969 C785.5,1173.2969 785.5,1173.2969 785.5,1173.2969 C785.5,1145.9139 788.7481,1134.565 771.5,1113.2969 C759.0143,1097.9012 739.7508,1087.7347 722.071,1081.1738 " fill="none" id="cpri_pkt_rdy_flg-reset_tx" style="stroke: #A80036; stroke-width: 1.0;"/><polygon fill="#A80036" points="717.1333,1079.4175,724.2722,1086.2024,721.8441,1081.0932,726.9534,1078.6651,717.1333,1079.4175" style="stroke: #A80036; stroke-width: 1.0;"/><rect fill="#FEFECE" filter="url(#f1bwcpplxaffps)" height="516.2969" rx="12.5" ry="12.5" style="stroke: #A80036; stroke-width: 1.5;" width="375" x="607.5" y="1670"/><rect fill="#FFFFFF" height="484" rx="12.5" ry="12.5" style="stroke: #FFFFFF; stroke-width: 1.0;" width="369" x="610.5" y="1699.2969"/><line style="stroke: #A80036; stroke-width: 1.5;" x1="607.5" x2="982.5" y1="1696.2969" y2="1696.2969"/><text fill="#000000" font-family="sans-serif" font-size="14" lengthAdjust="spacingAndGlyphs" textLength="41" x="774.5" y="1687.9951">ip_pkt</text><rect fill="#FEFECE" filter="url(#f1bwcpplxaffps)" height="50" rx="12.5" ry="12.5" style="stroke: #A80036; stroke-width: 1.5;" width="104" x="688" y="1709.2969"/><line style="stroke: #A80036; stroke-width: 1.5;" x1="688" x2="792" y1="1735.5938" y2="1735.5938"/><text fill="#000000" font-family="sans-serif" font-size="14" lengthAdjust="spacingAndGlyphs" textLength="84" x="698" y="1727.292">reset_ip_pkt</text><rect fill="#FEFECE" filter="url(#f1bwcpplxaffps)" height="50" rx="12.5" ry="12.5" style="stroke: #A80036; stroke-width: 1.5;" width="73" x="618.5" y="1812.2969"/><line style="stroke: #A80036; stroke-width: 1.5;" x1="618.5" x2="691.5" y1="1838.5938" y2="1838.5938"/><text fill="#000000" font-family="sans-serif" font-size="14" lengthAdjust="spacingAndGlyphs" textLength="53" x="628.5" y="1830.292">eth_hdr</text><rect fill="#FEFECE" filter="url(#f1bwcpplxaffps)" height="50" rx="12.5" ry="12.5" style="stroke: #A80036; stroke-width: 1.5;" width="62" x="650" y="1915.2969"/><line style="stroke: #A80036; stroke-width: 1.5;" x1="650" x2="712" y1="1941.5938" y2="1941.5938"/><text fill="#000000" font-family="sans-serif" font-size="14" lengthAdjust="spacingAndGlyphs" textLength="42" x="660" y="1933.292">ip_hdr</text><rect fill="#FEFECE" filter="url(#f1bwcpplxaffps)" height="50" rx="12.5" ry="12.5" style="stroke: #A80036; stroke-width: 1.5;" width="77" x="652.5" y="2018.2969"/><line style="stroke: #A80036; stroke-width: 1.5;" x1="652.5" x2="729.5" y1="2044.5938" y2="2044.5938"/><text fill="#000000" font-family="sans-serif" font-size="14" lengthAdjust="spacingAndGlyphs" textLength="57" x="662.5" y="2036.292">udp_hdr</text><rect fill="#FEFECE" filter="url(#f1bwcpplxaffps)" height="50" rx="12.5" ry="12.5" style="stroke: #A80036; stroke-width: 1.5;" width="106" x="707" y="2121.2969"/><line style="stroke: #A80036; stroke-width: 1.5;" x1="707" x2="813" y1="2147.5938" y2="2147.5938"/><text fill="#000000" font-family="sans-serif" font-size="14" lengthAdjust="spacingAndGlyphs" textLength="86" x="717" y="2139.292">add_payload</text><!--link reset_ip_pkt to eth_hdr--><path d="M687.6664,1748.5017 C673.6835,1754.9439 660.1951,1764.1714 652,1777.2969 C646.5907,1785.9606 645.7589,1796.7761 646.7941,1806.8292 " fill="none" id="reset_ip_pkt-eth_hdr" style="stroke: #A80036; stroke-width: 1.0;"/><polygon fill="#A80036" points="647.4913,1812.0014,650.253,1802.5477,646.8233,1807.0462,642.3248,1803.6165,647.4913,1812.0014" style="stroke: #A80036; stroke-width: 1.0;"/><text fill="#000000" font-family="sans-serif" font-size="13" lengthAdjust="spacingAndGlyphs" textLength="161" x="653" y="1790.3638">create_pkt / reset_ram_1</text><!--link eth_hdr to ip_hdr--><path d="M661.3603,1862.4935 C664.9802,1876.8337 669.5388,1894.8931 673.3528,1910.0022 " fill="none" id="eth_hdr-ip_hdr" style="stroke: #A80036; stroke-width: 1.0;"/><polygon fill="#A80036" points="674.6152,1915.0034,676.2906,1905.2981,673.3914,1910.1555,668.534,1907.2562,674.6152,1915.0034" style="stroke: #A80036; stroke-width: 1.0;"/><text fill="#000000" font-family="sans-serif" font-size="13" lengthAdjust="spacingAndGlyphs" textLength="113" x="671" y="1893.3638">/ create ip header</text><!--link ip_hdr to udp_hdr--><path d="M683.4463,1965.4935 C684.8385,1979.8337 686.5919,1997.8931 688.0588,2013.0022 " fill="none" id="ip_hdr-udp_hdr" style="stroke: #A80036; stroke-width: 1.0;"/><polygon fill="#A80036" points="688.5443,2018.0034,691.6559,2008.659,688.0612,2013.0268,683.6934,2009.432,688.5443,2018.0034" style="stroke: #A80036; stroke-width: 1.0;"/><text fill="#000000" font-family="sans-serif" font-size="13" lengthAdjust="spacingAndGlyphs" textLength="126" x="688" y="1996.3638">/ create udp header</text><!--link udp_hdr to add_payload--><path d="M691.475,2068.4436 C692.6872,2079.8017 695.561,2092.9595 702,2103.2969 C705.2619,2108.5336 709.4134,2113.3462 713.992,2117.7041 " fill="none" id="udp_hdr-add_payload" style="stroke: #A80036; stroke-width: 1.0;"/><polygon fill="#A80036" points="717.9282,2121.2571,713.9276,2112.2573,714.2166,2117.9068,708.5672,2118.1958,717.9282,2121.2571" style="stroke: #A80036; stroke-width: 1.0;"/><text fill="#000000" font-family="sans-serif" font-size="13" lengthAdjust="spacingAndGlyphs" textLength="111" x="703" y="2099.3638">/ add the payload</text><!--link add_payload to reset_ip_pkt--><path d="M799.0832,2121.2946 C805.1278,2115.9775 810.7603,2109.9372 815,2103.2969 C829.736,2080.2171 829,2070.6799 829,2043.2969 C829,1837.2969 829,1837.2969 829,1837.2969 C829,1809.9139 831.3469,1799.2652 815,1777.2969 C809.9544,1770.5162 803.4995,1764.638 796.4995,1759.5933 " fill="none" id="add_payload-reset_ip_pkt" style="stroke: #A80036; stroke-width: 1.0;"/><polygon fill="#A80036" points="792.0783,1756.5593,797.2358,1764.9498,796.2009,1759.3884,801.7623,1758.3535,792.0783,1756.5593" style="stroke: #A80036; stroke-width: 1.0;"/><text fill="#000000" font-family="sans-serif" font-size="13" lengthAdjust="spacingAndGlyphs" textLength="118" x="830" y="1944.8638">/ reset the module</text><!--link reset to ecpri_tx--><path d="M712,93.269 C712,112.3018 712,139.0391 712,162.5 C712,162.5 712,162.5 712,936.5 C712,957.7441 709.9903,979.2944 706.4688,1000.7493 " fill="none" id="reset-ecpri_tx" style="stroke: #A80036; stroke-width: 1.0;"/><polygon fill="#A80036" points="705.5929,1005.9072,711.0433,997.704,706.43,1000.9778,703.1562,996.3645,705.5929,1005.9072" style="stroke: #A80036; stroke-width: 1.0;"/><text fill="#000000" font-family="sans-serif" font-size="13" lengthAdjust="spacingAndGlyphs" textLength="147" x="713" y="546.0669">/ reset epcri_tx module</text><!--link reset to ecpri_rx--><path d="M683.9359,77.7946 C649.8454,90.8263 592.172,116.6511 554,154 C531.3804,176.1319 510.3302,201.057 490.9241,227.3219 " fill="none" id="reset-ecpri_rx" style="stroke: #A80036; stroke-width: 1.0;"/><polygon fill="#A80036" points="487.8236,231.5486,496.3721,226.6575,490.7809,227.517,489.9215,221.9258,487.8236,231.5486" style="stroke: #A80036; stroke-width: 1.0;"/><text fill="#000000" font-family="sans-serif" font-size="13" lengthAdjust="spacingAndGlyphs" textLength="147" x="555" y="167.0669">/ reset ecpri_rx module</text><!--link reset to ip_pkt--><path d="M740.0872,74.887 C795.5913,89.3201 914,124.557 914,162.5 C914,162.5 914,162.5 914,1299.5 C914,1420.8266 892.3271,1553.0638 867.4796,1664.8026 " fill="none" id="reset-ip_pkt" style="stroke: #A80036; stroke-width: 1.0;"/><polygon fill="#A80036" points="866.3694,1669.7723,872.2354,1661.8609,867.4595,1664.8926,864.4279,1660.1167,866.3694,1669.7723" style="stroke: #A80036; stroke-width: 1.0;"/><text fill="#000000" font-family="sans-serif" font-size="13" lengthAdjust="spacingAndGlyphs" textLength="155" x="915" y="894.0669">/ reset ip packet module</text><!--link ecpri_rx to ecpri_tx--><path d="M350.5826,851.1263 C356.546,883.2313 364.2019,915.044 374,945 C380.1275,963.7338 387.3469,982.5572 395.3509,1001.2323 " fill="none" id="ecpri_rx-ecpri_tx" style="stroke: #A80036; stroke-width: 1.0;"/><polygon fill="#A80036" points="397.4025,1005.9768,397.5017,996.1284,395.4179,1001.3875,390.1589,999.3038,397.4025,1005.9768" style="stroke: #A80036; stroke-width: 1.0;"/><text fill="#000000" font-family="sans-serif" font-size="13" lengthAdjust="spacingAndGlyphs" textLength="120" x="375" y="941.0669">/ create_read_resp</text><!--link ecpri_rx to ecpri_tx--><path d="M472.8316,851.1533 C482.6389,876.9198 491.8496,902.7608 500,928 C507.5595,951.4094 514.6345,975.8756 521.206,1000.595 " fill="none" id="ecpri_rx-ecpri_tx" style="stroke: #A80036; stroke-width: 1.0;"/><polygon fill="#A80036" points="522.5136,1005.542,524.0806,995.8186,521.2358,1000.708,516.3463,997.8632,522.5136,1005.542" style="stroke: #A80036; stroke-width: 1.0;"/><text fill="#000000" font-family="sans-serif" font-size="13" lengthAdjust="spacingAndGlyphs" textLength="121" x="506" y="941.0669">/ create_write_resp</text><!--link ecpri_tx to ip_pkt--><path d="M680.9513,1593.0486 C689.1168,1617.03 697.3373,1641.1729 705.4215,1664.9154 " fill="none" id="ecpri_tx-ip_pkt" style="stroke: #A80036; stroke-width: 1.0;"/><polygon fill="#A80036" points="707.0364,1669.6584,707.9219,1659.8494,705.4247,1664.9253,700.3489,1662.4281,707.0364,1669.6584" style="stroke: #A80036; stroke-width: 1.0;"/><text fill="#000000" font-family="sans-serif" font-size="13" lengthAdjust="spacingAndGlyphs" textLength="76" x="695" y="1636.0669">/ create_pkt</text><!--
@startuml
state  ecpri_top {
state reset

state ecpri_rx {
  reset_rx- ->find_cpri_hdr : ip_pkt_recv / find cpri header
  find_cpri_hdr- ->reset_rx : / did not find cpri header

  find_cpri_hdr- ->read_cpri_hdr : / read global header
  read_cpri_hdr- ->read_cpri_remote_mem_hdr : / read global header

  read_cpri_remote_mem_hdr- ->read_payload : / read cpri payload 
  read_payload- ->raise_rx_resp : / rx resp signal 
  raise_rx_resp- ->reset_rx : / got to the init state 

  read_cpri_remote_mem_hdr- ->write_to_mem : / write cpri payload 
  write_to_mem- ->raise_tx_resp : / raise res signal
  raise_tx_resp- ->reset_rx : / got to the init state 
}

state ecpri_tx {
  reset_tx- ->write_cpri_hdr : create the global header 

  write_cpri_hdr- ->write_cpri_remote_mem_hdr :  / create the remote memory header
    
  write_cpri_remote_mem_hdr- ->write_read_payload : / read the cpri payload
  write_read_payload- ->cpri_pkt_rdy

  write_cpri_remote_mem_hdr- ->write_write_payload  : / create the write response 
  write_write_payload- ->cpri_pkt_rdy

  cpri_pkt_rdy- ->cpri_pkt_rdy_flg
  cpri_pkt_rdy_flg- ->reset_tx
}

reset- ->ecpri_tx : / reset epcri_tx module 
reset- ->ecpri_rx : / reset ecpri_rx module 
reset- ->ip_pkt : / reset ip packet module

ecpri_rx- ->ecpri_tx : / create_read_resp
ecpri_rx- ->ecpri_tx : / create_write_resp 

ecpri_tx - -> ip_pkt  :  / create_pkt
}

state ip_pkt {
  reset_ip_pkt- ->eth_hdr : create_pkt / reset_ram_1 
  eth_hdr- ->ip_hdr : / create ip header
  ip_hdr- ->udp_hdr : / create udp header 
  udp_hdr- ->add_payload :  / add the payload  
  add_payload- ->reset_ip_pkt : / reset the module 
}


@enduml

PlantUML version 1.2018.13(Mon Nov 26 22:41:51 IST 2018)
(GPL source distribution)
Java Runtime: OpenJDK Runtime Environment
JVM: OpenJDK 64-Bit Server VM
Java Version: 11.0.8+10-post-Debian-1deb10u1
Operating System: Linux
OS Version: 4.4.0-19041-Microsoft
Default Encoding: UTF-8
Language: en
Country: US
--></g></svg>