<?xml version="1.0" encoding="UTF-8" standalone="no"?>
<!DOCTYPE svg PUBLIC "-//W3C//DTD SVG 1.1//EN"
 "http://www.w3.org/Graphics/SVG/1.1/DTD/svg11.dtd">
<!-- Generated by graphviz version 2.40.1 (20161225.0304)
 -->
<!-- Title: F Pages: 1 -->
<svg width="1117pt" height="398pt"
 viewBox="0.00 0.00 1117.00 398.00" xmlns="http://www.w3.org/2000/svg" xmlns:xlink="http://www.w3.org/1999/xlink">
<g id="graph0" class="graph" transform="scale(1 1) rotate(0) translate(4 394)">
<title>F</title>
<polygon fill="#ffffff" stroke="transparent" points="-4,4 -4,-394 1113,-394 1113,4 -4,4"/>
<!-- ecpri_rx -->
<g id="node1" class="node">
<title>ecpri_rx</title>
<polygon fill="none" stroke="#000000" points="313,-113.5 313,-257.5 375,-257.5 375,-113.5 313,-113.5"/>
<text text-anchor="middle" x="344" y="-181.8" font-family="Times,serif" font-size="14.00" fill="#000000">ecpri_rx</text>
</g>
<!-- ecpri_tx -->
<g id="node2" class="node">
<title>ecpri_tx</title>
<polygon fill="none" stroke="#000000" points="720,-139.5 720,-283.5 781,-283.5 781,-139.5 720,-139.5"/>
<text text-anchor="middle" x="750.5" y="-207.8" font-family="Times,serif" font-size="14.00" fill="#000000">ecpri_tx</text>
</g>
<!-- ecpri_rx&#45;&gt;ecpri_tx -->
<g id="edge1" class="edge">
<title>ecpri_rx&#45;&gt;ecpri_tx</title>
<path fill="none" stroke="#000000" d="M375.2224,-178.3333C375.2224,-178.3333 709.7277,-178.3333 709.7277,-178.3333"/>
<polygon fill="#000000" stroke="#000000" points="709.7277,-181.8334 719.7277,-178.3333 709.7276,-174.8334 709.7277,-181.8334"/>
<text text-anchor="middle" x="545" y="-215.3" font-family="Times,serif" font-size="14.00" fill="#000000">rx_resp</text>
</g>
<!-- ecpri_rx&#45;&gt;ecpri_tx -->
<g id="edge2" class="edge">
<title>ecpri_rx&#45;&gt;ecpri_tx</title>
<path fill="none" stroke="#000000" d="M375.2224,-211.6667C375.2224,-211.6667 709.7277,-211.6667 709.7277,-211.6667"/>
<polygon fill="#000000" stroke="#000000" points="709.7277,-215.1668 719.7277,-211.6667 709.7276,-208.1668 709.7277,-215.1668"/>
<text text-anchor="middle" x="545" y="-164.3" font-family="Times,serif" font-size="14.00" fill="#000000">tx_resp</text>
</g>
<!-- ram_1 -->
<g id="node6" class="node">
<title>ram_1</title>
<polygon fill="#ff0000" stroke="#000000" points="619,-.5 619,-144.5 673,-144.5 673,-.5 619,-.5"/>
<text text-anchor="middle" x="646" y="-68.8" font-family="Times,serif" font-size="14.00" fill="#000000">ram_1</text>
</g>
<!-- ecpri_rx&#45;&gt;ram_1 -->
<g id="edge3" class="edge">
<title>ecpri_rx&#45;&gt;ram_1</title>
<path fill="none" stroke="#000000" d="M375.1818,-129C375.1818,-129 608.9379,-129 608.9379,-129"/>
<polygon fill="#000000" stroke="#000000" points="608.9379,-132.5001 618.9379,-129 608.9379,-125.5001 608.9379,-132.5001"/>
<text text-anchor="middle" x="446.5" y="-97.3" font-family="Times,serif" font-size="14.00" fill="#000000">eth_packet_hdr</text>
</g>
<!-- ram_3 -->
<g id="node8" class="node">
<title>ram_3</title>
<polygon fill="#ff0000" stroke="#000000" points="518,-245.5 518,-389.5 572,-389.5 572,-245.5 518,-245.5"/>
<text text-anchor="middle" x="545" y="-313.8" font-family="Times,serif" font-size="14.00" fill="#000000">ram_3</text>
</g>
<!-- ecpri_rx&#45;&gt;ram_3 -->
<g id="edge4" class="edge">
<title>ecpri_rx&#45;&gt;ram_3</title>
<path fill="none" stroke="#000000" d="M375.4063,-251.5C375.4063,-251.5 507.9966,-251.5 507.9966,-251.5"/>
<polygon fill="#000000" stroke="#000000" points="507.9966,-255.0001 517.9966,-251.5 507.9966,-248.0001 507.9966,-255.0001"/>
<text text-anchor="middle" x="446.5" y="-284.3" font-family="Times,serif" font-size="14.00" fill="#000000">epcri_payload_read</text>
</g>
<!-- ip_pkt -->
<g id="node3" class="node">
<title>ip_pkt</title>
<polygon fill="none" stroke="#000000" points="1055,-46.5 1055,-190.5 1109,-190.5 1109,-46.5 1055,-46.5"/>
<text text-anchor="middle" x="1082" y="-114.8" font-family="Times,serif" font-size="14.00" fill="#000000">ip_pkt</text>
</g>
<!-- ecpri_tx&#45;&gt;ip_pkt -->
<g id="edge10" class="edge">
<title>ecpri_tx&#45;&gt;ip_pkt</title>
<path fill="none" stroke="#000000" d="M781.0925,-145.5C781.0925,-145.5 1044.7663,-145.5 1044.7663,-145.5"/>
<polygon fill="#000000" stroke="#000000" points="1044.7664,-149.0001 1054.7663,-145.5 1044.7663,-142.0001 1044.7664,-149.0001"/>
<text text-anchor="middle" x="928" y="-122.3" font-family="Times,serif" font-size="14.00" fill="#000000">ip_create</text>
</g>
<!-- ram_2 -->
<g id="node7" class="node">
<title>ram_2</title>
<polygon fill="#ff0000" stroke="#000000" points="901,-152.5 901,-296.5 955,-296.5 955,-152.5 901,-152.5"/>
<text text-anchor="middle" x="928" y="-220.8" font-family="Times,serif" font-size="14.00" fill="#000000">ram_2</text>
</g>
<!-- ecpri_tx&#45;&gt;ram_2 -->
<g id="edge9" class="edge">
<title>ecpri_tx&#45;&gt;ram_2</title>
<path fill="none" stroke="#000000" d="M781.0133,-218C781.0133,-218 890.7909,-218 890.7909,-218"/>
<polygon fill="#000000" stroke="#000000" points="890.7909,-221.5001 900.7909,-218 890.7909,-214.5001 890.7909,-221.5001"/>
<text text-anchor="middle" x="841" y="-221.3" font-family="Times,serif" font-size="14.00" fill="#000000">cpri_packet</text>
</g>
<!-- ip_switch -->
<g id="node4" class="node">
<title>ip_switch</title>
<polygon fill="none" stroke="#000000" points="0,-94.5 0,-238.5 69,-238.5 69,-94.5 0,-94.5"/>
<text text-anchor="middle" x="34.5" y="-162.8" font-family="Times,serif" font-size="14.00" fill="#000000">ip_switch</text>
</g>
<!-- ip_switch&#45;&gt;ecpri_rx -->
<g id="edge7" class="edge">
<title>ip_switch&#45;&gt;ecpri_rx</title>
<path fill="none" stroke="#000000" d="M69.1027,-211.5C69.1027,-211.5 302.8594,-211.5 302.8594,-211.5"/>
<polygon fill="#000000" stroke="#000000" points="302.8594,-215.0001 312.8594,-211.5 302.8593,-208.0001 302.8594,-215.0001"/>
<text text-anchor="middle" x="191" y="-224.3" font-family="Times,serif" font-size="14.00" fill="#000000">recv_pkt</text>
</g>
<!-- fifo -->
<g id="node5" class="node">
<title>fifo</title>
<polygon fill="#ffff00" stroke="#000000" points="164,-39.5 164,-183.5 218,-183.5 218,-39.5 164,-39.5"/>
<text text-anchor="middle" x="191" y="-107.8" font-family="Times,serif" font-size="14.00" fill="#000000">fifo</text>
</g>
<!-- ip_switch&#45;&gt;fifo -->
<g id="edge6" class="edge">
<title>ip_switch&#45;&gt;fifo</title>
<path fill="none" stroke="#000000" d="M69.2324,-139C69.2324,-139 153.6391,-139 153.6391,-139"/>
<polygon fill="#000000" stroke="#000000" points="153.6391,-142.5001 163.6391,-139 153.6391,-135.5001 153.6391,-142.5001"/>
<text text-anchor="middle" x="116.5" y="-155.3" font-family="Times,serif" font-size="14.00" fill="#000000">eth_packet</text>
</g>
<!-- fifo&#45;&gt;ecpri_rx -->
<g id="edge5" class="edge">
<title>fifo&#45;&gt;ecpri_rx</title>
<path fill="none" stroke="#000000" d="M218.0011,-148.5C218.0011,-148.5 302.7867,-148.5 302.7867,-148.5"/>
<polygon fill="#000000" stroke="#000000" points="302.7867,-152.0001 312.7867,-148.5 302.7866,-145.0001 302.7867,-152.0001"/>
<text text-anchor="middle" x="265.5" y="-155.3" font-family="Times,serif" font-size="14.00" fill="#000000">eth_packet</text>
</g>
<!-- ram_1&#45;&gt;ip_pkt -->
<g id="edge11" class="edge">
<title>ram_1&#45;&gt;ip_pkt</title>
<path fill="none" stroke="#000000" d="M673.2738,-92.5C673.2738,-92.5 1044.7366,-92.5 1044.7366,-92.5"/>
<polygon fill="#000000" stroke="#000000" points="1044.7366,-96.0001 1054.7366,-92.5 1044.7365,-89.0001 1044.7366,-96.0001"/>
<text text-anchor="middle" x="841" y="-76.3" font-family="Times,serif" font-size="14.00" fill="#000000">eth_packet_hdr</text>
</g>
<!-- ram_2&#45;&gt;ip_pkt -->
<g id="edge12" class="edge">
<title>ram_2&#45;&gt;ip_pkt</title>
<path fill="none" stroke="#000000" d="M955.1776,-171.5C955.1776,-171.5 1044.8355,-171.5 1044.8355,-171.5"/>
<polygon fill="#000000" stroke="#000000" points="1044.8355,-175.0001 1054.8355,-171.5 1044.8355,-168.0001 1044.8355,-175.0001"/>
<text text-anchor="middle" x="1005" y="-191.3" font-family="Times,serif" font-size="14.00" fill="#000000">cpri_packet</text>
</g>
<!-- ram_3&#45;&gt;ecpri_tx -->
<g id="edge8" class="edge">
<title>ram_3&#45;&gt;ecpri_tx</title>
<path fill="none" stroke="#000000" d="M572.2888,-264.5C572.2888,-264.5 709.7433,-264.5 709.7433,-264.5"/>
<polygon fill="#000000" stroke="#000000" points="709.7433,-268.0001 719.7433,-264.5 709.7432,-261.0001 709.7433,-268.0001"/>
<text text-anchor="middle" x="646" y="-284.3" font-family="Times,serif" font-size="14.00" fill="#000000">epcri_payload_write</text>
</g>
</g>
</svg>
